<?xml version="1.0" encoding="utf-8"?>
<!-- Generator: Adobe Illustrator 23.0.6, SVG Export Plug-In . SVG Version: 6.00 Build 0)  -->
<svg version="1.1" id="Layer_1" xmlns="http://www.w3.org/2000/svg" xmlns:xlink="http://www.w3.org/1999/xlink" x="0px" y="0px"
	 viewBox="0 0 767.9 377.3" style="enable-background:new 0 0 767.9 377.3;" xml:space="preserve">
<style type="text/css">
	.st0{fill:none;stroke:#FF0000;stroke-width:1.000000e-02;stroke-linecap:round;}
	.st1{fill:none;stroke:#0000FF;stroke-width:1.000000e-02;stroke-linecap:round;}
	.st2{font-family:'MyriadPro-Regular';}
	.st3{font-size:4px;}
</style>
<path id="back_outsideCutPath" vector-effect="non-scaling-stroke" class="st0" d="M12,6v12.5h8.5v17H12v17h8.5v17H12v17h8.5v17H12
	v17h8.5v17H12V150h12.5v-8.5h17v8.5h17v-8.5h17v8.5h17v-8.5h17v8.5h17v-8.5h17v8.5H156v-12.5h-8.5v-17h8.5v-17h-8.5v-17h8.5v-17
	h-8.5v-17h8.5v-17h-8.5v-17h8.5V6h-12.5v8.5h-17V6h-17v8.5h-17V6h-17v8.5h-17V6h-17v8.5h-17V6H12z"/>
<path id="right_outsideCutPath" vector-effect="non-scaling-stroke" class="st0" d="M164.5,6v12.5H156v17h8.5v17H156v17h8.5v17H156
	v17h8.5v17H156v17h8.5V150h4v-8.5h17v8.5h17v-8.5h17v8.5h17v-8.5h17v8.5h17v-8.5h17v8.5h4v-12.5h8.5v-17h-8.5v-17h8.5v-17h-8.5v-17
	h8.5v-17h-8.5v-17h8.5v-17h-8.5V6h-4v8.5h-17V6h-17v8.5h-17V6h-17v8.5h-17V6h-17v8.5h-17V6H164.5z"/>
<circle class="st0" cx="456.6" cy="72.5" r="9"/>
<circle class="st0" cx="456.6" cy="94.2" r="9"/>
<circle class="st0" cx="456.6" cy="116" r="9"/>
<circle class="st0" cx="456.6" cy="137.7" r="9"/>
<g>
	<circle class="st0" cx="228" cy="71.5" r="4.5"/>
	<circle class="st0" cx="228" cy="84.5" r="4.5"/>
</g>
<g>
	<path id="left_outsideCutPath" vector-effect="non-scaling-stroke" class="st0" d="M164.5,150v12.5H156v17h8.5v17H156v17h8.5v17
		H156v17h8.5v17H156v17h8.5V294h4v-8.5h17v8.5h17v-8.5h17v8.5h17v-8.5h17v8.5h17v-8.5h17v8.5h4v-12.5h8.5v-17h-8.5v-17h8.5v-17h-8.5
		v-17h8.5v-17h-8.5v-17h8.5v-17h-8.5V150h-4v8.5h-17V150h-17v8.5h-17V150h-17v8.5h-17V150h-17v8.5h-17V150H164.5z"/>
	<g>
		<circle class="st0" cx="228" cy="215.5" r="4.5"/>
		<circle class="st0" cx="228" cy="228.5" r="4.5"/>
	</g>
</g>
<g>
	<path id="front_outsideCutPath" vector-effect="non-scaling-stroke" class="st0" d="M12,150v12.5h8.5v17H12v17h8.5v17H12v17h8.5v17
		H12v17h8.5v17H12V294h12.5v-8.5h17v8.5h17v-8.5h17v8.5h17v-8.5h17v8.5h17v-8.5h17v8.5H156v-12.5h-8.5v-17h8.5v-17h-8.5v-17h8.5v-17
		h-8.5v-17h8.5v-17h-8.5v-17h8.5V150h-12.5v8.5h-17V150h-17v8.5h-17V150h-17v8.5h-17V150h-17v8.5h-17V150H12z"/>
	<g>
		<circle class="st0" cx="84" cy="215.5" r="4.5"/>
		<circle class="st0" cx="84" cy="228.5" r="4.5"/>
	</g>
</g>
<g>
	<circle class="st0" cx="84" cy="71.5" r="4.5"/>
	<circle class="st0" cx="84" cy="84.5" r="4.5"/>
</g>
<g>
	<g id="XMLID_1_">
		<g>
			<path d="M372,42c19.9,0,36,16.1,36,36s-16.1,36-36,36c-19.9,0-36-16.1-36-36S352.1,42,372,42z M391.8,78
				c0-10.9-8.9-19.8-19.8-19.8c-10.9,0-19.8,8.9-19.8,19.8S361,97.8,372,97.8C382.9,97.8,391.8,88.9,391.8,78z"/>
			<circle cx="372" cy="78" r="18"/>
		</g>
		<g>
			<polygon class="st0" points="308.5,14.5 308.5,18.5 300,18.5 300,35.5 308.5,35.5 308.5,52.5 300,52.5 300,69.5 308.5,69.5 
				308.5,86.5 300,86.5 300,103.5 308.5,103.5 308.5,120.5 300,120.5 300,137.5 308.5,137.5 308.5,141.5 312.5,141.5 312.5,150 
				329.5,150 329.5,141.5 346.5,141.5 346.5,150 363.5,150 363.5,141.5 380.5,141.5 380.5,150 397.5,150 397.5,141.5 414.5,141.5 
				414.5,150 431.4,150 431.4,141.5 435.5,141.5 435.5,137.5 444,137.5 444,120.5 435.5,120.5 435.5,103.5 444,103.5 444,86.5 
				435.5,86.5 435.5,69.5 444,69.5 444,52.5 435.5,52.5 435.5,35.5 444,35.5 444,18.5 435.5,18.5 435.5,14.5 431.4,14.5 431.4,6 
				414.5,6 414.5,14.5 397.5,14.5 397.5,6 380.5,6 380.5,14.5 363.5,14.5 363.5,6 346.5,6 346.5,14.5 329.5,14.5 329.5,6 312.5,6 
				312.5,14.5 			"/>
			<circle class="st0" cx="372" cy="78" r="18"/>
			<circle class="st0" cx="372" cy="78" r="36"/>
			<circle class="st0" cx="372" cy="78" r="19.8"/>
		</g>
	</g>
	<rect x="315.6" y="23.8" class="st0" width="9" height="9"/>
	<rect x="418.3" y="22.6" class="st0" width="9" height="9"/>
	<rect x="315.6" y="125.9" class="st0" width="9" height="9"/>
	<rect x="418.3" y="124.9" class="st0" width="9" height="9"/>
</g>
<g>
	<rect x="486.6" y="176.8" class="st0" width="9" height="9"/>
	<rect x="589.3" y="175.6" class="st0" width="9" height="9"/>
	<rect x="486.6" y="278.9" class="st0" width="9" height="9"/>
	<rect x="589.3" y="277.9" class="st0" width="9" height="9"/>
	<rect x="462" y="150" class="st0" width="162" height="162"/>
</g>
<g>
	<g>
		<path id="top_outsideCutPath" vector-effect="non-scaling-stroke" class="st0" d="M317.5,167.5v4H309v17h8.5v17H309v17h8.5v17H309
			v17h8.5v17H309v17h8.5v4h4v8.5h17v-8.5h17v8.5h17v-8.5h17v8.5h17v-8.5h17v8.5h17v-8.5h4v-4h8.5v-17h-8.5v-17h8.5v-17h-8.5v-17h8.5
			v-17h-8.5v-17h8.5v-17h-8.5v-4h-4V159h-17v8.5h-17V159h-17v8.5h-17V159h-17v8.5h-17V159h-17v8.5H317.5z"/>
		<circle class="st1" cx="381" cy="186.5" r="9"/>
		<circle class="st1" cx="426" cy="231" r="9"/>
		<circle class="st1" cx="381" cy="275.5" r="9"/>
		<circle class="st1" cx="336.5" cy="231" r="9"/>
	</g>
	<rect x="300" y="150" class="st0" width="162" height="162"/>
	<rect x="309" y="159" class="st0" width="144" height="144"/>
</g>
<g>
	<rect x="363.5" y="14.5" width="5" height="10"/>
	<rect x="375.5" y="14.5" width="5" height="10"/>
	<circle cx="366" cy="24.5" r="2.5"/>
	<rect x="369.5" y="14.5" width="5" height="10"/>
	<circle cx="372" cy="24.5" r="2.5"/>
	<circle cx="378" cy="24.8" r="2.5"/>
</g>
<g>
	<rect x="428.1" y="67" transform="matrix(-1.836970e-16 1 -1 -1.836970e-16 502.5836 -358.5935)" width="5" height="10"/>
	<rect x="428.1" y="79" transform="matrix(-1.836970e-16 1 -1 -1.836970e-16 514.5761 -346.601)" width="5" height="10"/>
	<circle cx="425.6" cy="72" r="2.5"/>
	<rect x="428.1" y="73" transform="matrix(-1.836970e-16 1 -1 -1.836970e-16 508.5886 -352.5886)" width="5" height="10"/>
	<circle cx="425.6" cy="78" r="2.5"/>
	<circle cx="425.3" cy="84" r="2.5"/>
</g>
<g>
	<rect x="311" y="79" transform="matrix(6.123234e-17 -1 1 6.123234e-17 229.5 397.4926)" width="5" height="10"/>
	<rect x="311" y="67" transform="matrix(6.123234e-17 -1 1 6.123234e-17 241.4925 385.5)" width="5" height="10"/>
	<circle cx="318.5" cy="84" r="2.5"/>
	<rect x="311" y="73" transform="matrix(6.123234e-17 -1 1 6.123234e-17 235.505 391.4876)" width="5" height="10"/>
	<circle cx="318.5" cy="78" r="2.5"/>
	<circle cx="318.8" cy="72" r="2.5"/>
</g>
<g>
	<rect x="375.5" y="131.3" transform="matrix(-1 -1.224647e-16 1.224647e-16 -1 755.9377 272.6035)" width="5" height="10"/>
	<rect x="363.5" y="131.3" transform="matrix(-1 -1.224647e-16 1.224647e-16 -1 731.9526 272.6035)" width="5" height="10"/>
	<circle cx="378" cy="131.3" r="2.5"/>
	<rect x="369.5" y="131.3" transform="matrix(-1 -1.224647e-16 1.224647e-16 -1 743.9277 272.6035)" width="5" height="10"/>
	<circle cx="372" cy="131.3" r="2.5"/>
	<circle cx="366" cy="131" r="2.5"/>
</g>
<g>
	<text transform="matrix(6.123234e-17 1 -1 6.123234e-17 364.7109 28.2548)" class="st2 st3">VCC</text>
	<text transform="matrix(6.123234e-17 1 -1 6.123234e-17 370.709 28.2587)" class="st2 st3">TX/RX</text>
	<text transform="matrix(6.123234e-17 1 -1 6.123234e-17 376.8691 28.2547)" class="st2 st3">GND</text>
</g>
<g>
	<text transform="matrix(-1 0 0 -1 421.9873 70.7383)" class="st2 st3">VCC</text>
	<text transform="matrix(-1 0 0 -1 421.9834 76.7363)" class="st2 st3">TX/RX</text>
	<text transform="matrix(-1 0 0 -1 421.9873 82.8965)" class="st2 st3">GND</text>
</g>
<g>
	<text transform="matrix(1 0 0 1 322.1455 85.2532)" class="st2 st3">VCC</text>
	<text transform="matrix(1 0 0 1 322.1494 79.2552)" class="st2 st3">TX/RX</text>
	<text transform="matrix(1 0 0 1 322.1454 73.095)" class="st2 st3">GND</text>
</g>
<g>
	<text transform="matrix(-1.836970e-16 -1 1 -1.836970e-16 379.2258 127.8896)" class="st2 st3">VCC</text>
	<text transform="matrix(-1.836970e-16 -1 1 -1.836970e-16 373.2278 127.8857)" class="st2 st3">TX/RX</text>
	<text transform="matrix(-1.836970e-16 -1 1 -1.836970e-16 367.0676 127.8896)" class="st2 st3">GND</text>
</g>
<g>
	<text transform="matrix(1 0 0 1 91.774 72.7217)" class="st2 st3">TX</text>
	<text transform="matrix(1 0 0 1 91.774 85.6269)" class="st2 st3">RX</text>
</g>
<g>
	<text transform="matrix(1 0 0 1 235.774 72.7212)" class="st2 st3">TX</text>
	<text transform="matrix(1 0 0 1 235.774 85.6265)" class="st2 st3">RX</text>
</g>
<g>
	<text transform="matrix(1 0 0 1 91.7738 216.7217)" class="st2 st3">TX</text>
	<text transform="matrix(1 0 0 1 91.7738 229.6269)" class="st2 st3">RX</text>
</g>
<g>
	<text transform="matrix(1 0 0 1 235.7737 216.7214)" class="st2 st3">TX</text>
	<text transform="matrix(1 0 0 1 235.7737 229.6266)" class="st2 st3">RX</text>
</g>
</svg>
