G04 EAGLE Gerber RS-274X export*
G75*
%MOMM*%
%FSLAX34Y34*%
%LPD*%
%IN*%
%IPPOS*%
%AMOC8*
5,1,8,0,0,1.08239X$1,22.5*%
G01*
%ADD10C,0.254000*%


D10*
X0Y0D02*
X444500Y0D01*
X444500Y444500D01*
X0Y444500D01*
X0Y0D01*
X51510Y408960D02*
X51439Y407881D01*
X51298Y406809D01*
X51087Y405749D01*
X50808Y404705D01*
X50460Y403681D01*
X50046Y402683D01*
X49568Y401713D01*
X49028Y400777D01*
X48427Y399878D01*
X47769Y399021D01*
X47057Y398208D01*
X46292Y397444D01*
X45479Y396731D01*
X44622Y396073D01*
X43723Y395472D01*
X42787Y394932D01*
X41817Y394454D01*
X40819Y394040D01*
X39795Y393692D01*
X38751Y393413D01*
X37691Y393202D01*
X36619Y393061D01*
X35540Y392990D01*
X34460Y392990D01*
X33381Y393061D01*
X32309Y393202D01*
X31249Y393413D01*
X30205Y393692D01*
X29181Y394040D01*
X28183Y394454D01*
X27213Y394932D01*
X26277Y395472D01*
X25378Y396073D01*
X24521Y396731D01*
X23708Y397444D01*
X22944Y398208D01*
X22231Y399021D01*
X21573Y399878D01*
X20972Y400777D01*
X20432Y401713D01*
X19954Y402683D01*
X19540Y403681D01*
X19192Y404705D01*
X18913Y405749D01*
X18702Y406809D01*
X18561Y407881D01*
X18490Y408960D01*
X18490Y410040D01*
X18561Y411119D01*
X18702Y412191D01*
X18913Y413251D01*
X19192Y414295D01*
X19540Y415319D01*
X19954Y416317D01*
X20432Y417287D01*
X20972Y418223D01*
X21573Y419122D01*
X22231Y419979D01*
X22944Y420792D01*
X23708Y421557D01*
X24521Y422269D01*
X25378Y422927D01*
X26277Y423528D01*
X27213Y424068D01*
X28183Y424546D01*
X29181Y424960D01*
X30205Y425308D01*
X31249Y425587D01*
X32309Y425798D01*
X33381Y425939D01*
X34460Y426010D01*
X35540Y426010D01*
X36619Y425939D01*
X37691Y425798D01*
X38751Y425587D01*
X39795Y425308D01*
X40819Y424960D01*
X41817Y424546D01*
X42787Y424068D01*
X43723Y423528D01*
X44622Y422927D01*
X45479Y422269D01*
X46292Y421557D01*
X47057Y420792D01*
X47769Y419979D01*
X48427Y419122D01*
X49028Y418223D01*
X49568Y417287D01*
X50046Y416317D01*
X50460Y415319D01*
X50808Y414295D01*
X51087Y413251D01*
X51298Y412191D01*
X51439Y411119D01*
X51510Y410040D01*
X51510Y408960D01*
X426010Y408960D02*
X425939Y407881D01*
X425798Y406809D01*
X425587Y405749D01*
X425308Y404705D01*
X424960Y403681D01*
X424546Y402683D01*
X424068Y401713D01*
X423528Y400777D01*
X422927Y399878D01*
X422269Y399021D01*
X421557Y398208D01*
X420792Y397444D01*
X419979Y396731D01*
X419122Y396073D01*
X418223Y395472D01*
X417287Y394932D01*
X416317Y394454D01*
X415319Y394040D01*
X414295Y393692D01*
X413251Y393413D01*
X412191Y393202D01*
X411119Y393061D01*
X410040Y392990D01*
X408960Y392990D01*
X407881Y393061D01*
X406809Y393202D01*
X405749Y393413D01*
X404705Y393692D01*
X403681Y394040D01*
X402683Y394454D01*
X401713Y394932D01*
X400777Y395472D01*
X399878Y396073D01*
X399021Y396731D01*
X398208Y397444D01*
X397444Y398208D01*
X396731Y399021D01*
X396073Y399878D01*
X395472Y400777D01*
X394932Y401713D01*
X394454Y402683D01*
X394040Y403681D01*
X393692Y404705D01*
X393413Y405749D01*
X393202Y406809D01*
X393061Y407881D01*
X392990Y408960D01*
X392990Y410040D01*
X393061Y411119D01*
X393202Y412191D01*
X393413Y413251D01*
X393692Y414295D01*
X394040Y415319D01*
X394454Y416317D01*
X394932Y417287D01*
X395472Y418223D01*
X396073Y419122D01*
X396731Y419979D01*
X397444Y420792D01*
X398208Y421557D01*
X399021Y422269D01*
X399878Y422927D01*
X400777Y423528D01*
X401713Y424068D01*
X402683Y424546D01*
X403681Y424960D01*
X404705Y425308D01*
X405749Y425587D01*
X406809Y425798D01*
X407881Y425939D01*
X408960Y426010D01*
X410040Y426010D01*
X411119Y425939D01*
X412191Y425798D01*
X413251Y425587D01*
X414295Y425308D01*
X415319Y424960D01*
X416317Y424546D01*
X417287Y424068D01*
X418223Y423528D01*
X419122Y422927D01*
X419979Y422269D01*
X420792Y421557D01*
X421557Y420792D01*
X422269Y419979D01*
X422927Y419122D01*
X423528Y418223D01*
X424068Y417287D01*
X424546Y416317D01*
X424960Y415319D01*
X425308Y414295D01*
X425587Y413251D01*
X425798Y412191D01*
X425939Y411119D01*
X426010Y410040D01*
X426010Y408960D01*
X51510Y34460D02*
X51439Y33381D01*
X51298Y32309D01*
X51087Y31249D01*
X50808Y30205D01*
X50460Y29181D01*
X50046Y28183D01*
X49568Y27213D01*
X49028Y26277D01*
X48427Y25378D01*
X47769Y24521D01*
X47057Y23708D01*
X46292Y22944D01*
X45479Y22231D01*
X44622Y21573D01*
X43723Y20972D01*
X42787Y20432D01*
X41817Y19954D01*
X40819Y19540D01*
X39795Y19192D01*
X38751Y18913D01*
X37691Y18702D01*
X36619Y18561D01*
X35540Y18490D01*
X34460Y18490D01*
X33381Y18561D01*
X32309Y18702D01*
X31249Y18913D01*
X30205Y19192D01*
X29181Y19540D01*
X28183Y19954D01*
X27213Y20432D01*
X26277Y20972D01*
X25378Y21573D01*
X24521Y22231D01*
X23708Y22944D01*
X22944Y23708D01*
X22231Y24521D01*
X21573Y25378D01*
X20972Y26277D01*
X20432Y27213D01*
X19954Y28183D01*
X19540Y29181D01*
X19192Y30205D01*
X18913Y31249D01*
X18702Y32309D01*
X18561Y33381D01*
X18490Y34460D01*
X18490Y35540D01*
X18561Y36619D01*
X18702Y37691D01*
X18913Y38751D01*
X19192Y39795D01*
X19540Y40819D01*
X19954Y41817D01*
X20432Y42787D01*
X20972Y43723D01*
X21573Y44622D01*
X22231Y45479D01*
X22944Y46292D01*
X23708Y47057D01*
X24521Y47769D01*
X25378Y48427D01*
X26277Y49028D01*
X27213Y49568D01*
X28183Y50046D01*
X29181Y50460D01*
X30205Y50808D01*
X31249Y51087D01*
X32309Y51298D01*
X33381Y51439D01*
X34460Y51510D01*
X35540Y51510D01*
X36619Y51439D01*
X37691Y51298D01*
X38751Y51087D01*
X39795Y50808D01*
X40819Y50460D01*
X41817Y50046D01*
X42787Y49568D01*
X43723Y49028D01*
X44622Y48427D01*
X45479Y47769D01*
X46292Y47057D01*
X47057Y46292D01*
X47769Y45479D01*
X48427Y44622D01*
X49028Y43723D01*
X49568Y42787D01*
X50046Y41817D01*
X50460Y40819D01*
X50808Y39795D01*
X51087Y38751D01*
X51298Y37691D01*
X51439Y36619D01*
X51510Y35540D01*
X51510Y34460D01*
X426010Y34460D02*
X425939Y33381D01*
X425798Y32309D01*
X425587Y31249D01*
X425308Y30205D01*
X424960Y29181D01*
X424546Y28183D01*
X424068Y27213D01*
X423528Y26277D01*
X422927Y25378D01*
X422269Y24521D01*
X421557Y23708D01*
X420792Y22944D01*
X419979Y22231D01*
X419122Y21573D01*
X418223Y20972D01*
X417287Y20432D01*
X416317Y19954D01*
X415319Y19540D01*
X414295Y19192D01*
X413251Y18913D01*
X412191Y18702D01*
X411119Y18561D01*
X410040Y18490D01*
X408960Y18490D01*
X407881Y18561D01*
X406809Y18702D01*
X405749Y18913D01*
X404705Y19192D01*
X403681Y19540D01*
X402683Y19954D01*
X401713Y20432D01*
X400777Y20972D01*
X399878Y21573D01*
X399021Y22231D01*
X398208Y22944D01*
X397444Y23708D01*
X396731Y24521D01*
X396073Y25378D01*
X395472Y26277D01*
X394932Y27213D01*
X394454Y28183D01*
X394040Y29181D01*
X393692Y30205D01*
X393413Y31249D01*
X393202Y32309D01*
X393061Y33381D01*
X392990Y34460D01*
X392990Y35540D01*
X393061Y36619D01*
X393202Y37691D01*
X393413Y38751D01*
X393692Y39795D01*
X394040Y40819D01*
X394454Y41817D01*
X394932Y42787D01*
X395472Y43723D01*
X396073Y44622D01*
X396731Y45479D01*
X397444Y46292D01*
X398208Y47057D01*
X399021Y47769D01*
X399878Y48427D01*
X400777Y49028D01*
X401713Y49568D01*
X402683Y50046D01*
X403681Y50460D01*
X404705Y50808D01*
X405749Y51087D01*
X406809Y51298D01*
X407881Y51439D01*
X408960Y51510D01*
X410040Y51510D01*
X411119Y51439D01*
X412191Y51298D01*
X413251Y51087D01*
X414295Y50808D01*
X415319Y50460D01*
X416317Y50046D01*
X417287Y49568D01*
X418223Y49028D01*
X419122Y48427D01*
X419979Y47769D01*
X420792Y47057D01*
X421557Y46292D01*
X422269Y45479D01*
X422927Y44622D01*
X423528Y43723D01*
X424068Y42787D01*
X424546Y41817D01*
X424960Y40819D01*
X425308Y39795D01*
X425587Y38751D01*
X425798Y37691D01*
X425939Y36619D01*
X426010Y35540D01*
X426010Y34460D01*
M02*
