G04 EAGLE Gerber RS-274X export*
G75*
%MOMM*%
%FSLAX34Y34*%
%LPD*%
%INSilkscreen Bottom*%
%IPPOS*%
%AMOC8*
5,1,8,0,0,1.08239X$1,22.5*%
G01*
%ADD10C,0.254000*%
%ADD11C,0.400000*%
%ADD12C,0.127000*%
%ADD13C,0.203200*%


D10*
X237250Y176250D02*
X207250Y176250D01*
X252250Y202250D02*
X252250Y218750D01*
X199750Y218750D02*
X192250Y218750D01*
X192250Y202250D01*
X244750Y218750D02*
X252250Y218750D01*
D11*
X245836Y225250D02*
X245838Y225325D01*
X245844Y225399D01*
X245854Y225473D01*
X245867Y225546D01*
X245885Y225619D01*
X245906Y225690D01*
X245931Y225761D01*
X245960Y225830D01*
X245993Y225897D01*
X246029Y225962D01*
X246068Y226026D01*
X246110Y226087D01*
X246156Y226146D01*
X246205Y226203D01*
X246257Y226256D01*
X246311Y226307D01*
X246368Y226356D01*
X246428Y226400D01*
X246490Y226442D01*
X246554Y226481D01*
X246620Y226516D01*
X246687Y226547D01*
X246757Y226575D01*
X246827Y226599D01*
X246899Y226620D01*
X246972Y226636D01*
X247045Y226649D01*
X247120Y226658D01*
X247194Y226663D01*
X247269Y226664D01*
X247343Y226661D01*
X247418Y226654D01*
X247491Y226643D01*
X247565Y226629D01*
X247637Y226610D01*
X247708Y226588D01*
X247778Y226562D01*
X247847Y226532D01*
X247913Y226499D01*
X247978Y226462D01*
X248041Y226422D01*
X248102Y226378D01*
X248160Y226332D01*
X248216Y226282D01*
X248269Y226230D01*
X248320Y226175D01*
X248367Y226117D01*
X248411Y226057D01*
X248452Y225994D01*
X248490Y225930D01*
X248524Y225864D01*
X248555Y225795D01*
X248582Y225726D01*
X248605Y225655D01*
X248624Y225583D01*
X248640Y225510D01*
X248652Y225436D01*
X248660Y225362D01*
X248664Y225287D01*
X248664Y225213D01*
X248660Y225138D01*
X248652Y225064D01*
X248640Y224990D01*
X248624Y224917D01*
X248605Y224845D01*
X248582Y224774D01*
X248555Y224705D01*
X248524Y224636D01*
X248490Y224570D01*
X248452Y224506D01*
X248411Y224443D01*
X248367Y224383D01*
X248320Y224325D01*
X248269Y224270D01*
X248216Y224218D01*
X248160Y224168D01*
X248102Y224122D01*
X248041Y224078D01*
X247978Y224038D01*
X247913Y224001D01*
X247847Y223968D01*
X247778Y223938D01*
X247708Y223912D01*
X247637Y223890D01*
X247565Y223871D01*
X247491Y223857D01*
X247418Y223846D01*
X247343Y223839D01*
X247269Y223836D01*
X247194Y223837D01*
X247120Y223842D01*
X247045Y223851D01*
X246972Y223864D01*
X246899Y223880D01*
X246827Y223901D01*
X246757Y223925D01*
X246687Y223953D01*
X246620Y223984D01*
X246554Y224019D01*
X246490Y224058D01*
X246428Y224100D01*
X246368Y224144D01*
X246311Y224193D01*
X246257Y224244D01*
X246205Y224297D01*
X246156Y224354D01*
X246110Y224413D01*
X246068Y224474D01*
X246029Y224538D01*
X245993Y224603D01*
X245960Y224670D01*
X245931Y224739D01*
X245906Y224810D01*
X245885Y224881D01*
X245867Y224954D01*
X245854Y225027D01*
X245844Y225101D01*
X245838Y225175D01*
X245836Y225250D01*
D12*
X233976Y206121D02*
X233976Y202367D01*
X233977Y202367D02*
X233979Y202302D01*
X233985Y202238D01*
X233995Y202174D01*
X234008Y202110D01*
X234026Y202048D01*
X234047Y201987D01*
X234071Y201927D01*
X234100Y201869D01*
X234132Y201812D01*
X234167Y201758D01*
X234205Y201706D01*
X234247Y201656D01*
X234291Y201609D01*
X234338Y201565D01*
X234388Y201523D01*
X234440Y201485D01*
X234494Y201450D01*
X234551Y201418D01*
X234609Y201389D01*
X234669Y201365D01*
X234730Y201344D01*
X234792Y201326D01*
X234856Y201313D01*
X234920Y201303D01*
X234984Y201297D01*
X235049Y201295D01*
X235585Y201295D01*
X231028Y205049D02*
X229688Y206121D01*
X229688Y201295D01*
X231028Y201295D02*
X228347Y201295D01*
X242400Y358905D02*
X242400Y363731D01*
X241059Y363731D01*
X240988Y363729D01*
X240916Y363723D01*
X240846Y363714D01*
X240776Y363701D01*
X240706Y363684D01*
X240638Y363663D01*
X240571Y363639D01*
X240505Y363611D01*
X240441Y363580D01*
X240378Y363545D01*
X240318Y363507D01*
X240259Y363466D01*
X240203Y363422D01*
X240149Y363375D01*
X240098Y363326D01*
X240050Y363273D01*
X240004Y363218D01*
X239962Y363161D01*
X239922Y363101D01*
X239886Y363040D01*
X239853Y362976D01*
X239824Y362911D01*
X239798Y362845D01*
X239775Y362777D01*
X239756Y362708D01*
X239741Y362638D01*
X239730Y362568D01*
X239722Y362497D01*
X239718Y362426D01*
X239718Y362354D01*
X239722Y362283D01*
X239730Y362212D01*
X239741Y362142D01*
X239756Y362072D01*
X239775Y362003D01*
X239798Y361935D01*
X239824Y361869D01*
X239853Y361804D01*
X239886Y361740D01*
X239922Y361679D01*
X239962Y361619D01*
X240004Y361562D01*
X240050Y361507D01*
X240098Y361454D01*
X240149Y361405D01*
X240203Y361358D01*
X240259Y361314D01*
X240318Y361273D01*
X240378Y361235D01*
X240441Y361200D01*
X240505Y361169D01*
X240571Y361141D01*
X240638Y361117D01*
X240706Y361096D01*
X240776Y361079D01*
X240846Y361066D01*
X240916Y361057D01*
X240988Y361051D01*
X241059Y361049D01*
X241059Y361050D02*
X242400Y361050D01*
X237060Y358905D02*
X237060Y363731D01*
X235719Y363731D01*
X235649Y363729D01*
X235579Y363724D01*
X235509Y363714D01*
X235440Y363702D01*
X235372Y363685D01*
X235305Y363665D01*
X235238Y363642D01*
X235174Y363615D01*
X235110Y363585D01*
X235049Y363551D01*
X234989Y363515D01*
X234931Y363475D01*
X234875Y363432D01*
X234822Y363387D01*
X234771Y363338D01*
X234722Y363287D01*
X234677Y363234D01*
X234634Y363178D01*
X234594Y363120D01*
X234558Y363061D01*
X234524Y362999D01*
X234494Y362935D01*
X234467Y362871D01*
X234444Y362804D01*
X234424Y362737D01*
X234407Y362669D01*
X234395Y362600D01*
X234385Y362530D01*
X234380Y362460D01*
X234378Y362390D01*
X234379Y362390D02*
X234379Y360246D01*
X234378Y360246D02*
X234380Y360176D01*
X234385Y360106D01*
X234395Y360036D01*
X234407Y359967D01*
X234424Y359899D01*
X234444Y359832D01*
X234467Y359765D01*
X234494Y359701D01*
X234524Y359637D01*
X234558Y359576D01*
X234594Y359516D01*
X234634Y359458D01*
X234677Y359402D01*
X234722Y359349D01*
X234771Y359298D01*
X234822Y359249D01*
X234875Y359204D01*
X234931Y359161D01*
X234989Y359121D01*
X235049Y359085D01*
X235110Y359051D01*
X235174Y359021D01*
X235238Y358994D01*
X235305Y358971D01*
X235372Y358951D01*
X235440Y358934D01*
X235509Y358922D01*
X235579Y358912D01*
X235649Y358907D01*
X235719Y358905D01*
X237060Y358905D01*
X231144Y358905D02*
X231144Y363731D01*
X229803Y363731D01*
X229732Y363729D01*
X229660Y363723D01*
X229590Y363714D01*
X229520Y363701D01*
X229450Y363684D01*
X229382Y363663D01*
X229315Y363639D01*
X229249Y363611D01*
X229185Y363580D01*
X229122Y363545D01*
X229062Y363507D01*
X229003Y363466D01*
X228947Y363422D01*
X228893Y363375D01*
X228842Y363326D01*
X228794Y363273D01*
X228748Y363218D01*
X228706Y363161D01*
X228666Y363101D01*
X228630Y363040D01*
X228597Y362976D01*
X228568Y362911D01*
X228542Y362845D01*
X228519Y362777D01*
X228500Y362708D01*
X228485Y362638D01*
X228474Y362568D01*
X228466Y362497D01*
X228462Y362426D01*
X228462Y362354D01*
X228466Y362283D01*
X228474Y362212D01*
X228485Y362142D01*
X228500Y362072D01*
X228519Y362003D01*
X228542Y361935D01*
X228568Y361869D01*
X228597Y361804D01*
X228630Y361740D01*
X228666Y361679D01*
X228706Y361619D01*
X228748Y361562D01*
X228794Y361507D01*
X228842Y361454D01*
X228893Y361405D01*
X228947Y361358D01*
X229003Y361314D01*
X229062Y361273D01*
X229122Y361235D01*
X229185Y361200D01*
X229249Y361169D01*
X229315Y361141D01*
X229382Y361117D01*
X229450Y361096D01*
X229520Y361079D01*
X229590Y361066D01*
X229660Y361057D01*
X229732Y361051D01*
X229803Y361049D01*
X229803Y361050D02*
X231144Y361050D01*
X229535Y361050D02*
X228463Y358905D01*
X225624Y360782D02*
X222406Y360782D01*
X218078Y358905D02*
X218013Y358907D01*
X217949Y358913D01*
X217885Y358923D01*
X217821Y358936D01*
X217759Y358954D01*
X217698Y358975D01*
X217638Y358999D01*
X217580Y359028D01*
X217523Y359060D01*
X217469Y359095D01*
X217417Y359133D01*
X217367Y359175D01*
X217320Y359219D01*
X217276Y359266D01*
X217234Y359316D01*
X217196Y359368D01*
X217161Y359422D01*
X217129Y359479D01*
X217100Y359537D01*
X217076Y359597D01*
X217055Y359658D01*
X217037Y359720D01*
X217024Y359784D01*
X217014Y359848D01*
X217008Y359912D01*
X217006Y359977D01*
X218078Y358905D02*
X218172Y358907D01*
X218266Y358913D01*
X218360Y358923D01*
X218453Y358936D01*
X218545Y358954D01*
X218637Y358975D01*
X218728Y359000D01*
X218818Y359029D01*
X218906Y359062D01*
X218993Y359098D01*
X219078Y359138D01*
X219162Y359181D01*
X219243Y359228D01*
X219323Y359278D01*
X219401Y359331D01*
X219476Y359388D01*
X219549Y359447D01*
X219619Y359510D01*
X219687Y359575D01*
X219552Y362659D02*
X219550Y362724D01*
X219544Y362788D01*
X219534Y362852D01*
X219521Y362916D01*
X219503Y362978D01*
X219482Y363039D01*
X219458Y363099D01*
X219429Y363157D01*
X219397Y363214D01*
X219362Y363268D01*
X219324Y363320D01*
X219282Y363370D01*
X219238Y363417D01*
X219191Y363461D01*
X219141Y363503D01*
X219089Y363541D01*
X219035Y363576D01*
X218978Y363608D01*
X218920Y363637D01*
X218860Y363661D01*
X218799Y363682D01*
X218737Y363700D01*
X218673Y363713D01*
X218609Y363723D01*
X218545Y363729D01*
X218480Y363731D01*
X218394Y363729D01*
X218308Y363724D01*
X218222Y363714D01*
X218137Y363701D01*
X218052Y363685D01*
X217968Y363665D01*
X217885Y363641D01*
X217803Y363614D01*
X217723Y363583D01*
X217643Y363549D01*
X217566Y363511D01*
X217490Y363470D01*
X217416Y363426D01*
X217343Y363379D01*
X217273Y363329D01*
X219016Y361721D02*
X219069Y361754D01*
X219120Y361791D01*
X219169Y361830D01*
X219216Y361872D01*
X219260Y361917D01*
X219301Y361964D01*
X219340Y362013D01*
X219376Y362065D01*
X219409Y362119D01*
X219438Y362174D01*
X219464Y362231D01*
X219487Y362290D01*
X219507Y362349D01*
X219523Y362410D01*
X219536Y362471D01*
X219545Y362534D01*
X219550Y362596D01*
X219552Y362659D01*
X217541Y360915D02*
X217488Y360882D01*
X217437Y360845D01*
X217388Y360806D01*
X217341Y360764D01*
X217297Y360719D01*
X217256Y360672D01*
X217217Y360623D01*
X217181Y360571D01*
X217148Y360517D01*
X217119Y360462D01*
X217093Y360405D01*
X217070Y360346D01*
X217050Y360287D01*
X217034Y360226D01*
X217021Y360165D01*
X217012Y360102D01*
X217007Y360040D01*
X217005Y359977D01*
X217541Y360916D02*
X219016Y361720D01*
X214102Y363731D02*
X214102Y358905D01*
X212494Y361050D02*
X214102Y363731D01*
X212494Y361050D02*
X210885Y363731D01*
X210885Y358905D01*
X207702Y360782D02*
X204484Y360782D01*
X201581Y362659D02*
X200241Y363731D01*
X200241Y358905D01*
X201581Y358905D02*
X198900Y358905D01*
X337188Y373641D02*
X337190Y373576D01*
X337196Y373512D01*
X337206Y373448D01*
X337219Y373384D01*
X337237Y373322D01*
X337258Y373261D01*
X337282Y373201D01*
X337311Y373143D01*
X337343Y373086D01*
X337378Y373032D01*
X337416Y372980D01*
X337458Y372930D01*
X337502Y372883D01*
X337549Y372839D01*
X337599Y372797D01*
X337651Y372759D01*
X337705Y372724D01*
X337762Y372692D01*
X337820Y372663D01*
X337880Y372639D01*
X337941Y372618D01*
X338003Y372600D01*
X338067Y372587D01*
X338131Y372577D01*
X338195Y372571D01*
X338260Y372569D01*
X338354Y372571D01*
X338448Y372577D01*
X338542Y372587D01*
X338635Y372600D01*
X338727Y372618D01*
X338819Y372639D01*
X338910Y372664D01*
X339000Y372693D01*
X339088Y372726D01*
X339175Y372762D01*
X339260Y372802D01*
X339344Y372845D01*
X339425Y372892D01*
X339505Y372942D01*
X339583Y372995D01*
X339658Y373052D01*
X339731Y373111D01*
X339801Y373174D01*
X339869Y373239D01*
X339734Y376323D02*
X339732Y376388D01*
X339726Y376452D01*
X339716Y376516D01*
X339703Y376580D01*
X339685Y376642D01*
X339664Y376703D01*
X339640Y376763D01*
X339611Y376821D01*
X339579Y376878D01*
X339544Y376932D01*
X339506Y376984D01*
X339464Y377034D01*
X339420Y377081D01*
X339373Y377125D01*
X339323Y377167D01*
X339271Y377205D01*
X339217Y377240D01*
X339160Y377272D01*
X339102Y377301D01*
X339042Y377325D01*
X338981Y377346D01*
X338919Y377364D01*
X338855Y377377D01*
X338791Y377387D01*
X338727Y377393D01*
X338662Y377395D01*
X338576Y377393D01*
X338490Y377388D01*
X338404Y377378D01*
X338319Y377365D01*
X338234Y377349D01*
X338150Y377329D01*
X338067Y377305D01*
X337985Y377278D01*
X337905Y377247D01*
X337825Y377213D01*
X337748Y377175D01*
X337672Y377134D01*
X337598Y377090D01*
X337525Y377043D01*
X337455Y376993D01*
X339199Y375385D02*
X339252Y375418D01*
X339303Y375455D01*
X339352Y375494D01*
X339399Y375536D01*
X339443Y375581D01*
X339484Y375628D01*
X339523Y375677D01*
X339559Y375729D01*
X339592Y375783D01*
X339621Y375838D01*
X339647Y375895D01*
X339670Y375954D01*
X339690Y376013D01*
X339706Y376074D01*
X339719Y376135D01*
X339728Y376198D01*
X339733Y376260D01*
X339735Y376323D01*
X337724Y374579D02*
X337671Y374546D01*
X337620Y374509D01*
X337571Y374470D01*
X337524Y374428D01*
X337480Y374383D01*
X337439Y374336D01*
X337400Y374287D01*
X337364Y374235D01*
X337331Y374181D01*
X337302Y374126D01*
X337276Y374069D01*
X337253Y374010D01*
X337233Y373951D01*
X337217Y373890D01*
X337204Y373829D01*
X337195Y373766D01*
X337190Y373704D01*
X337188Y373641D01*
X337724Y374580D02*
X339199Y375384D01*
X334285Y377395D02*
X334285Y372569D01*
X332676Y374714D02*
X334285Y377395D01*
X332676Y374714D02*
X331067Y377395D01*
X331067Y372569D01*
X327735Y372569D02*
X327735Y377395D01*
X326394Y377395D01*
X326323Y377393D01*
X326251Y377387D01*
X326181Y377378D01*
X326111Y377365D01*
X326041Y377348D01*
X325973Y377327D01*
X325906Y377303D01*
X325840Y377275D01*
X325776Y377244D01*
X325713Y377209D01*
X325653Y377171D01*
X325594Y377130D01*
X325538Y377086D01*
X325484Y377039D01*
X325433Y376990D01*
X325385Y376937D01*
X325339Y376882D01*
X325297Y376825D01*
X325257Y376765D01*
X325221Y376704D01*
X325188Y376640D01*
X325159Y376575D01*
X325133Y376509D01*
X325110Y376441D01*
X325091Y376372D01*
X325076Y376302D01*
X325065Y376232D01*
X325057Y376161D01*
X325053Y376090D01*
X325053Y376018D01*
X325057Y375947D01*
X325065Y375876D01*
X325076Y375806D01*
X325091Y375736D01*
X325110Y375667D01*
X325133Y375599D01*
X325159Y375533D01*
X325188Y375468D01*
X325221Y375404D01*
X325257Y375343D01*
X325297Y375283D01*
X325339Y375226D01*
X325385Y375171D01*
X325433Y375118D01*
X325484Y375069D01*
X325538Y375022D01*
X325594Y374978D01*
X325653Y374937D01*
X325713Y374899D01*
X325776Y374864D01*
X325840Y374833D01*
X325906Y374805D01*
X325973Y374781D01*
X326041Y374760D01*
X326111Y374743D01*
X326181Y374730D01*
X326251Y374721D01*
X326323Y374715D01*
X326394Y374713D01*
X326394Y374714D02*
X327735Y374714D01*
X326126Y374714D02*
X325054Y372569D01*
X322312Y376323D02*
X320972Y377395D01*
X320972Y372569D01*
X322312Y372569D02*
X319631Y372569D01*
X386741Y120812D02*
X386676Y120810D01*
X386612Y120804D01*
X386548Y120794D01*
X386484Y120781D01*
X386422Y120763D01*
X386361Y120742D01*
X386301Y120718D01*
X386243Y120689D01*
X386186Y120657D01*
X386132Y120622D01*
X386080Y120584D01*
X386030Y120542D01*
X385983Y120498D01*
X385939Y120451D01*
X385897Y120401D01*
X385859Y120349D01*
X385824Y120295D01*
X385792Y120238D01*
X385763Y120180D01*
X385739Y120120D01*
X385718Y120059D01*
X385700Y119997D01*
X385687Y119933D01*
X385677Y119869D01*
X385671Y119805D01*
X385669Y119740D01*
X385671Y119646D01*
X385677Y119552D01*
X385687Y119458D01*
X385700Y119365D01*
X385718Y119273D01*
X385739Y119181D01*
X385764Y119090D01*
X385793Y119000D01*
X385826Y118912D01*
X385862Y118825D01*
X385902Y118740D01*
X385945Y118656D01*
X385992Y118575D01*
X386042Y118495D01*
X386095Y118417D01*
X386152Y118342D01*
X386211Y118269D01*
X386274Y118199D01*
X386339Y118131D01*
X389423Y118266D02*
X389488Y118268D01*
X389552Y118274D01*
X389616Y118284D01*
X389680Y118297D01*
X389742Y118315D01*
X389803Y118336D01*
X389863Y118360D01*
X389921Y118389D01*
X389978Y118421D01*
X390032Y118456D01*
X390084Y118494D01*
X390134Y118536D01*
X390181Y118580D01*
X390225Y118627D01*
X390267Y118677D01*
X390305Y118729D01*
X390340Y118783D01*
X390372Y118840D01*
X390401Y118898D01*
X390425Y118958D01*
X390446Y119019D01*
X390464Y119081D01*
X390477Y119145D01*
X390487Y119209D01*
X390493Y119273D01*
X390495Y119338D01*
X390493Y119424D01*
X390488Y119510D01*
X390478Y119596D01*
X390465Y119681D01*
X390449Y119766D01*
X390429Y119850D01*
X390405Y119933D01*
X390378Y120015D01*
X390347Y120095D01*
X390313Y120175D01*
X390275Y120252D01*
X390234Y120328D01*
X390190Y120402D01*
X390143Y120474D01*
X390093Y120545D01*
X388485Y118801D02*
X388518Y118748D01*
X388555Y118697D01*
X388594Y118648D01*
X388636Y118601D01*
X388681Y118557D01*
X388728Y118516D01*
X388777Y118477D01*
X388829Y118441D01*
X388883Y118408D01*
X388938Y118379D01*
X388995Y118353D01*
X389054Y118330D01*
X389113Y118310D01*
X389174Y118294D01*
X389235Y118281D01*
X389298Y118272D01*
X389360Y118267D01*
X389423Y118265D01*
X387679Y120276D02*
X387646Y120329D01*
X387609Y120380D01*
X387570Y120429D01*
X387528Y120476D01*
X387483Y120520D01*
X387436Y120561D01*
X387387Y120600D01*
X387335Y120636D01*
X387281Y120669D01*
X387226Y120698D01*
X387169Y120724D01*
X387110Y120747D01*
X387051Y120767D01*
X386990Y120783D01*
X386929Y120796D01*
X386866Y120805D01*
X386804Y120810D01*
X386741Y120812D01*
X387680Y120276D02*
X388484Y118802D01*
X390495Y123715D02*
X385669Y123715D01*
X387814Y125324D02*
X390495Y123715D01*
X387814Y125324D02*
X390495Y126933D01*
X385669Y126933D01*
X385669Y130265D02*
X390495Y130265D01*
X390495Y131606D01*
X390493Y131677D01*
X390487Y131749D01*
X390478Y131819D01*
X390465Y131889D01*
X390448Y131959D01*
X390427Y132027D01*
X390403Y132094D01*
X390375Y132160D01*
X390344Y132224D01*
X390309Y132287D01*
X390271Y132347D01*
X390230Y132406D01*
X390186Y132462D01*
X390139Y132516D01*
X390090Y132567D01*
X390037Y132615D01*
X389982Y132661D01*
X389925Y132703D01*
X389865Y132743D01*
X389804Y132779D01*
X389740Y132812D01*
X389675Y132841D01*
X389609Y132867D01*
X389541Y132890D01*
X389472Y132909D01*
X389402Y132924D01*
X389332Y132935D01*
X389261Y132943D01*
X389190Y132947D01*
X389118Y132947D01*
X389047Y132943D01*
X388976Y132935D01*
X388906Y132924D01*
X388836Y132909D01*
X388767Y132890D01*
X388699Y132867D01*
X388633Y132841D01*
X388568Y132812D01*
X388504Y132779D01*
X388443Y132743D01*
X388383Y132703D01*
X388326Y132661D01*
X388271Y132615D01*
X388218Y132567D01*
X388169Y132516D01*
X388122Y132462D01*
X388078Y132406D01*
X388037Y132347D01*
X387999Y132287D01*
X387964Y132224D01*
X387933Y132160D01*
X387905Y132094D01*
X387881Y132027D01*
X387860Y131959D01*
X387843Y131889D01*
X387830Y131819D01*
X387821Y131749D01*
X387815Y131677D01*
X387813Y131606D01*
X387814Y131606D02*
X387814Y130265D01*
X387814Y131874D02*
X385669Y132946D01*
X390495Y137162D02*
X390493Y137230D01*
X390487Y137297D01*
X390478Y137364D01*
X390465Y137431D01*
X390448Y137496D01*
X390427Y137561D01*
X390403Y137624D01*
X390375Y137686D01*
X390344Y137746D01*
X390310Y137804D01*
X390272Y137860D01*
X390232Y137915D01*
X390188Y137966D01*
X390141Y138015D01*
X390092Y138062D01*
X390041Y138106D01*
X389986Y138146D01*
X389930Y138184D01*
X389872Y138218D01*
X389812Y138249D01*
X389750Y138277D01*
X389687Y138301D01*
X389622Y138322D01*
X389557Y138339D01*
X389490Y138352D01*
X389423Y138361D01*
X389356Y138367D01*
X389288Y138369D01*
X390495Y137162D02*
X390493Y137084D01*
X390487Y137006D01*
X390477Y136929D01*
X390464Y136852D01*
X390446Y136776D01*
X390425Y136701D01*
X390400Y136627D01*
X390371Y136555D01*
X390339Y136484D01*
X390303Y136415D01*
X390264Y136347D01*
X390221Y136282D01*
X390175Y136219D01*
X390126Y136158D01*
X390074Y136100D01*
X390019Y136045D01*
X389962Y135992D01*
X389902Y135943D01*
X389839Y135896D01*
X389774Y135853D01*
X389708Y135813D01*
X389639Y135776D01*
X389568Y135743D01*
X389496Y135713D01*
X389423Y135687D01*
X388350Y137967D02*
X388399Y138016D01*
X388451Y138063D01*
X388506Y138106D01*
X388563Y138147D01*
X388622Y138185D01*
X388683Y138219D01*
X388746Y138250D01*
X388810Y138278D01*
X388876Y138302D01*
X388942Y138322D01*
X389010Y138339D01*
X389079Y138352D01*
X389148Y138361D01*
X389218Y138367D01*
X389288Y138369D01*
X388350Y137967D02*
X385669Y135688D01*
X385669Y138369D01*
X133760Y54405D02*
X133695Y54407D01*
X133631Y54413D01*
X133567Y54423D01*
X133503Y54436D01*
X133441Y54454D01*
X133380Y54475D01*
X133320Y54499D01*
X133262Y54528D01*
X133205Y54560D01*
X133151Y54595D01*
X133099Y54633D01*
X133049Y54675D01*
X133002Y54719D01*
X132958Y54766D01*
X132916Y54816D01*
X132878Y54868D01*
X132843Y54922D01*
X132811Y54979D01*
X132782Y55037D01*
X132758Y55097D01*
X132737Y55158D01*
X132719Y55220D01*
X132706Y55284D01*
X132696Y55348D01*
X132690Y55412D01*
X132688Y55477D01*
X133760Y54405D02*
X133854Y54407D01*
X133948Y54413D01*
X134042Y54423D01*
X134135Y54436D01*
X134227Y54454D01*
X134319Y54475D01*
X134410Y54500D01*
X134500Y54529D01*
X134588Y54562D01*
X134675Y54598D01*
X134760Y54638D01*
X134844Y54681D01*
X134925Y54728D01*
X135005Y54778D01*
X135083Y54831D01*
X135158Y54888D01*
X135231Y54947D01*
X135301Y55010D01*
X135369Y55075D01*
X135234Y58159D02*
X135232Y58224D01*
X135226Y58288D01*
X135216Y58352D01*
X135203Y58416D01*
X135185Y58478D01*
X135164Y58539D01*
X135140Y58599D01*
X135111Y58657D01*
X135079Y58714D01*
X135044Y58768D01*
X135006Y58820D01*
X134964Y58870D01*
X134920Y58917D01*
X134873Y58961D01*
X134823Y59003D01*
X134771Y59041D01*
X134717Y59076D01*
X134660Y59108D01*
X134602Y59137D01*
X134542Y59161D01*
X134481Y59182D01*
X134419Y59200D01*
X134355Y59213D01*
X134291Y59223D01*
X134227Y59229D01*
X134162Y59231D01*
X134076Y59229D01*
X133990Y59224D01*
X133904Y59214D01*
X133819Y59201D01*
X133734Y59185D01*
X133650Y59165D01*
X133567Y59141D01*
X133485Y59114D01*
X133405Y59083D01*
X133325Y59049D01*
X133248Y59011D01*
X133172Y58970D01*
X133098Y58926D01*
X133025Y58879D01*
X132955Y58829D01*
X134699Y57221D02*
X134752Y57254D01*
X134803Y57291D01*
X134852Y57330D01*
X134899Y57372D01*
X134943Y57417D01*
X134984Y57464D01*
X135023Y57513D01*
X135059Y57565D01*
X135092Y57619D01*
X135121Y57674D01*
X135147Y57731D01*
X135170Y57790D01*
X135190Y57849D01*
X135206Y57910D01*
X135219Y57971D01*
X135228Y58034D01*
X135233Y58096D01*
X135235Y58159D01*
X133224Y56415D02*
X133171Y56382D01*
X133120Y56345D01*
X133071Y56306D01*
X133024Y56264D01*
X132980Y56219D01*
X132939Y56172D01*
X132900Y56123D01*
X132864Y56071D01*
X132831Y56017D01*
X132802Y55962D01*
X132776Y55905D01*
X132753Y55846D01*
X132733Y55787D01*
X132717Y55726D01*
X132704Y55665D01*
X132695Y55602D01*
X132690Y55540D01*
X132688Y55477D01*
X133224Y56416D02*
X134699Y57220D01*
X129785Y59231D02*
X129785Y54405D01*
X128176Y56550D02*
X129785Y59231D01*
X128176Y56550D02*
X126567Y59231D01*
X126567Y54405D01*
X123235Y54405D02*
X123235Y59231D01*
X121894Y59231D01*
X121823Y59229D01*
X121751Y59223D01*
X121681Y59214D01*
X121611Y59201D01*
X121541Y59184D01*
X121473Y59163D01*
X121406Y59139D01*
X121340Y59111D01*
X121276Y59080D01*
X121213Y59045D01*
X121153Y59007D01*
X121094Y58966D01*
X121038Y58922D01*
X120984Y58875D01*
X120933Y58826D01*
X120885Y58773D01*
X120839Y58718D01*
X120797Y58661D01*
X120757Y58601D01*
X120721Y58540D01*
X120688Y58476D01*
X120659Y58411D01*
X120633Y58345D01*
X120610Y58277D01*
X120591Y58208D01*
X120576Y58138D01*
X120565Y58068D01*
X120557Y57997D01*
X120553Y57926D01*
X120553Y57854D01*
X120557Y57783D01*
X120565Y57712D01*
X120576Y57642D01*
X120591Y57572D01*
X120610Y57503D01*
X120633Y57435D01*
X120659Y57369D01*
X120688Y57304D01*
X120721Y57240D01*
X120757Y57179D01*
X120797Y57119D01*
X120839Y57062D01*
X120885Y57007D01*
X120933Y56954D01*
X120984Y56905D01*
X121038Y56858D01*
X121094Y56814D01*
X121153Y56773D01*
X121213Y56735D01*
X121276Y56700D01*
X121340Y56669D01*
X121406Y56641D01*
X121473Y56617D01*
X121541Y56596D01*
X121611Y56579D01*
X121681Y56566D01*
X121751Y56557D01*
X121823Y56551D01*
X121894Y56549D01*
X121894Y56550D02*
X123235Y56550D01*
X121626Y56550D02*
X120554Y54405D01*
X117812Y54405D02*
X116472Y54405D01*
X116401Y54407D01*
X116329Y54413D01*
X116259Y54422D01*
X116189Y54435D01*
X116119Y54452D01*
X116051Y54473D01*
X115984Y54497D01*
X115918Y54525D01*
X115854Y54556D01*
X115791Y54591D01*
X115731Y54629D01*
X115672Y54670D01*
X115616Y54714D01*
X115562Y54761D01*
X115511Y54810D01*
X115463Y54863D01*
X115417Y54918D01*
X115375Y54975D01*
X115335Y55035D01*
X115299Y55096D01*
X115266Y55160D01*
X115237Y55225D01*
X115211Y55291D01*
X115188Y55359D01*
X115169Y55428D01*
X115154Y55498D01*
X115143Y55568D01*
X115135Y55639D01*
X115131Y55710D01*
X115131Y55782D01*
X115135Y55853D01*
X115143Y55924D01*
X115154Y55994D01*
X115169Y56064D01*
X115188Y56133D01*
X115211Y56201D01*
X115237Y56267D01*
X115266Y56332D01*
X115299Y56396D01*
X115335Y56457D01*
X115375Y56517D01*
X115417Y56574D01*
X115463Y56629D01*
X115511Y56682D01*
X115562Y56731D01*
X115616Y56778D01*
X115672Y56822D01*
X115731Y56863D01*
X115791Y56901D01*
X115854Y56936D01*
X115918Y56967D01*
X115984Y56995D01*
X116051Y57019D01*
X116119Y57040D01*
X116189Y57057D01*
X116259Y57070D01*
X116329Y57079D01*
X116401Y57085D01*
X116472Y57087D01*
X116204Y59231D02*
X117812Y59231D01*
X116204Y59231D02*
X116139Y59229D01*
X116075Y59223D01*
X116011Y59213D01*
X115947Y59200D01*
X115885Y59182D01*
X115824Y59161D01*
X115764Y59137D01*
X115706Y59108D01*
X115649Y59076D01*
X115595Y59041D01*
X115543Y59003D01*
X115493Y58961D01*
X115446Y58917D01*
X115402Y58870D01*
X115360Y58820D01*
X115322Y58768D01*
X115287Y58714D01*
X115255Y58657D01*
X115226Y58599D01*
X115202Y58539D01*
X115181Y58478D01*
X115163Y58416D01*
X115150Y58352D01*
X115140Y58288D01*
X115134Y58224D01*
X115132Y58159D01*
X115134Y58094D01*
X115140Y58030D01*
X115150Y57966D01*
X115163Y57902D01*
X115181Y57840D01*
X115202Y57779D01*
X115226Y57719D01*
X115255Y57661D01*
X115287Y57604D01*
X115322Y57550D01*
X115360Y57498D01*
X115402Y57448D01*
X115446Y57401D01*
X115493Y57357D01*
X115543Y57315D01*
X115595Y57277D01*
X115649Y57242D01*
X115706Y57210D01*
X115764Y57181D01*
X115824Y57157D01*
X115885Y57136D01*
X115947Y57118D01*
X116011Y57105D01*
X116075Y57095D01*
X116139Y57089D01*
X116204Y57087D01*
X116204Y57086D02*
X117276Y57086D01*
X51805Y309240D02*
X51807Y309305D01*
X51813Y309369D01*
X51823Y309433D01*
X51836Y309497D01*
X51854Y309559D01*
X51875Y309620D01*
X51899Y309680D01*
X51928Y309738D01*
X51960Y309795D01*
X51995Y309849D01*
X52033Y309901D01*
X52075Y309951D01*
X52119Y309998D01*
X52166Y310042D01*
X52216Y310084D01*
X52268Y310122D01*
X52322Y310157D01*
X52379Y310189D01*
X52437Y310218D01*
X52497Y310242D01*
X52558Y310263D01*
X52620Y310281D01*
X52684Y310294D01*
X52748Y310304D01*
X52812Y310310D01*
X52877Y310312D01*
X51805Y309240D02*
X51807Y309146D01*
X51813Y309052D01*
X51823Y308958D01*
X51836Y308865D01*
X51854Y308773D01*
X51875Y308681D01*
X51900Y308590D01*
X51929Y308500D01*
X51962Y308412D01*
X51998Y308325D01*
X52038Y308240D01*
X52081Y308156D01*
X52128Y308075D01*
X52178Y307995D01*
X52231Y307917D01*
X52288Y307842D01*
X52347Y307769D01*
X52410Y307699D01*
X52475Y307631D01*
X55559Y307766D02*
X55624Y307768D01*
X55688Y307774D01*
X55752Y307784D01*
X55816Y307797D01*
X55878Y307815D01*
X55939Y307836D01*
X55999Y307860D01*
X56057Y307889D01*
X56114Y307921D01*
X56168Y307956D01*
X56220Y307994D01*
X56270Y308036D01*
X56317Y308080D01*
X56361Y308127D01*
X56403Y308177D01*
X56441Y308229D01*
X56476Y308283D01*
X56508Y308340D01*
X56537Y308398D01*
X56561Y308458D01*
X56582Y308519D01*
X56600Y308581D01*
X56613Y308645D01*
X56623Y308709D01*
X56629Y308773D01*
X56631Y308838D01*
X56629Y308924D01*
X56624Y309010D01*
X56614Y309096D01*
X56601Y309181D01*
X56585Y309266D01*
X56565Y309350D01*
X56541Y309433D01*
X56514Y309515D01*
X56483Y309595D01*
X56449Y309675D01*
X56411Y309752D01*
X56370Y309828D01*
X56326Y309902D01*
X56279Y309974D01*
X56229Y310045D01*
X54621Y308301D02*
X54654Y308248D01*
X54691Y308197D01*
X54730Y308148D01*
X54772Y308101D01*
X54817Y308057D01*
X54864Y308016D01*
X54913Y307977D01*
X54965Y307941D01*
X55019Y307908D01*
X55074Y307879D01*
X55131Y307853D01*
X55190Y307830D01*
X55249Y307810D01*
X55310Y307794D01*
X55371Y307781D01*
X55434Y307772D01*
X55496Y307767D01*
X55559Y307765D01*
X53815Y309776D02*
X53782Y309829D01*
X53745Y309880D01*
X53706Y309929D01*
X53664Y309976D01*
X53619Y310020D01*
X53572Y310061D01*
X53523Y310100D01*
X53471Y310136D01*
X53417Y310169D01*
X53362Y310198D01*
X53305Y310224D01*
X53246Y310247D01*
X53187Y310267D01*
X53126Y310283D01*
X53065Y310296D01*
X53002Y310305D01*
X52940Y310310D01*
X52877Y310312D01*
X53816Y309776D02*
X54620Y308302D01*
X56631Y313215D02*
X51805Y313215D01*
X53950Y314824D02*
X56631Y313215D01*
X53950Y314824D02*
X56631Y316433D01*
X51805Y316433D01*
X51805Y319765D02*
X56631Y319765D01*
X56631Y321106D01*
X56629Y321177D01*
X56623Y321249D01*
X56614Y321319D01*
X56601Y321389D01*
X56584Y321459D01*
X56563Y321527D01*
X56539Y321594D01*
X56511Y321660D01*
X56480Y321724D01*
X56445Y321787D01*
X56407Y321847D01*
X56366Y321906D01*
X56322Y321962D01*
X56275Y322016D01*
X56226Y322067D01*
X56173Y322115D01*
X56118Y322161D01*
X56061Y322203D01*
X56001Y322243D01*
X55940Y322279D01*
X55876Y322312D01*
X55811Y322341D01*
X55745Y322367D01*
X55677Y322390D01*
X55608Y322409D01*
X55538Y322424D01*
X55468Y322435D01*
X55397Y322443D01*
X55326Y322447D01*
X55254Y322447D01*
X55183Y322443D01*
X55112Y322435D01*
X55042Y322424D01*
X54972Y322409D01*
X54903Y322390D01*
X54835Y322367D01*
X54769Y322341D01*
X54704Y322312D01*
X54640Y322279D01*
X54579Y322243D01*
X54519Y322203D01*
X54462Y322161D01*
X54407Y322115D01*
X54354Y322067D01*
X54305Y322016D01*
X54258Y321962D01*
X54214Y321906D01*
X54173Y321847D01*
X54135Y321787D01*
X54100Y321724D01*
X54069Y321660D01*
X54041Y321594D01*
X54017Y321527D01*
X53996Y321459D01*
X53979Y321389D01*
X53966Y321319D01*
X53957Y321249D01*
X53951Y321177D01*
X53949Y321106D01*
X53950Y321106D02*
X53950Y319765D01*
X53950Y321374D02*
X51805Y322446D01*
X52877Y325188D02*
X56631Y326260D01*
X52877Y325188D02*
X52877Y327869D01*
X51805Y327064D02*
X53950Y327064D01*
D13*
X304650Y377430D02*
X355450Y377430D01*
X355450Y385050D01*
X355450Y392670D01*
X304650Y392670D01*
X304650Y385050D01*
X304650Y377430D01*
X355450Y385050D02*
X357990Y385050D01*
X304650Y385050D02*
X302110Y385050D01*
D12*
X338371Y374255D02*
X338371Y369429D01*
X339712Y374255D02*
X337030Y374255D01*
X334408Y374255D02*
X334408Y369429D01*
X334408Y372110D02*
X331727Y372110D01*
X331727Y374255D02*
X331727Y369429D01*
X328492Y369429D02*
X328492Y374255D01*
X327152Y374255D01*
X327081Y374253D01*
X327009Y374247D01*
X326939Y374238D01*
X326869Y374225D01*
X326799Y374208D01*
X326731Y374187D01*
X326664Y374163D01*
X326598Y374135D01*
X326534Y374104D01*
X326471Y374069D01*
X326411Y374031D01*
X326352Y373990D01*
X326296Y373946D01*
X326242Y373899D01*
X326191Y373850D01*
X326143Y373797D01*
X326097Y373742D01*
X326055Y373685D01*
X326015Y373625D01*
X325979Y373564D01*
X325946Y373500D01*
X325917Y373435D01*
X325891Y373369D01*
X325868Y373301D01*
X325849Y373232D01*
X325834Y373162D01*
X325823Y373092D01*
X325815Y373021D01*
X325811Y372950D01*
X325811Y372878D01*
X325815Y372807D01*
X325823Y372736D01*
X325834Y372666D01*
X325849Y372596D01*
X325868Y372527D01*
X325891Y372459D01*
X325917Y372393D01*
X325946Y372328D01*
X325979Y372264D01*
X326015Y372203D01*
X326055Y372143D01*
X326097Y372086D01*
X326143Y372031D01*
X326191Y371978D01*
X326242Y371929D01*
X326296Y371882D01*
X326352Y371838D01*
X326411Y371797D01*
X326471Y371759D01*
X326534Y371724D01*
X326598Y371693D01*
X326664Y371665D01*
X326731Y371641D01*
X326799Y371620D01*
X326869Y371603D01*
X326939Y371590D01*
X327009Y371581D01*
X327081Y371575D01*
X327152Y371573D01*
X327152Y371574D02*
X328492Y371574D01*
X326884Y371574D02*
X325811Y369429D01*
X323070Y373183D02*
X321729Y374255D01*
X321729Y369429D01*
X323070Y369429D02*
X320388Y369429D01*
D13*
X391030Y154550D02*
X391030Y103750D01*
X398650Y103750D01*
X406270Y103750D01*
X406270Y154550D01*
X398650Y154550D01*
X391030Y154550D01*
X398650Y103750D02*
X398650Y101210D01*
X398650Y154550D02*
X398650Y157090D01*
D12*
X387855Y120829D02*
X383029Y120829D01*
X387855Y119488D02*
X387855Y122170D01*
X387855Y124792D02*
X383029Y124792D01*
X385710Y124792D02*
X385710Y127473D01*
X387855Y127473D02*
X383029Y127473D01*
X383029Y130708D02*
X387855Y130708D01*
X387855Y132048D01*
X387853Y132119D01*
X387847Y132191D01*
X387838Y132261D01*
X387825Y132331D01*
X387808Y132401D01*
X387787Y132469D01*
X387763Y132536D01*
X387735Y132602D01*
X387704Y132666D01*
X387669Y132729D01*
X387631Y132789D01*
X387590Y132848D01*
X387546Y132904D01*
X387499Y132958D01*
X387450Y133009D01*
X387397Y133057D01*
X387342Y133103D01*
X387285Y133145D01*
X387225Y133185D01*
X387164Y133221D01*
X387100Y133254D01*
X387035Y133283D01*
X386969Y133309D01*
X386901Y133332D01*
X386832Y133351D01*
X386762Y133366D01*
X386692Y133377D01*
X386621Y133385D01*
X386550Y133389D01*
X386478Y133389D01*
X386407Y133385D01*
X386336Y133377D01*
X386266Y133366D01*
X386196Y133351D01*
X386127Y133332D01*
X386059Y133309D01*
X385993Y133283D01*
X385928Y133254D01*
X385864Y133221D01*
X385803Y133185D01*
X385743Y133145D01*
X385686Y133103D01*
X385631Y133057D01*
X385578Y133009D01*
X385529Y132958D01*
X385482Y132904D01*
X385438Y132848D01*
X385397Y132789D01*
X385359Y132729D01*
X385324Y132666D01*
X385293Y132602D01*
X385265Y132536D01*
X385241Y132469D01*
X385220Y132401D01*
X385203Y132331D01*
X385190Y132261D01*
X385181Y132191D01*
X385175Y132119D01*
X385173Y132048D01*
X385174Y132048D02*
X385174Y130708D01*
X385174Y132316D02*
X383029Y133389D01*
X387855Y137605D02*
X387853Y137673D01*
X387847Y137740D01*
X387838Y137807D01*
X387825Y137874D01*
X387808Y137939D01*
X387787Y138004D01*
X387763Y138067D01*
X387735Y138129D01*
X387704Y138189D01*
X387670Y138247D01*
X387632Y138303D01*
X387592Y138358D01*
X387548Y138409D01*
X387501Y138458D01*
X387452Y138505D01*
X387401Y138549D01*
X387346Y138589D01*
X387290Y138627D01*
X387232Y138661D01*
X387172Y138692D01*
X387110Y138720D01*
X387047Y138744D01*
X386982Y138765D01*
X386917Y138782D01*
X386850Y138795D01*
X386783Y138804D01*
X386716Y138810D01*
X386648Y138812D01*
X387855Y137605D02*
X387853Y137527D01*
X387847Y137449D01*
X387837Y137372D01*
X387824Y137295D01*
X387806Y137219D01*
X387785Y137144D01*
X387760Y137070D01*
X387731Y136998D01*
X387699Y136927D01*
X387663Y136858D01*
X387624Y136790D01*
X387581Y136725D01*
X387535Y136662D01*
X387486Y136601D01*
X387434Y136543D01*
X387379Y136488D01*
X387322Y136435D01*
X387262Y136386D01*
X387199Y136339D01*
X387134Y136296D01*
X387068Y136256D01*
X386999Y136219D01*
X386928Y136186D01*
X386856Y136156D01*
X386783Y136130D01*
X385710Y138410D02*
X385759Y138459D01*
X385811Y138506D01*
X385866Y138549D01*
X385923Y138590D01*
X385982Y138628D01*
X386043Y138662D01*
X386106Y138693D01*
X386170Y138721D01*
X386236Y138745D01*
X386302Y138765D01*
X386370Y138782D01*
X386439Y138795D01*
X386508Y138804D01*
X386578Y138810D01*
X386648Y138812D01*
X385710Y138409D02*
X383029Y136130D01*
X383029Y138812D01*
D13*
X150550Y53370D02*
X99750Y53370D01*
X99750Y45750D01*
X99750Y38130D01*
X150550Y38130D01*
X150550Y45750D01*
X150550Y53370D01*
X99750Y45750D02*
X97210Y45750D01*
X150550Y45750D02*
X153090Y45750D01*
D12*
X133471Y56545D02*
X133471Y61371D01*
X134812Y61371D02*
X132130Y61371D01*
X129508Y61371D02*
X129508Y56545D01*
X129508Y59226D02*
X126827Y59226D01*
X126827Y61371D02*
X126827Y56545D01*
X123592Y56545D02*
X123592Y61371D01*
X122252Y61371D01*
X122181Y61369D01*
X122109Y61363D01*
X122039Y61354D01*
X121969Y61341D01*
X121899Y61324D01*
X121831Y61303D01*
X121764Y61279D01*
X121698Y61251D01*
X121634Y61220D01*
X121571Y61185D01*
X121511Y61147D01*
X121452Y61106D01*
X121396Y61062D01*
X121342Y61015D01*
X121291Y60966D01*
X121243Y60913D01*
X121197Y60858D01*
X121155Y60801D01*
X121115Y60741D01*
X121079Y60680D01*
X121046Y60616D01*
X121017Y60551D01*
X120991Y60485D01*
X120968Y60417D01*
X120949Y60348D01*
X120934Y60278D01*
X120923Y60208D01*
X120915Y60137D01*
X120911Y60066D01*
X120911Y59994D01*
X120915Y59923D01*
X120923Y59852D01*
X120934Y59782D01*
X120949Y59712D01*
X120968Y59643D01*
X120991Y59575D01*
X121017Y59509D01*
X121046Y59444D01*
X121079Y59380D01*
X121115Y59319D01*
X121155Y59259D01*
X121197Y59202D01*
X121243Y59147D01*
X121291Y59094D01*
X121342Y59045D01*
X121396Y58998D01*
X121452Y58954D01*
X121511Y58913D01*
X121571Y58875D01*
X121634Y58840D01*
X121698Y58809D01*
X121764Y58781D01*
X121831Y58757D01*
X121899Y58736D01*
X121969Y58719D01*
X122039Y58706D01*
X122109Y58697D01*
X122181Y58691D01*
X122252Y58689D01*
X122252Y58690D02*
X123592Y58690D01*
X121984Y58690D02*
X120911Y56545D01*
X118170Y56545D02*
X116829Y56545D01*
X116758Y56547D01*
X116686Y56553D01*
X116616Y56562D01*
X116546Y56575D01*
X116476Y56592D01*
X116408Y56613D01*
X116341Y56637D01*
X116275Y56665D01*
X116211Y56696D01*
X116148Y56731D01*
X116088Y56769D01*
X116029Y56810D01*
X115973Y56854D01*
X115919Y56901D01*
X115868Y56950D01*
X115820Y57003D01*
X115774Y57058D01*
X115732Y57115D01*
X115692Y57175D01*
X115656Y57236D01*
X115623Y57300D01*
X115594Y57365D01*
X115568Y57431D01*
X115545Y57499D01*
X115526Y57568D01*
X115511Y57638D01*
X115500Y57708D01*
X115492Y57779D01*
X115488Y57850D01*
X115488Y57922D01*
X115492Y57993D01*
X115500Y58064D01*
X115511Y58134D01*
X115526Y58204D01*
X115545Y58273D01*
X115568Y58341D01*
X115594Y58407D01*
X115623Y58472D01*
X115656Y58536D01*
X115692Y58597D01*
X115732Y58657D01*
X115774Y58714D01*
X115820Y58769D01*
X115868Y58822D01*
X115919Y58871D01*
X115973Y58918D01*
X116029Y58962D01*
X116088Y59003D01*
X116148Y59041D01*
X116211Y59076D01*
X116275Y59107D01*
X116341Y59135D01*
X116408Y59159D01*
X116476Y59180D01*
X116546Y59197D01*
X116616Y59210D01*
X116686Y59219D01*
X116758Y59225D01*
X116829Y59227D01*
X116561Y61371D02*
X118170Y61371D01*
X116561Y61371D02*
X116496Y61369D01*
X116432Y61363D01*
X116368Y61353D01*
X116304Y61340D01*
X116242Y61322D01*
X116181Y61301D01*
X116121Y61277D01*
X116063Y61248D01*
X116006Y61216D01*
X115952Y61181D01*
X115900Y61143D01*
X115850Y61101D01*
X115803Y61057D01*
X115759Y61010D01*
X115717Y60960D01*
X115679Y60908D01*
X115644Y60854D01*
X115612Y60797D01*
X115583Y60739D01*
X115559Y60679D01*
X115538Y60618D01*
X115520Y60556D01*
X115507Y60492D01*
X115497Y60428D01*
X115491Y60364D01*
X115489Y60299D01*
X115491Y60234D01*
X115497Y60170D01*
X115507Y60106D01*
X115520Y60042D01*
X115538Y59980D01*
X115559Y59919D01*
X115583Y59859D01*
X115612Y59801D01*
X115644Y59744D01*
X115679Y59690D01*
X115717Y59638D01*
X115759Y59588D01*
X115803Y59541D01*
X115850Y59497D01*
X115900Y59455D01*
X115952Y59417D01*
X116006Y59382D01*
X116063Y59350D01*
X116121Y59321D01*
X116181Y59297D01*
X116242Y59276D01*
X116304Y59258D01*
X116368Y59245D01*
X116432Y59235D01*
X116496Y59229D01*
X116561Y59227D01*
X116561Y59226D02*
X117633Y59226D01*
D13*
X51770Y292750D02*
X51770Y343550D01*
X44150Y343550D01*
X36530Y343550D01*
X36530Y292750D01*
X44150Y292750D01*
X51770Y292750D01*
X44150Y343550D02*
X44150Y346090D01*
X44150Y292750D02*
X44150Y290210D01*
D12*
X54945Y309829D02*
X59771Y309829D01*
X59771Y308488D02*
X59771Y311170D01*
X59771Y313792D02*
X54945Y313792D01*
X57626Y313792D02*
X57626Y316473D01*
X59771Y316473D02*
X54945Y316473D01*
X54945Y319708D02*
X59771Y319708D01*
X59771Y321048D01*
X59769Y321119D01*
X59763Y321191D01*
X59754Y321261D01*
X59741Y321331D01*
X59724Y321401D01*
X59703Y321469D01*
X59679Y321536D01*
X59651Y321602D01*
X59620Y321666D01*
X59585Y321729D01*
X59547Y321789D01*
X59506Y321848D01*
X59462Y321904D01*
X59415Y321958D01*
X59366Y322009D01*
X59313Y322057D01*
X59258Y322103D01*
X59201Y322145D01*
X59141Y322185D01*
X59080Y322221D01*
X59016Y322254D01*
X58951Y322283D01*
X58885Y322309D01*
X58817Y322332D01*
X58748Y322351D01*
X58678Y322366D01*
X58608Y322377D01*
X58537Y322385D01*
X58466Y322389D01*
X58394Y322389D01*
X58323Y322385D01*
X58252Y322377D01*
X58182Y322366D01*
X58112Y322351D01*
X58043Y322332D01*
X57975Y322309D01*
X57909Y322283D01*
X57844Y322254D01*
X57780Y322221D01*
X57719Y322185D01*
X57659Y322145D01*
X57602Y322103D01*
X57547Y322057D01*
X57494Y322009D01*
X57445Y321958D01*
X57398Y321904D01*
X57354Y321848D01*
X57313Y321789D01*
X57275Y321729D01*
X57240Y321666D01*
X57209Y321602D01*
X57181Y321536D01*
X57157Y321469D01*
X57136Y321401D01*
X57119Y321331D01*
X57106Y321261D01*
X57097Y321191D01*
X57091Y321119D01*
X57089Y321048D01*
X57090Y321048D02*
X57090Y319708D01*
X57090Y321316D02*
X54945Y322389D01*
X56017Y325130D02*
X59771Y326203D01*
X56017Y325130D02*
X56017Y327812D01*
X54945Y327007D02*
X57090Y327007D01*
D13*
X195350Y358470D02*
X246150Y358470D01*
X195350Y358470D02*
X195350Y350850D01*
X195350Y343230D01*
X246150Y343230D01*
X246150Y350850D01*
X246150Y358470D01*
X195350Y350850D02*
X192810Y350850D01*
X246150Y350850D02*
X248690Y350850D01*
D12*
X241951Y361645D02*
X241951Y366471D01*
X240611Y366471D01*
X240540Y366469D01*
X240468Y366463D01*
X240398Y366454D01*
X240328Y366441D01*
X240258Y366424D01*
X240190Y366403D01*
X240123Y366379D01*
X240057Y366351D01*
X239993Y366320D01*
X239930Y366285D01*
X239870Y366247D01*
X239811Y366206D01*
X239755Y366162D01*
X239701Y366115D01*
X239650Y366066D01*
X239602Y366013D01*
X239556Y365958D01*
X239514Y365901D01*
X239474Y365841D01*
X239438Y365780D01*
X239405Y365716D01*
X239376Y365651D01*
X239350Y365585D01*
X239327Y365517D01*
X239308Y365448D01*
X239293Y365378D01*
X239282Y365308D01*
X239274Y365237D01*
X239270Y365166D01*
X239270Y365094D01*
X239274Y365023D01*
X239282Y364952D01*
X239293Y364882D01*
X239308Y364812D01*
X239327Y364743D01*
X239350Y364675D01*
X239376Y364609D01*
X239405Y364544D01*
X239438Y364480D01*
X239474Y364419D01*
X239514Y364359D01*
X239556Y364302D01*
X239602Y364247D01*
X239650Y364194D01*
X239701Y364145D01*
X239755Y364098D01*
X239811Y364054D01*
X239870Y364013D01*
X239930Y363975D01*
X239993Y363940D01*
X240057Y363909D01*
X240123Y363881D01*
X240190Y363857D01*
X240258Y363836D01*
X240328Y363819D01*
X240398Y363806D01*
X240468Y363797D01*
X240540Y363791D01*
X240611Y363789D01*
X240611Y363790D02*
X241951Y363790D01*
X236611Y361645D02*
X236611Y366471D01*
X235271Y366471D01*
X235201Y366469D01*
X235131Y366464D01*
X235061Y366454D01*
X234992Y366442D01*
X234924Y366425D01*
X234857Y366405D01*
X234790Y366382D01*
X234726Y366355D01*
X234662Y366325D01*
X234601Y366291D01*
X234541Y366255D01*
X234483Y366215D01*
X234427Y366172D01*
X234374Y366127D01*
X234323Y366078D01*
X234274Y366027D01*
X234229Y365974D01*
X234186Y365918D01*
X234146Y365860D01*
X234110Y365801D01*
X234076Y365739D01*
X234046Y365675D01*
X234019Y365611D01*
X233996Y365544D01*
X233976Y365477D01*
X233959Y365409D01*
X233947Y365340D01*
X233937Y365270D01*
X233932Y365200D01*
X233930Y365130D01*
X233930Y362986D01*
X233932Y362916D01*
X233937Y362846D01*
X233947Y362776D01*
X233959Y362707D01*
X233976Y362639D01*
X233996Y362572D01*
X234019Y362505D01*
X234046Y362441D01*
X234076Y362377D01*
X234110Y362316D01*
X234146Y362256D01*
X234186Y362198D01*
X234229Y362142D01*
X234274Y362089D01*
X234323Y362038D01*
X234374Y361989D01*
X234427Y361944D01*
X234483Y361901D01*
X234541Y361861D01*
X234601Y361825D01*
X234662Y361791D01*
X234726Y361761D01*
X234790Y361734D01*
X234857Y361711D01*
X234924Y361691D01*
X234992Y361674D01*
X235061Y361662D01*
X235131Y361652D01*
X235201Y361647D01*
X235271Y361645D01*
X236611Y361645D01*
X230695Y361645D02*
X230695Y366471D01*
X229355Y366471D01*
X229284Y366469D01*
X229212Y366463D01*
X229142Y366454D01*
X229072Y366441D01*
X229002Y366424D01*
X228934Y366403D01*
X228867Y366379D01*
X228801Y366351D01*
X228737Y366320D01*
X228674Y366285D01*
X228614Y366247D01*
X228555Y366206D01*
X228499Y366162D01*
X228445Y366115D01*
X228394Y366066D01*
X228346Y366013D01*
X228300Y365958D01*
X228258Y365901D01*
X228218Y365841D01*
X228182Y365780D01*
X228149Y365716D01*
X228120Y365651D01*
X228094Y365585D01*
X228071Y365517D01*
X228052Y365448D01*
X228037Y365378D01*
X228026Y365308D01*
X228018Y365237D01*
X228014Y365166D01*
X228014Y365094D01*
X228018Y365023D01*
X228026Y364952D01*
X228037Y364882D01*
X228052Y364812D01*
X228071Y364743D01*
X228094Y364675D01*
X228120Y364609D01*
X228149Y364544D01*
X228182Y364480D01*
X228218Y364419D01*
X228258Y364359D01*
X228300Y364302D01*
X228346Y364247D01*
X228394Y364194D01*
X228445Y364145D01*
X228499Y364098D01*
X228555Y364054D01*
X228614Y364013D01*
X228674Y363975D01*
X228737Y363940D01*
X228801Y363909D01*
X228867Y363881D01*
X228934Y363857D01*
X229002Y363836D01*
X229072Y363819D01*
X229142Y363806D01*
X229212Y363797D01*
X229284Y363791D01*
X229355Y363789D01*
X229355Y363790D02*
X230695Y363790D01*
X229087Y363790D02*
X228014Y361645D01*
X225175Y363522D02*
X221958Y363522D01*
X218080Y361645D02*
X218080Y366471D01*
X216740Y366471D02*
X219421Y366471D01*
X214117Y366471D02*
X214117Y361645D01*
X214117Y364326D02*
X211436Y364326D01*
X211436Y366471D02*
X211436Y361645D01*
X208350Y363522D02*
X205133Y363522D01*
X202230Y365399D02*
X200889Y366471D01*
X200889Y361645D01*
X199549Y361645D02*
X202230Y361645D01*
M02*
