G04 EAGLE Gerber RS-274X export*
G75*
%MOMM*%
%FSLAX34Y34*%
%LPD*%
%INSilkscreen Top*%
%IPPOS*%
%AMOC8*
5,1,8,0,0,1.08239X$1,22.5*%
G01*
%ADD10C,0.203200*%
%ADD11C,0.406400*%
%ADD12C,0.127000*%


D10*
X167142Y278628D02*
X167142Y276088D01*
X166634Y276088D01*
X166634Y276139D01*
X117129Y276139D01*
X117129Y278450D01*
X167345Y325440D02*
X167345Y328158D01*
X166837Y328158D01*
X166837Y328183D01*
X117155Y328183D01*
X117155Y325923D01*
X167650Y311140D02*
X167650Y294122D01*
X116850Y293614D02*
X116850Y302250D01*
X116850Y310886D01*
X116850Y302250D02*
X142250Y327650D01*
D11*
X113675Y330825D03*
D12*
X138075Y330825D02*
X138075Y335651D01*
X139415Y335651D01*
X139485Y335649D01*
X139555Y335644D01*
X139625Y335634D01*
X139694Y335622D01*
X139762Y335605D01*
X139829Y335585D01*
X139896Y335562D01*
X139960Y335535D01*
X140024Y335505D01*
X140086Y335471D01*
X140145Y335435D01*
X140203Y335395D01*
X140259Y335352D01*
X140312Y335307D01*
X140363Y335258D01*
X140412Y335207D01*
X140457Y335154D01*
X140500Y335098D01*
X140540Y335040D01*
X140576Y334981D01*
X140610Y334919D01*
X140640Y334855D01*
X140667Y334791D01*
X140690Y334724D01*
X140710Y334657D01*
X140727Y334589D01*
X140739Y334520D01*
X140749Y334450D01*
X140754Y334380D01*
X140756Y334310D01*
X140756Y332166D01*
X140754Y332096D01*
X140749Y332026D01*
X140739Y331956D01*
X140727Y331887D01*
X140710Y331819D01*
X140690Y331752D01*
X140667Y331685D01*
X140640Y331621D01*
X140610Y331557D01*
X140576Y331495D01*
X140540Y331436D01*
X140500Y331378D01*
X140457Y331322D01*
X140412Y331269D01*
X140363Y331218D01*
X140312Y331169D01*
X140259Y331124D01*
X140203Y331081D01*
X140145Y331041D01*
X140085Y331005D01*
X140024Y330971D01*
X139960Y330941D01*
X139896Y330914D01*
X139829Y330891D01*
X139762Y330871D01*
X139694Y330854D01*
X139625Y330842D01*
X139555Y330832D01*
X139485Y330827D01*
X139415Y330825D01*
X138075Y330825D01*
X143744Y334579D02*
X145085Y335651D01*
X145085Y330825D01*
X146425Y330825D02*
X143744Y330825D01*
D10*
X247142Y278628D02*
X247142Y276088D01*
X246634Y276088D01*
X246634Y276139D01*
X197129Y276139D01*
X197129Y278450D01*
X247345Y325440D02*
X247345Y328158D01*
X246837Y328158D01*
X246837Y328183D01*
X197155Y328183D01*
X197155Y325923D01*
X247650Y311140D02*
X247650Y294122D01*
X196850Y293614D02*
X196850Y302250D01*
X196850Y310886D01*
X196850Y302250D02*
X222250Y327650D01*
D11*
X193675Y330825D03*
D12*
X218075Y330825D02*
X218075Y335651D01*
X219415Y335651D01*
X219485Y335649D01*
X219555Y335644D01*
X219625Y335634D01*
X219694Y335622D01*
X219762Y335605D01*
X219829Y335585D01*
X219896Y335562D01*
X219960Y335535D01*
X220024Y335505D01*
X220086Y335471D01*
X220145Y335435D01*
X220203Y335395D01*
X220259Y335352D01*
X220312Y335307D01*
X220363Y335258D01*
X220412Y335207D01*
X220457Y335154D01*
X220500Y335098D01*
X220540Y335040D01*
X220576Y334981D01*
X220610Y334919D01*
X220640Y334855D01*
X220667Y334791D01*
X220690Y334724D01*
X220710Y334657D01*
X220727Y334589D01*
X220739Y334520D01*
X220749Y334450D01*
X220754Y334380D01*
X220756Y334310D01*
X220756Y332166D01*
X220754Y332096D01*
X220749Y332026D01*
X220739Y331956D01*
X220727Y331887D01*
X220710Y331819D01*
X220690Y331752D01*
X220667Y331685D01*
X220640Y331621D01*
X220610Y331557D01*
X220576Y331495D01*
X220540Y331436D01*
X220500Y331378D01*
X220457Y331322D01*
X220412Y331269D01*
X220363Y331218D01*
X220312Y331169D01*
X220259Y331124D01*
X220203Y331081D01*
X220145Y331041D01*
X220085Y331005D01*
X220024Y330971D01*
X219960Y330941D01*
X219896Y330914D01*
X219829Y330891D01*
X219762Y330871D01*
X219694Y330854D01*
X219625Y330842D01*
X219555Y330832D01*
X219485Y330827D01*
X219415Y330825D01*
X218075Y330825D01*
X225219Y335651D02*
X225287Y335649D01*
X225354Y335643D01*
X225421Y335634D01*
X225488Y335621D01*
X225553Y335604D01*
X225618Y335583D01*
X225681Y335559D01*
X225743Y335531D01*
X225803Y335500D01*
X225861Y335466D01*
X225917Y335428D01*
X225972Y335388D01*
X226023Y335344D01*
X226072Y335297D01*
X226119Y335248D01*
X226163Y335197D01*
X226203Y335142D01*
X226241Y335086D01*
X226275Y335028D01*
X226306Y334968D01*
X226334Y334906D01*
X226358Y334843D01*
X226379Y334778D01*
X226396Y334713D01*
X226409Y334646D01*
X226418Y334579D01*
X226424Y334512D01*
X226426Y334444D01*
X225219Y335651D02*
X225141Y335649D01*
X225063Y335643D01*
X224986Y335633D01*
X224909Y335620D01*
X224833Y335602D01*
X224758Y335581D01*
X224684Y335556D01*
X224612Y335527D01*
X224541Y335495D01*
X224472Y335459D01*
X224404Y335420D01*
X224339Y335377D01*
X224276Y335331D01*
X224215Y335282D01*
X224157Y335230D01*
X224102Y335175D01*
X224049Y335118D01*
X224000Y335058D01*
X223953Y334995D01*
X223910Y334931D01*
X223870Y334864D01*
X223833Y334795D01*
X223800Y334724D01*
X223770Y334652D01*
X223744Y334579D01*
X226023Y333506D02*
X226072Y333555D01*
X226119Y333607D01*
X226162Y333662D01*
X226203Y333719D01*
X226241Y333778D01*
X226275Y333839D01*
X226306Y333902D01*
X226334Y333966D01*
X226358Y334032D01*
X226378Y334098D01*
X226395Y334166D01*
X226408Y334235D01*
X226417Y334304D01*
X226423Y334374D01*
X226425Y334444D01*
X226023Y333506D02*
X223744Y330825D01*
X226425Y330825D01*
D10*
X327142Y278628D02*
X327142Y276088D01*
X326634Y276088D01*
X326634Y276139D01*
X277129Y276139D01*
X277129Y278450D01*
X327345Y325440D02*
X327345Y328158D01*
X326837Y328158D01*
X326837Y328183D01*
X277155Y328183D01*
X277155Y325923D01*
X327650Y311140D02*
X327650Y294122D01*
X276850Y293614D02*
X276850Y302250D01*
X276850Y310886D01*
X276850Y302250D02*
X302250Y327650D01*
D11*
X273675Y330825D03*
D12*
X298075Y330825D02*
X298075Y335651D01*
X299415Y335651D01*
X299485Y335649D01*
X299555Y335644D01*
X299625Y335634D01*
X299694Y335622D01*
X299762Y335605D01*
X299829Y335585D01*
X299896Y335562D01*
X299960Y335535D01*
X300024Y335505D01*
X300086Y335471D01*
X300145Y335435D01*
X300203Y335395D01*
X300259Y335352D01*
X300312Y335307D01*
X300363Y335258D01*
X300412Y335207D01*
X300457Y335154D01*
X300500Y335098D01*
X300540Y335040D01*
X300576Y334981D01*
X300610Y334919D01*
X300640Y334855D01*
X300667Y334791D01*
X300690Y334724D01*
X300710Y334657D01*
X300727Y334589D01*
X300739Y334520D01*
X300749Y334450D01*
X300754Y334380D01*
X300756Y334310D01*
X300756Y332166D01*
X300754Y332096D01*
X300749Y332026D01*
X300739Y331956D01*
X300727Y331887D01*
X300710Y331819D01*
X300690Y331752D01*
X300667Y331685D01*
X300640Y331621D01*
X300610Y331557D01*
X300576Y331495D01*
X300540Y331436D01*
X300500Y331378D01*
X300457Y331322D01*
X300412Y331269D01*
X300363Y331218D01*
X300312Y331169D01*
X300259Y331124D01*
X300203Y331081D01*
X300145Y331041D01*
X300085Y331005D01*
X300024Y330971D01*
X299960Y330941D01*
X299896Y330914D01*
X299829Y330891D01*
X299762Y330871D01*
X299694Y330854D01*
X299625Y330842D01*
X299555Y330832D01*
X299485Y330827D01*
X299415Y330825D01*
X298075Y330825D01*
X303744Y330825D02*
X305085Y330825D01*
X305156Y330827D01*
X305228Y330833D01*
X305298Y330842D01*
X305368Y330855D01*
X305438Y330872D01*
X305506Y330893D01*
X305573Y330917D01*
X305639Y330945D01*
X305703Y330976D01*
X305766Y331011D01*
X305826Y331049D01*
X305885Y331090D01*
X305941Y331134D01*
X305995Y331181D01*
X306046Y331230D01*
X306094Y331283D01*
X306140Y331338D01*
X306182Y331395D01*
X306222Y331455D01*
X306258Y331516D01*
X306291Y331580D01*
X306320Y331645D01*
X306346Y331711D01*
X306369Y331779D01*
X306388Y331848D01*
X306403Y331918D01*
X306414Y331988D01*
X306422Y332059D01*
X306426Y332130D01*
X306426Y332202D01*
X306422Y332273D01*
X306414Y332344D01*
X306403Y332414D01*
X306388Y332484D01*
X306369Y332553D01*
X306346Y332621D01*
X306320Y332687D01*
X306291Y332752D01*
X306258Y332816D01*
X306222Y332877D01*
X306182Y332937D01*
X306140Y332994D01*
X306094Y333049D01*
X306046Y333102D01*
X305995Y333151D01*
X305941Y333198D01*
X305885Y333242D01*
X305826Y333283D01*
X305766Y333321D01*
X305703Y333356D01*
X305639Y333387D01*
X305573Y333415D01*
X305506Y333439D01*
X305438Y333460D01*
X305368Y333477D01*
X305298Y333490D01*
X305228Y333499D01*
X305156Y333505D01*
X305085Y333507D01*
X305353Y335651D02*
X303744Y335651D01*
X305353Y335651D02*
X305418Y335649D01*
X305482Y335643D01*
X305546Y335633D01*
X305610Y335620D01*
X305672Y335602D01*
X305733Y335581D01*
X305793Y335557D01*
X305851Y335528D01*
X305908Y335496D01*
X305962Y335461D01*
X306014Y335423D01*
X306064Y335381D01*
X306111Y335337D01*
X306155Y335290D01*
X306197Y335240D01*
X306235Y335188D01*
X306270Y335134D01*
X306302Y335077D01*
X306331Y335019D01*
X306355Y334959D01*
X306376Y334898D01*
X306394Y334836D01*
X306407Y334772D01*
X306417Y334708D01*
X306423Y334644D01*
X306425Y334579D01*
X306423Y334514D01*
X306417Y334450D01*
X306407Y334386D01*
X306394Y334322D01*
X306376Y334260D01*
X306355Y334199D01*
X306331Y334139D01*
X306302Y334081D01*
X306270Y334024D01*
X306235Y333970D01*
X306197Y333918D01*
X306155Y333868D01*
X306111Y333821D01*
X306064Y333777D01*
X306014Y333735D01*
X305962Y333697D01*
X305908Y333662D01*
X305851Y333630D01*
X305793Y333601D01*
X305733Y333577D01*
X305672Y333556D01*
X305610Y333538D01*
X305546Y333525D01*
X305482Y333515D01*
X305418Y333509D01*
X305353Y333507D01*
X305353Y333506D02*
X304280Y333506D01*
D10*
X167142Y198628D02*
X167142Y196088D01*
X166634Y196088D01*
X166634Y196139D01*
X117129Y196139D01*
X117129Y198450D01*
X167345Y245440D02*
X167345Y248158D01*
X166837Y248158D01*
X166837Y248183D01*
X117155Y248183D01*
X117155Y245923D01*
X167650Y231140D02*
X167650Y214122D01*
X116850Y213614D02*
X116850Y222250D01*
X116850Y230886D01*
X116850Y222250D02*
X142250Y247650D01*
D11*
X113675Y250825D03*
D12*
X138075Y250825D02*
X138075Y255651D01*
X139415Y255651D01*
X139485Y255649D01*
X139555Y255644D01*
X139625Y255634D01*
X139694Y255622D01*
X139762Y255605D01*
X139829Y255585D01*
X139896Y255562D01*
X139960Y255535D01*
X140024Y255505D01*
X140086Y255471D01*
X140145Y255435D01*
X140203Y255395D01*
X140259Y255352D01*
X140312Y255307D01*
X140363Y255258D01*
X140412Y255207D01*
X140457Y255154D01*
X140500Y255098D01*
X140540Y255040D01*
X140576Y254981D01*
X140610Y254919D01*
X140640Y254855D01*
X140667Y254791D01*
X140690Y254724D01*
X140710Y254657D01*
X140727Y254589D01*
X140739Y254520D01*
X140749Y254450D01*
X140754Y254380D01*
X140756Y254310D01*
X140756Y252166D01*
X140754Y252096D01*
X140749Y252026D01*
X140739Y251956D01*
X140727Y251887D01*
X140710Y251819D01*
X140690Y251752D01*
X140667Y251685D01*
X140640Y251621D01*
X140610Y251557D01*
X140576Y251495D01*
X140540Y251436D01*
X140500Y251378D01*
X140457Y251322D01*
X140412Y251269D01*
X140363Y251218D01*
X140312Y251169D01*
X140259Y251124D01*
X140203Y251081D01*
X140145Y251041D01*
X140085Y251005D01*
X140024Y250971D01*
X139960Y250941D01*
X139896Y250914D01*
X139829Y250891D01*
X139762Y250871D01*
X139694Y250854D01*
X139625Y250842D01*
X139555Y250832D01*
X139485Y250827D01*
X139415Y250825D01*
X138075Y250825D01*
X143744Y251897D02*
X144817Y255651D01*
X143744Y251897D02*
X146425Y251897D01*
X145621Y252970D02*
X145621Y250825D01*
D10*
X247142Y198628D02*
X247142Y196088D01*
X246634Y196088D01*
X246634Y196139D01*
X197129Y196139D01*
X197129Y198450D01*
X247345Y245440D02*
X247345Y248158D01*
X246837Y248158D01*
X246837Y248183D01*
X197155Y248183D01*
X197155Y245923D01*
X247650Y231140D02*
X247650Y214122D01*
X196850Y213614D02*
X196850Y222250D01*
X196850Y230886D01*
X196850Y222250D02*
X222250Y247650D01*
D11*
X193675Y250825D03*
D12*
X218075Y250825D02*
X218075Y255651D01*
X219415Y255651D01*
X219485Y255649D01*
X219555Y255644D01*
X219625Y255634D01*
X219694Y255622D01*
X219762Y255605D01*
X219829Y255585D01*
X219896Y255562D01*
X219960Y255535D01*
X220024Y255505D01*
X220086Y255471D01*
X220145Y255435D01*
X220203Y255395D01*
X220259Y255352D01*
X220312Y255307D01*
X220363Y255258D01*
X220412Y255207D01*
X220457Y255154D01*
X220500Y255098D01*
X220540Y255040D01*
X220576Y254981D01*
X220610Y254919D01*
X220640Y254855D01*
X220667Y254791D01*
X220690Y254724D01*
X220710Y254657D01*
X220727Y254589D01*
X220739Y254520D01*
X220749Y254450D01*
X220754Y254380D01*
X220756Y254310D01*
X220756Y252166D01*
X220754Y252096D01*
X220749Y252026D01*
X220739Y251956D01*
X220727Y251887D01*
X220710Y251819D01*
X220690Y251752D01*
X220667Y251685D01*
X220640Y251621D01*
X220610Y251557D01*
X220576Y251495D01*
X220540Y251436D01*
X220500Y251378D01*
X220457Y251322D01*
X220412Y251269D01*
X220363Y251218D01*
X220312Y251169D01*
X220259Y251124D01*
X220203Y251081D01*
X220145Y251041D01*
X220085Y251005D01*
X220024Y250971D01*
X219960Y250941D01*
X219896Y250914D01*
X219829Y250891D01*
X219762Y250871D01*
X219694Y250854D01*
X219625Y250842D01*
X219555Y250832D01*
X219485Y250827D01*
X219415Y250825D01*
X218075Y250825D01*
X223744Y250825D02*
X225353Y250825D01*
X225418Y250827D01*
X225482Y250833D01*
X225546Y250843D01*
X225610Y250856D01*
X225672Y250874D01*
X225733Y250895D01*
X225793Y250919D01*
X225851Y250948D01*
X225908Y250980D01*
X225962Y251015D01*
X226014Y251053D01*
X226064Y251095D01*
X226111Y251139D01*
X226155Y251186D01*
X226197Y251236D01*
X226235Y251288D01*
X226270Y251342D01*
X226302Y251399D01*
X226331Y251457D01*
X226355Y251517D01*
X226376Y251578D01*
X226394Y251640D01*
X226407Y251704D01*
X226417Y251768D01*
X226423Y251832D01*
X226425Y251897D01*
X226425Y252434D01*
X226423Y252499D01*
X226417Y252563D01*
X226407Y252627D01*
X226394Y252691D01*
X226376Y252753D01*
X226355Y252814D01*
X226331Y252874D01*
X226302Y252932D01*
X226270Y252989D01*
X226235Y253043D01*
X226197Y253095D01*
X226155Y253145D01*
X226111Y253192D01*
X226064Y253236D01*
X226014Y253278D01*
X225962Y253316D01*
X225908Y253351D01*
X225851Y253383D01*
X225793Y253412D01*
X225733Y253436D01*
X225672Y253457D01*
X225610Y253475D01*
X225546Y253488D01*
X225482Y253498D01*
X225418Y253504D01*
X225353Y253506D01*
X223744Y253506D01*
X223744Y255651D01*
X226425Y255651D01*
D10*
X327142Y198628D02*
X327142Y196088D01*
X326634Y196088D01*
X326634Y196139D01*
X277129Y196139D01*
X277129Y198450D01*
X327345Y245440D02*
X327345Y248158D01*
X326837Y248158D01*
X326837Y248183D01*
X277155Y248183D01*
X277155Y245923D01*
X327650Y231140D02*
X327650Y214122D01*
X276850Y213614D02*
X276850Y222250D01*
X276850Y230886D01*
X276850Y222250D02*
X302250Y247650D01*
D11*
X273675Y250825D03*
D12*
X298075Y250825D02*
X298075Y255651D01*
X299415Y255651D01*
X299485Y255649D01*
X299555Y255644D01*
X299625Y255634D01*
X299694Y255622D01*
X299762Y255605D01*
X299829Y255585D01*
X299896Y255562D01*
X299960Y255535D01*
X300024Y255505D01*
X300086Y255471D01*
X300145Y255435D01*
X300203Y255395D01*
X300259Y255352D01*
X300312Y255307D01*
X300363Y255258D01*
X300412Y255207D01*
X300457Y255154D01*
X300500Y255098D01*
X300540Y255040D01*
X300576Y254981D01*
X300610Y254919D01*
X300640Y254855D01*
X300667Y254791D01*
X300690Y254724D01*
X300710Y254657D01*
X300727Y254589D01*
X300739Y254520D01*
X300749Y254450D01*
X300754Y254380D01*
X300756Y254310D01*
X300756Y252166D01*
X300754Y252096D01*
X300749Y252026D01*
X300739Y251956D01*
X300727Y251887D01*
X300710Y251819D01*
X300690Y251752D01*
X300667Y251685D01*
X300640Y251621D01*
X300610Y251557D01*
X300576Y251495D01*
X300540Y251436D01*
X300500Y251378D01*
X300457Y251322D01*
X300412Y251269D01*
X300363Y251218D01*
X300312Y251169D01*
X300259Y251124D01*
X300203Y251081D01*
X300145Y251041D01*
X300085Y251005D01*
X300024Y250971D01*
X299960Y250941D01*
X299896Y250914D01*
X299829Y250891D01*
X299762Y250871D01*
X299694Y250854D01*
X299625Y250842D01*
X299555Y250832D01*
X299485Y250827D01*
X299415Y250825D01*
X298075Y250825D01*
X303744Y253506D02*
X305353Y253506D01*
X305418Y253504D01*
X305482Y253498D01*
X305546Y253488D01*
X305610Y253475D01*
X305672Y253457D01*
X305733Y253436D01*
X305793Y253412D01*
X305851Y253383D01*
X305908Y253351D01*
X305962Y253316D01*
X306014Y253278D01*
X306064Y253236D01*
X306111Y253192D01*
X306155Y253145D01*
X306197Y253095D01*
X306235Y253043D01*
X306270Y252989D01*
X306302Y252932D01*
X306331Y252874D01*
X306355Y252814D01*
X306376Y252753D01*
X306394Y252691D01*
X306407Y252627D01*
X306417Y252563D01*
X306423Y252499D01*
X306425Y252434D01*
X306425Y252166D01*
X306426Y252166D02*
X306424Y252095D01*
X306418Y252023D01*
X306409Y251953D01*
X306396Y251883D01*
X306379Y251813D01*
X306358Y251745D01*
X306334Y251678D01*
X306306Y251612D01*
X306275Y251548D01*
X306240Y251485D01*
X306202Y251425D01*
X306161Y251366D01*
X306117Y251310D01*
X306070Y251256D01*
X306021Y251205D01*
X305968Y251157D01*
X305913Y251111D01*
X305856Y251069D01*
X305796Y251029D01*
X305735Y250993D01*
X305671Y250960D01*
X305606Y250931D01*
X305540Y250905D01*
X305472Y250882D01*
X305403Y250863D01*
X305333Y250848D01*
X305263Y250837D01*
X305192Y250829D01*
X305121Y250825D01*
X305049Y250825D01*
X304978Y250829D01*
X304907Y250837D01*
X304837Y250848D01*
X304767Y250863D01*
X304698Y250882D01*
X304630Y250905D01*
X304564Y250931D01*
X304499Y250960D01*
X304435Y250993D01*
X304374Y251029D01*
X304314Y251069D01*
X304257Y251111D01*
X304202Y251157D01*
X304149Y251205D01*
X304100Y251256D01*
X304053Y251310D01*
X304009Y251366D01*
X303968Y251425D01*
X303930Y251485D01*
X303895Y251548D01*
X303864Y251612D01*
X303836Y251678D01*
X303812Y251745D01*
X303791Y251813D01*
X303774Y251883D01*
X303761Y251953D01*
X303752Y252023D01*
X303746Y252095D01*
X303744Y252166D01*
X303744Y253506D01*
X303746Y253597D01*
X303752Y253688D01*
X303761Y253778D01*
X303775Y253869D01*
X303792Y253958D01*
X303813Y254046D01*
X303838Y254134D01*
X303867Y254221D01*
X303899Y254306D01*
X303934Y254390D01*
X303974Y254472D01*
X304016Y254552D01*
X304062Y254631D01*
X304112Y254707D01*
X304164Y254781D01*
X304220Y254854D01*
X304279Y254923D01*
X304340Y254990D01*
X304405Y255055D01*
X304472Y255116D01*
X304541Y255175D01*
X304613Y255231D01*
X304688Y255283D01*
X304764Y255333D01*
X304843Y255379D01*
X304923Y255421D01*
X305005Y255461D01*
X305089Y255496D01*
X305174Y255528D01*
X305261Y255557D01*
X305348Y255582D01*
X305437Y255603D01*
X305526Y255620D01*
X305617Y255634D01*
X305707Y255643D01*
X305798Y255649D01*
X305889Y255651D01*
D10*
X167142Y118628D02*
X167142Y116088D01*
X166634Y116088D01*
X166634Y116139D01*
X117129Y116139D01*
X117129Y118450D01*
X167345Y165440D02*
X167345Y168158D01*
X166837Y168158D01*
X166837Y168183D01*
X117155Y168183D01*
X117155Y165923D01*
X167650Y151140D02*
X167650Y134122D01*
X116850Y133614D02*
X116850Y142250D01*
X116850Y150886D01*
X116850Y142250D02*
X142250Y167650D01*
D11*
X113675Y170825D03*
D12*
X138075Y170825D02*
X138075Y175651D01*
X139415Y175651D01*
X139485Y175649D01*
X139555Y175644D01*
X139625Y175634D01*
X139694Y175622D01*
X139762Y175605D01*
X139829Y175585D01*
X139896Y175562D01*
X139960Y175535D01*
X140024Y175505D01*
X140086Y175471D01*
X140145Y175435D01*
X140203Y175395D01*
X140259Y175352D01*
X140312Y175307D01*
X140363Y175258D01*
X140412Y175207D01*
X140457Y175154D01*
X140500Y175098D01*
X140540Y175040D01*
X140576Y174981D01*
X140610Y174919D01*
X140640Y174855D01*
X140667Y174791D01*
X140690Y174724D01*
X140710Y174657D01*
X140727Y174589D01*
X140739Y174520D01*
X140749Y174450D01*
X140754Y174380D01*
X140756Y174310D01*
X140756Y172166D01*
X140754Y172096D01*
X140749Y172026D01*
X140739Y171956D01*
X140727Y171887D01*
X140710Y171819D01*
X140690Y171752D01*
X140667Y171685D01*
X140640Y171621D01*
X140610Y171557D01*
X140576Y171495D01*
X140540Y171436D01*
X140500Y171378D01*
X140457Y171322D01*
X140412Y171269D01*
X140363Y171218D01*
X140312Y171169D01*
X140259Y171124D01*
X140203Y171081D01*
X140145Y171041D01*
X140085Y171005D01*
X140024Y170971D01*
X139960Y170941D01*
X139896Y170914D01*
X139829Y170891D01*
X139762Y170871D01*
X139694Y170854D01*
X139625Y170842D01*
X139555Y170832D01*
X139485Y170827D01*
X139415Y170825D01*
X138075Y170825D01*
X143744Y175115D02*
X143744Y175651D01*
X146425Y175651D01*
X145085Y170825D01*
D10*
X247142Y118628D02*
X247142Y116088D01*
X246634Y116088D01*
X246634Y116139D01*
X197129Y116139D01*
X197129Y118450D01*
X247345Y165440D02*
X247345Y168158D01*
X246837Y168158D01*
X246837Y168183D01*
X197155Y168183D01*
X197155Y165923D01*
X247650Y151140D02*
X247650Y134122D01*
X196850Y133614D02*
X196850Y142250D01*
X196850Y150886D01*
X196850Y142250D02*
X222250Y167650D01*
D11*
X193675Y170825D03*
D12*
X218075Y170825D02*
X218075Y175651D01*
X219415Y175651D01*
X219485Y175649D01*
X219555Y175644D01*
X219625Y175634D01*
X219694Y175622D01*
X219762Y175605D01*
X219829Y175585D01*
X219896Y175562D01*
X219960Y175535D01*
X220024Y175505D01*
X220086Y175471D01*
X220145Y175435D01*
X220203Y175395D01*
X220259Y175352D01*
X220312Y175307D01*
X220363Y175258D01*
X220412Y175207D01*
X220457Y175154D01*
X220500Y175098D01*
X220540Y175040D01*
X220576Y174981D01*
X220610Y174919D01*
X220640Y174855D01*
X220667Y174791D01*
X220690Y174724D01*
X220710Y174657D01*
X220727Y174589D01*
X220739Y174520D01*
X220749Y174450D01*
X220754Y174380D01*
X220756Y174310D01*
X220756Y172166D01*
X220754Y172096D01*
X220749Y172026D01*
X220739Y171956D01*
X220727Y171887D01*
X220710Y171819D01*
X220690Y171752D01*
X220667Y171685D01*
X220640Y171621D01*
X220610Y171557D01*
X220576Y171495D01*
X220540Y171436D01*
X220500Y171378D01*
X220457Y171322D01*
X220412Y171269D01*
X220363Y171218D01*
X220312Y171169D01*
X220259Y171124D01*
X220203Y171081D01*
X220145Y171041D01*
X220085Y171005D01*
X220024Y170971D01*
X219960Y170941D01*
X219896Y170914D01*
X219829Y170891D01*
X219762Y170871D01*
X219694Y170854D01*
X219625Y170842D01*
X219555Y170832D01*
X219485Y170827D01*
X219415Y170825D01*
X218075Y170825D01*
X223744Y172166D02*
X223746Y172237D01*
X223752Y172309D01*
X223761Y172379D01*
X223774Y172449D01*
X223791Y172519D01*
X223812Y172587D01*
X223836Y172654D01*
X223864Y172720D01*
X223895Y172784D01*
X223930Y172847D01*
X223968Y172907D01*
X224009Y172966D01*
X224053Y173022D01*
X224100Y173076D01*
X224149Y173127D01*
X224202Y173175D01*
X224257Y173221D01*
X224314Y173263D01*
X224374Y173303D01*
X224435Y173339D01*
X224499Y173372D01*
X224564Y173401D01*
X224630Y173427D01*
X224698Y173450D01*
X224767Y173469D01*
X224837Y173484D01*
X224907Y173495D01*
X224978Y173503D01*
X225049Y173507D01*
X225121Y173507D01*
X225192Y173503D01*
X225263Y173495D01*
X225333Y173484D01*
X225403Y173469D01*
X225472Y173450D01*
X225540Y173427D01*
X225606Y173401D01*
X225671Y173372D01*
X225735Y173339D01*
X225796Y173303D01*
X225856Y173263D01*
X225913Y173221D01*
X225968Y173175D01*
X226021Y173127D01*
X226070Y173076D01*
X226117Y173022D01*
X226161Y172966D01*
X226202Y172907D01*
X226240Y172847D01*
X226275Y172784D01*
X226306Y172720D01*
X226334Y172654D01*
X226358Y172587D01*
X226379Y172519D01*
X226396Y172449D01*
X226409Y172379D01*
X226418Y172309D01*
X226424Y172237D01*
X226426Y172166D01*
X226424Y172095D01*
X226418Y172023D01*
X226409Y171953D01*
X226396Y171883D01*
X226379Y171813D01*
X226358Y171745D01*
X226334Y171678D01*
X226306Y171612D01*
X226275Y171548D01*
X226240Y171485D01*
X226202Y171425D01*
X226161Y171366D01*
X226117Y171310D01*
X226070Y171256D01*
X226021Y171205D01*
X225968Y171157D01*
X225913Y171111D01*
X225856Y171069D01*
X225796Y171029D01*
X225735Y170993D01*
X225671Y170960D01*
X225606Y170931D01*
X225540Y170905D01*
X225472Y170882D01*
X225403Y170863D01*
X225333Y170848D01*
X225263Y170837D01*
X225192Y170829D01*
X225121Y170825D01*
X225049Y170825D01*
X224978Y170829D01*
X224907Y170837D01*
X224837Y170848D01*
X224767Y170863D01*
X224698Y170882D01*
X224630Y170905D01*
X224564Y170931D01*
X224499Y170960D01*
X224435Y170993D01*
X224374Y171029D01*
X224314Y171069D01*
X224257Y171111D01*
X224202Y171157D01*
X224149Y171205D01*
X224100Y171256D01*
X224053Y171310D01*
X224009Y171366D01*
X223968Y171425D01*
X223930Y171485D01*
X223895Y171548D01*
X223864Y171612D01*
X223836Y171678D01*
X223812Y171745D01*
X223791Y171813D01*
X223774Y171883D01*
X223761Y171953D01*
X223752Y172023D01*
X223746Y172095D01*
X223744Y172166D01*
X224013Y174579D02*
X224015Y174644D01*
X224021Y174708D01*
X224031Y174772D01*
X224044Y174836D01*
X224062Y174898D01*
X224083Y174959D01*
X224107Y175019D01*
X224136Y175077D01*
X224168Y175134D01*
X224203Y175188D01*
X224241Y175240D01*
X224283Y175290D01*
X224327Y175337D01*
X224374Y175381D01*
X224424Y175423D01*
X224476Y175461D01*
X224530Y175496D01*
X224587Y175528D01*
X224645Y175557D01*
X224705Y175581D01*
X224766Y175602D01*
X224828Y175620D01*
X224892Y175633D01*
X224956Y175643D01*
X225020Y175649D01*
X225085Y175651D01*
X225150Y175649D01*
X225214Y175643D01*
X225278Y175633D01*
X225342Y175620D01*
X225404Y175602D01*
X225465Y175581D01*
X225525Y175557D01*
X225583Y175528D01*
X225640Y175496D01*
X225694Y175461D01*
X225746Y175423D01*
X225796Y175381D01*
X225843Y175337D01*
X225887Y175290D01*
X225929Y175240D01*
X225967Y175188D01*
X226002Y175134D01*
X226034Y175077D01*
X226063Y175019D01*
X226087Y174959D01*
X226108Y174898D01*
X226126Y174836D01*
X226139Y174772D01*
X226149Y174708D01*
X226155Y174644D01*
X226157Y174579D01*
X226155Y174514D01*
X226149Y174450D01*
X226139Y174386D01*
X226126Y174322D01*
X226108Y174260D01*
X226087Y174199D01*
X226063Y174139D01*
X226034Y174081D01*
X226002Y174024D01*
X225967Y173970D01*
X225929Y173918D01*
X225887Y173868D01*
X225843Y173821D01*
X225796Y173777D01*
X225746Y173735D01*
X225694Y173697D01*
X225640Y173662D01*
X225583Y173630D01*
X225525Y173601D01*
X225465Y173577D01*
X225404Y173556D01*
X225342Y173538D01*
X225278Y173525D01*
X225214Y173515D01*
X225150Y173509D01*
X225085Y173507D01*
X225020Y173509D01*
X224956Y173515D01*
X224892Y173525D01*
X224828Y173538D01*
X224766Y173556D01*
X224705Y173577D01*
X224645Y173601D01*
X224587Y173630D01*
X224530Y173662D01*
X224476Y173697D01*
X224424Y173735D01*
X224374Y173777D01*
X224327Y173821D01*
X224283Y173868D01*
X224241Y173918D01*
X224203Y173970D01*
X224168Y174024D01*
X224136Y174081D01*
X224107Y174139D01*
X224083Y174199D01*
X224062Y174260D01*
X224044Y174322D01*
X224031Y174386D01*
X224021Y174450D01*
X224015Y174514D01*
X224013Y174579D01*
D10*
X327142Y118628D02*
X327142Y116088D01*
X326634Y116088D01*
X326634Y116139D01*
X277129Y116139D01*
X277129Y118450D01*
X327345Y165440D02*
X327345Y168158D01*
X326837Y168158D01*
X326837Y168183D01*
X277155Y168183D01*
X277155Y165923D01*
X327650Y151140D02*
X327650Y134122D01*
X276850Y133614D02*
X276850Y142250D01*
X276850Y150886D01*
X276850Y142250D02*
X302250Y167650D01*
D11*
X273675Y170825D03*
D12*
X298075Y170825D02*
X298075Y175651D01*
X299415Y175651D01*
X299485Y175649D01*
X299555Y175644D01*
X299625Y175634D01*
X299694Y175622D01*
X299762Y175605D01*
X299829Y175585D01*
X299896Y175562D01*
X299960Y175535D01*
X300024Y175505D01*
X300086Y175471D01*
X300145Y175435D01*
X300203Y175395D01*
X300259Y175352D01*
X300312Y175307D01*
X300363Y175258D01*
X300412Y175207D01*
X300457Y175154D01*
X300500Y175098D01*
X300540Y175040D01*
X300576Y174981D01*
X300610Y174919D01*
X300640Y174855D01*
X300667Y174791D01*
X300690Y174724D01*
X300710Y174657D01*
X300727Y174589D01*
X300739Y174520D01*
X300749Y174450D01*
X300754Y174380D01*
X300756Y174310D01*
X300756Y172166D01*
X300754Y172096D01*
X300749Y172026D01*
X300739Y171956D01*
X300727Y171887D01*
X300710Y171819D01*
X300690Y171752D01*
X300667Y171685D01*
X300640Y171621D01*
X300610Y171557D01*
X300576Y171495D01*
X300540Y171436D01*
X300500Y171378D01*
X300457Y171322D01*
X300412Y171269D01*
X300363Y171218D01*
X300312Y171169D01*
X300259Y171124D01*
X300203Y171081D01*
X300145Y171041D01*
X300085Y171005D01*
X300024Y170971D01*
X299960Y170941D01*
X299896Y170914D01*
X299829Y170891D01*
X299762Y170871D01*
X299694Y170854D01*
X299625Y170842D01*
X299555Y170832D01*
X299485Y170827D01*
X299415Y170825D01*
X298075Y170825D01*
X304817Y172970D02*
X306425Y172970D01*
X304817Y172970D02*
X304752Y172972D01*
X304688Y172978D01*
X304624Y172988D01*
X304560Y173001D01*
X304498Y173019D01*
X304437Y173040D01*
X304377Y173064D01*
X304319Y173093D01*
X304262Y173125D01*
X304208Y173160D01*
X304156Y173198D01*
X304106Y173240D01*
X304059Y173284D01*
X304015Y173331D01*
X303973Y173381D01*
X303935Y173433D01*
X303900Y173487D01*
X303868Y173544D01*
X303839Y173602D01*
X303815Y173662D01*
X303794Y173723D01*
X303776Y173785D01*
X303763Y173849D01*
X303753Y173913D01*
X303747Y173977D01*
X303745Y174042D01*
X303744Y174042D02*
X303744Y174310D01*
X303746Y174381D01*
X303752Y174453D01*
X303761Y174523D01*
X303774Y174593D01*
X303791Y174663D01*
X303812Y174731D01*
X303836Y174798D01*
X303864Y174864D01*
X303895Y174928D01*
X303930Y174991D01*
X303968Y175051D01*
X304009Y175110D01*
X304053Y175166D01*
X304100Y175220D01*
X304149Y175271D01*
X304202Y175319D01*
X304257Y175365D01*
X304314Y175407D01*
X304374Y175447D01*
X304435Y175483D01*
X304499Y175516D01*
X304564Y175545D01*
X304630Y175571D01*
X304698Y175594D01*
X304767Y175613D01*
X304837Y175628D01*
X304907Y175639D01*
X304978Y175647D01*
X305049Y175651D01*
X305121Y175651D01*
X305192Y175647D01*
X305263Y175639D01*
X305333Y175628D01*
X305403Y175613D01*
X305472Y175594D01*
X305540Y175571D01*
X305606Y175545D01*
X305671Y175516D01*
X305735Y175483D01*
X305796Y175447D01*
X305856Y175407D01*
X305913Y175365D01*
X305968Y175319D01*
X306021Y175271D01*
X306070Y175220D01*
X306117Y175166D01*
X306161Y175110D01*
X306202Y175051D01*
X306240Y174991D01*
X306275Y174928D01*
X306306Y174864D01*
X306334Y174798D01*
X306358Y174731D01*
X306379Y174663D01*
X306396Y174593D01*
X306409Y174523D01*
X306418Y174453D01*
X306424Y174381D01*
X306426Y174310D01*
X306425Y174310D02*
X306425Y172970D01*
X306423Y172879D01*
X306417Y172788D01*
X306408Y172698D01*
X306394Y172607D01*
X306377Y172518D01*
X306356Y172430D01*
X306331Y172342D01*
X306302Y172255D01*
X306270Y172170D01*
X306235Y172086D01*
X306195Y172004D01*
X306153Y171924D01*
X306107Y171845D01*
X306057Y171769D01*
X306005Y171695D01*
X305949Y171622D01*
X305890Y171553D01*
X305829Y171486D01*
X305764Y171421D01*
X305697Y171360D01*
X305628Y171301D01*
X305555Y171245D01*
X305481Y171193D01*
X305405Y171143D01*
X305326Y171097D01*
X305246Y171055D01*
X305164Y171015D01*
X305080Y170980D01*
X304995Y170948D01*
X304908Y170919D01*
X304820Y170894D01*
X304732Y170873D01*
X304643Y170856D01*
X304552Y170842D01*
X304462Y170833D01*
X304371Y170827D01*
X304280Y170825D01*
D10*
X252250Y74110D02*
X192250Y74110D01*
X192250Y14110D01*
X252250Y14110D01*
X252250Y74110D01*
X204750Y44110D02*
X204755Y44539D01*
X204771Y44969D01*
X204797Y45397D01*
X204834Y45825D01*
X204882Y46252D01*
X204939Y46678D01*
X205008Y47102D01*
X205086Y47524D01*
X205175Y47944D01*
X205274Y48362D01*
X205384Y48777D01*
X205504Y49190D01*
X205633Y49599D01*
X205773Y50006D01*
X205923Y50408D01*
X206082Y50807D01*
X206251Y51202D01*
X206430Y51592D01*
X206619Y51978D01*
X206816Y52359D01*
X207023Y52736D01*
X207240Y53107D01*
X207465Y53472D01*
X207699Y53832D01*
X207942Y54187D01*
X208194Y54535D01*
X208454Y54877D01*
X208722Y55212D01*
X208999Y55541D01*
X209283Y55862D01*
X209576Y56177D01*
X209876Y56484D01*
X210183Y56784D01*
X210498Y57077D01*
X210819Y57361D01*
X211148Y57638D01*
X211483Y57906D01*
X211825Y58166D01*
X212173Y58418D01*
X212528Y58661D01*
X212888Y58895D01*
X213253Y59120D01*
X213624Y59337D01*
X214001Y59544D01*
X214382Y59741D01*
X214768Y59930D01*
X215158Y60109D01*
X215553Y60278D01*
X215952Y60437D01*
X216354Y60587D01*
X216761Y60727D01*
X217170Y60856D01*
X217583Y60976D01*
X217998Y61086D01*
X218416Y61185D01*
X218836Y61274D01*
X219258Y61352D01*
X219682Y61421D01*
X220108Y61478D01*
X220535Y61526D01*
X220963Y61563D01*
X221391Y61589D01*
X221821Y61605D01*
X222250Y61610D01*
X222679Y61605D01*
X223109Y61589D01*
X223537Y61563D01*
X223965Y61526D01*
X224392Y61478D01*
X224818Y61421D01*
X225242Y61352D01*
X225664Y61274D01*
X226084Y61185D01*
X226502Y61086D01*
X226917Y60976D01*
X227330Y60856D01*
X227739Y60727D01*
X228146Y60587D01*
X228548Y60437D01*
X228947Y60278D01*
X229342Y60109D01*
X229732Y59930D01*
X230118Y59741D01*
X230499Y59544D01*
X230876Y59337D01*
X231247Y59120D01*
X231612Y58895D01*
X231972Y58661D01*
X232327Y58418D01*
X232675Y58166D01*
X233017Y57906D01*
X233352Y57638D01*
X233681Y57361D01*
X234002Y57077D01*
X234317Y56784D01*
X234624Y56484D01*
X234924Y56177D01*
X235217Y55862D01*
X235501Y55541D01*
X235778Y55212D01*
X236046Y54877D01*
X236306Y54535D01*
X236558Y54187D01*
X236801Y53832D01*
X237035Y53472D01*
X237260Y53107D01*
X237477Y52736D01*
X237684Y52359D01*
X237881Y51978D01*
X238070Y51592D01*
X238249Y51202D01*
X238418Y50807D01*
X238577Y50408D01*
X238727Y50006D01*
X238867Y49599D01*
X238996Y49190D01*
X239116Y48777D01*
X239226Y48362D01*
X239325Y47944D01*
X239414Y47524D01*
X239492Y47102D01*
X239561Y46678D01*
X239618Y46252D01*
X239666Y45825D01*
X239703Y45397D01*
X239729Y44969D01*
X239745Y44539D01*
X239750Y44110D01*
X239745Y43681D01*
X239729Y43251D01*
X239703Y42823D01*
X239666Y42395D01*
X239618Y41968D01*
X239561Y41542D01*
X239492Y41118D01*
X239414Y40696D01*
X239325Y40276D01*
X239226Y39858D01*
X239116Y39443D01*
X238996Y39030D01*
X238867Y38621D01*
X238727Y38214D01*
X238577Y37812D01*
X238418Y37413D01*
X238249Y37018D01*
X238070Y36628D01*
X237881Y36242D01*
X237684Y35861D01*
X237477Y35484D01*
X237260Y35113D01*
X237035Y34748D01*
X236801Y34388D01*
X236558Y34033D01*
X236306Y33685D01*
X236046Y33343D01*
X235778Y33008D01*
X235501Y32679D01*
X235217Y32358D01*
X234924Y32043D01*
X234624Y31736D01*
X234317Y31436D01*
X234002Y31143D01*
X233681Y30859D01*
X233352Y30582D01*
X233017Y30314D01*
X232675Y30054D01*
X232327Y29802D01*
X231972Y29559D01*
X231612Y29325D01*
X231247Y29100D01*
X230876Y28883D01*
X230499Y28676D01*
X230118Y28479D01*
X229732Y28290D01*
X229342Y28111D01*
X228947Y27942D01*
X228548Y27783D01*
X228146Y27633D01*
X227739Y27493D01*
X227330Y27364D01*
X226917Y27244D01*
X226502Y27134D01*
X226084Y27035D01*
X225664Y26946D01*
X225242Y26868D01*
X224818Y26799D01*
X224392Y26742D01*
X223965Y26694D01*
X223537Y26657D01*
X223109Y26631D01*
X222679Y26615D01*
X222250Y26610D01*
X221821Y26615D01*
X221391Y26631D01*
X220963Y26657D01*
X220535Y26694D01*
X220108Y26742D01*
X219682Y26799D01*
X219258Y26868D01*
X218836Y26946D01*
X218416Y27035D01*
X217998Y27134D01*
X217583Y27244D01*
X217170Y27364D01*
X216761Y27493D01*
X216354Y27633D01*
X215952Y27783D01*
X215553Y27942D01*
X215158Y28111D01*
X214768Y28290D01*
X214382Y28479D01*
X214001Y28676D01*
X213624Y28883D01*
X213253Y29100D01*
X212888Y29325D01*
X212528Y29559D01*
X212173Y29802D01*
X211825Y30054D01*
X211483Y30314D01*
X211148Y30582D01*
X210819Y30859D01*
X210498Y31143D01*
X210183Y31436D01*
X209876Y31736D01*
X209576Y32043D01*
X209283Y32358D01*
X208999Y32679D01*
X208722Y33008D01*
X208454Y33343D01*
X208194Y33685D01*
X207942Y34033D01*
X207699Y34388D01*
X207465Y34748D01*
X207240Y35113D01*
X207023Y35484D01*
X206816Y35861D01*
X206619Y36242D01*
X206430Y36628D01*
X206251Y37018D01*
X206082Y37413D01*
X205923Y37812D01*
X205773Y38214D01*
X205633Y38621D01*
X205504Y39030D01*
X205384Y39443D01*
X205274Y39858D01*
X205175Y40276D01*
X205086Y40696D01*
X205008Y41118D01*
X204939Y41542D01*
X204882Y41968D01*
X204834Y42395D01*
X204797Y42823D01*
X204771Y43251D01*
X204755Y43681D01*
X204750Y44110D01*
D12*
X217464Y7971D02*
X217462Y7906D01*
X217456Y7842D01*
X217446Y7778D01*
X217433Y7714D01*
X217415Y7652D01*
X217394Y7591D01*
X217370Y7531D01*
X217341Y7473D01*
X217309Y7416D01*
X217274Y7362D01*
X217236Y7310D01*
X217194Y7260D01*
X217150Y7213D01*
X217103Y7169D01*
X217053Y7127D01*
X217001Y7089D01*
X216947Y7054D01*
X216890Y7022D01*
X216832Y6993D01*
X216772Y6969D01*
X216711Y6948D01*
X216649Y6930D01*
X216585Y6917D01*
X216521Y6907D01*
X216457Y6901D01*
X216392Y6899D01*
X216298Y6901D01*
X216204Y6907D01*
X216110Y6917D01*
X216017Y6930D01*
X215925Y6948D01*
X215833Y6969D01*
X215742Y6994D01*
X215652Y7023D01*
X215564Y7056D01*
X215477Y7092D01*
X215392Y7132D01*
X215308Y7175D01*
X215227Y7222D01*
X215147Y7272D01*
X215069Y7325D01*
X214994Y7382D01*
X214921Y7441D01*
X214851Y7504D01*
X214783Y7569D01*
X214917Y10653D02*
X214919Y10718D01*
X214925Y10782D01*
X214935Y10846D01*
X214948Y10910D01*
X214966Y10972D01*
X214987Y11033D01*
X215011Y11093D01*
X215040Y11151D01*
X215072Y11208D01*
X215107Y11262D01*
X215145Y11314D01*
X215187Y11364D01*
X215231Y11411D01*
X215278Y11455D01*
X215328Y11497D01*
X215380Y11535D01*
X215434Y11570D01*
X215491Y11602D01*
X215549Y11631D01*
X215609Y11655D01*
X215670Y11676D01*
X215732Y11694D01*
X215796Y11707D01*
X215860Y11717D01*
X215924Y11723D01*
X215989Y11725D01*
X216075Y11723D01*
X216161Y11718D01*
X216247Y11708D01*
X216332Y11695D01*
X216417Y11679D01*
X216501Y11659D01*
X216584Y11635D01*
X216666Y11608D01*
X216746Y11577D01*
X216826Y11543D01*
X216903Y11505D01*
X216979Y11464D01*
X217053Y11420D01*
X217125Y11373D01*
X217196Y11323D01*
X215453Y9715D02*
X215400Y9748D01*
X215349Y9785D01*
X215300Y9824D01*
X215253Y9866D01*
X215209Y9911D01*
X215168Y9958D01*
X215129Y10007D01*
X215093Y10059D01*
X215060Y10113D01*
X215031Y10168D01*
X215005Y10225D01*
X214982Y10284D01*
X214962Y10343D01*
X214946Y10404D01*
X214933Y10465D01*
X214924Y10528D01*
X214919Y10590D01*
X214917Y10653D01*
X216928Y8909D02*
X216981Y8876D01*
X217032Y8839D01*
X217081Y8800D01*
X217128Y8758D01*
X217172Y8713D01*
X217213Y8666D01*
X217252Y8617D01*
X217288Y8565D01*
X217321Y8511D01*
X217350Y8456D01*
X217376Y8399D01*
X217399Y8340D01*
X217419Y8281D01*
X217435Y8220D01*
X217448Y8159D01*
X217457Y8096D01*
X217462Y8034D01*
X217464Y7971D01*
X216928Y8910D02*
X215453Y9714D01*
X220014Y11725D02*
X221086Y6899D01*
X222159Y10116D01*
X223231Y6899D01*
X224303Y11725D01*
X227036Y6899D02*
X228376Y6899D01*
X228447Y6901D01*
X228519Y6907D01*
X228589Y6916D01*
X228659Y6929D01*
X228729Y6946D01*
X228797Y6967D01*
X228864Y6991D01*
X228930Y7019D01*
X228994Y7050D01*
X229057Y7085D01*
X229117Y7123D01*
X229176Y7164D01*
X229232Y7208D01*
X229286Y7255D01*
X229337Y7304D01*
X229385Y7357D01*
X229431Y7412D01*
X229473Y7469D01*
X229513Y7529D01*
X229549Y7590D01*
X229582Y7654D01*
X229611Y7719D01*
X229637Y7785D01*
X229660Y7853D01*
X229679Y7922D01*
X229694Y7992D01*
X229705Y8062D01*
X229713Y8133D01*
X229717Y8204D01*
X229717Y8276D01*
X229713Y8347D01*
X229705Y8418D01*
X229694Y8488D01*
X229679Y8558D01*
X229660Y8627D01*
X229637Y8695D01*
X229611Y8761D01*
X229582Y8826D01*
X229549Y8890D01*
X229513Y8951D01*
X229473Y9011D01*
X229431Y9068D01*
X229385Y9123D01*
X229337Y9176D01*
X229286Y9225D01*
X229232Y9272D01*
X229176Y9316D01*
X229117Y9357D01*
X229057Y9395D01*
X228994Y9430D01*
X228930Y9461D01*
X228864Y9489D01*
X228797Y9513D01*
X228729Y9534D01*
X228659Y9551D01*
X228589Y9564D01*
X228519Y9573D01*
X228447Y9579D01*
X228376Y9581D01*
X228645Y11725D02*
X227036Y11725D01*
X228645Y11725D02*
X228710Y11723D01*
X228774Y11717D01*
X228838Y11707D01*
X228902Y11694D01*
X228964Y11676D01*
X229025Y11655D01*
X229085Y11631D01*
X229143Y11602D01*
X229200Y11570D01*
X229254Y11535D01*
X229306Y11497D01*
X229356Y11455D01*
X229403Y11411D01*
X229447Y11364D01*
X229489Y11314D01*
X229527Y11262D01*
X229562Y11208D01*
X229594Y11151D01*
X229623Y11093D01*
X229647Y11033D01*
X229668Y10972D01*
X229686Y10910D01*
X229699Y10846D01*
X229709Y10782D01*
X229715Y10718D01*
X229717Y10653D01*
X229715Y10588D01*
X229709Y10524D01*
X229699Y10460D01*
X229686Y10396D01*
X229668Y10334D01*
X229647Y10273D01*
X229623Y10213D01*
X229594Y10155D01*
X229562Y10098D01*
X229527Y10044D01*
X229489Y9992D01*
X229447Y9942D01*
X229403Y9895D01*
X229356Y9851D01*
X229306Y9809D01*
X229254Y9771D01*
X229200Y9736D01*
X229143Y9704D01*
X229085Y9675D01*
X229025Y9651D01*
X228964Y9630D01*
X228902Y9612D01*
X228838Y9599D01*
X228774Y9589D01*
X228710Y9583D01*
X228645Y9581D01*
X228645Y9580D02*
X227572Y9580D01*
D10*
X370390Y192250D02*
X370390Y252250D01*
X370390Y192250D02*
X430390Y192250D01*
X430390Y252250D01*
X370390Y252250D01*
X382890Y222250D02*
X382895Y222679D01*
X382911Y223109D01*
X382937Y223537D01*
X382974Y223965D01*
X383022Y224392D01*
X383079Y224818D01*
X383148Y225242D01*
X383226Y225664D01*
X383315Y226084D01*
X383414Y226502D01*
X383524Y226917D01*
X383644Y227330D01*
X383773Y227739D01*
X383913Y228146D01*
X384063Y228548D01*
X384222Y228947D01*
X384391Y229342D01*
X384570Y229732D01*
X384759Y230118D01*
X384956Y230499D01*
X385163Y230876D01*
X385380Y231247D01*
X385605Y231612D01*
X385839Y231972D01*
X386082Y232327D01*
X386334Y232675D01*
X386594Y233017D01*
X386862Y233352D01*
X387139Y233681D01*
X387423Y234002D01*
X387716Y234317D01*
X388016Y234624D01*
X388323Y234924D01*
X388638Y235217D01*
X388959Y235501D01*
X389288Y235778D01*
X389623Y236046D01*
X389965Y236306D01*
X390313Y236558D01*
X390668Y236801D01*
X391028Y237035D01*
X391393Y237260D01*
X391764Y237477D01*
X392141Y237684D01*
X392522Y237881D01*
X392908Y238070D01*
X393298Y238249D01*
X393693Y238418D01*
X394092Y238577D01*
X394494Y238727D01*
X394901Y238867D01*
X395310Y238996D01*
X395723Y239116D01*
X396138Y239226D01*
X396556Y239325D01*
X396976Y239414D01*
X397398Y239492D01*
X397822Y239561D01*
X398248Y239618D01*
X398675Y239666D01*
X399103Y239703D01*
X399531Y239729D01*
X399961Y239745D01*
X400390Y239750D01*
X400819Y239745D01*
X401249Y239729D01*
X401677Y239703D01*
X402105Y239666D01*
X402532Y239618D01*
X402958Y239561D01*
X403382Y239492D01*
X403804Y239414D01*
X404224Y239325D01*
X404642Y239226D01*
X405057Y239116D01*
X405470Y238996D01*
X405879Y238867D01*
X406286Y238727D01*
X406688Y238577D01*
X407087Y238418D01*
X407482Y238249D01*
X407872Y238070D01*
X408258Y237881D01*
X408639Y237684D01*
X409016Y237477D01*
X409387Y237260D01*
X409752Y237035D01*
X410112Y236801D01*
X410467Y236558D01*
X410815Y236306D01*
X411157Y236046D01*
X411492Y235778D01*
X411821Y235501D01*
X412142Y235217D01*
X412457Y234924D01*
X412764Y234624D01*
X413064Y234317D01*
X413357Y234002D01*
X413641Y233681D01*
X413918Y233352D01*
X414186Y233017D01*
X414446Y232675D01*
X414698Y232327D01*
X414941Y231972D01*
X415175Y231612D01*
X415400Y231247D01*
X415617Y230876D01*
X415824Y230499D01*
X416021Y230118D01*
X416210Y229732D01*
X416389Y229342D01*
X416558Y228947D01*
X416717Y228548D01*
X416867Y228146D01*
X417007Y227739D01*
X417136Y227330D01*
X417256Y226917D01*
X417366Y226502D01*
X417465Y226084D01*
X417554Y225664D01*
X417632Y225242D01*
X417701Y224818D01*
X417758Y224392D01*
X417806Y223965D01*
X417843Y223537D01*
X417869Y223109D01*
X417885Y222679D01*
X417890Y222250D01*
X417885Y221821D01*
X417869Y221391D01*
X417843Y220963D01*
X417806Y220535D01*
X417758Y220108D01*
X417701Y219682D01*
X417632Y219258D01*
X417554Y218836D01*
X417465Y218416D01*
X417366Y217998D01*
X417256Y217583D01*
X417136Y217170D01*
X417007Y216761D01*
X416867Y216354D01*
X416717Y215952D01*
X416558Y215553D01*
X416389Y215158D01*
X416210Y214768D01*
X416021Y214382D01*
X415824Y214001D01*
X415617Y213624D01*
X415400Y213253D01*
X415175Y212888D01*
X414941Y212528D01*
X414698Y212173D01*
X414446Y211825D01*
X414186Y211483D01*
X413918Y211148D01*
X413641Y210819D01*
X413357Y210498D01*
X413064Y210183D01*
X412764Y209876D01*
X412457Y209576D01*
X412142Y209283D01*
X411821Y208999D01*
X411492Y208722D01*
X411157Y208454D01*
X410815Y208194D01*
X410467Y207942D01*
X410112Y207699D01*
X409752Y207465D01*
X409387Y207240D01*
X409016Y207023D01*
X408639Y206816D01*
X408258Y206619D01*
X407872Y206430D01*
X407482Y206251D01*
X407087Y206082D01*
X406688Y205923D01*
X406286Y205773D01*
X405879Y205633D01*
X405470Y205504D01*
X405057Y205384D01*
X404642Y205274D01*
X404224Y205175D01*
X403804Y205086D01*
X403382Y205008D01*
X402958Y204939D01*
X402532Y204882D01*
X402105Y204834D01*
X401677Y204797D01*
X401249Y204771D01*
X400819Y204755D01*
X400390Y204750D01*
X399961Y204755D01*
X399531Y204771D01*
X399103Y204797D01*
X398675Y204834D01*
X398248Y204882D01*
X397822Y204939D01*
X397398Y205008D01*
X396976Y205086D01*
X396556Y205175D01*
X396138Y205274D01*
X395723Y205384D01*
X395310Y205504D01*
X394901Y205633D01*
X394494Y205773D01*
X394092Y205923D01*
X393693Y206082D01*
X393298Y206251D01*
X392908Y206430D01*
X392522Y206619D01*
X392141Y206816D01*
X391764Y207023D01*
X391393Y207240D01*
X391028Y207465D01*
X390668Y207699D01*
X390313Y207942D01*
X389965Y208194D01*
X389623Y208454D01*
X389288Y208722D01*
X388959Y208999D01*
X388638Y209283D01*
X388323Y209576D01*
X388016Y209876D01*
X387716Y210183D01*
X387423Y210498D01*
X387139Y210819D01*
X386862Y211148D01*
X386594Y211483D01*
X386334Y211825D01*
X386082Y212173D01*
X385839Y212528D01*
X385605Y212888D01*
X385380Y213253D01*
X385163Y213624D01*
X384956Y214001D01*
X384759Y214382D01*
X384570Y214768D01*
X384391Y215158D01*
X384222Y215553D01*
X384063Y215952D01*
X383913Y216354D01*
X383773Y216761D01*
X383644Y217170D01*
X383524Y217583D01*
X383414Y217998D01*
X383315Y218416D01*
X383226Y218836D01*
X383148Y219258D01*
X383079Y219682D01*
X383022Y220108D01*
X382974Y220535D01*
X382937Y220963D01*
X382911Y221391D01*
X382895Y221821D01*
X382890Y222250D01*
D12*
X436529Y217464D02*
X436594Y217462D01*
X436658Y217456D01*
X436722Y217446D01*
X436786Y217433D01*
X436848Y217415D01*
X436909Y217394D01*
X436969Y217370D01*
X437027Y217341D01*
X437084Y217309D01*
X437138Y217274D01*
X437190Y217236D01*
X437240Y217194D01*
X437287Y217150D01*
X437331Y217103D01*
X437373Y217053D01*
X437411Y217001D01*
X437446Y216947D01*
X437478Y216890D01*
X437507Y216832D01*
X437531Y216772D01*
X437552Y216711D01*
X437570Y216649D01*
X437583Y216585D01*
X437593Y216521D01*
X437599Y216457D01*
X437601Y216392D01*
X437599Y216298D01*
X437593Y216204D01*
X437583Y216110D01*
X437570Y216017D01*
X437552Y215925D01*
X437531Y215833D01*
X437506Y215742D01*
X437477Y215652D01*
X437444Y215564D01*
X437408Y215477D01*
X437368Y215392D01*
X437325Y215308D01*
X437278Y215227D01*
X437228Y215147D01*
X437175Y215069D01*
X437118Y214994D01*
X437059Y214921D01*
X436996Y214851D01*
X436931Y214783D01*
X433847Y214918D02*
X433782Y214920D01*
X433718Y214926D01*
X433654Y214936D01*
X433590Y214949D01*
X433528Y214967D01*
X433467Y214988D01*
X433407Y215012D01*
X433349Y215041D01*
X433292Y215073D01*
X433238Y215108D01*
X433186Y215146D01*
X433136Y215188D01*
X433089Y215232D01*
X433045Y215279D01*
X433003Y215329D01*
X432965Y215381D01*
X432930Y215435D01*
X432898Y215492D01*
X432869Y215550D01*
X432845Y215610D01*
X432824Y215671D01*
X432806Y215733D01*
X432793Y215797D01*
X432783Y215861D01*
X432777Y215925D01*
X432775Y215990D01*
X432777Y216076D01*
X432782Y216162D01*
X432792Y216248D01*
X432805Y216333D01*
X432821Y216418D01*
X432841Y216502D01*
X432865Y216585D01*
X432892Y216667D01*
X432923Y216747D01*
X432957Y216827D01*
X432995Y216904D01*
X433036Y216980D01*
X433080Y217054D01*
X433127Y217127D01*
X433177Y217197D01*
X434785Y215453D02*
X434752Y215400D01*
X434715Y215349D01*
X434676Y215300D01*
X434634Y215253D01*
X434589Y215209D01*
X434542Y215168D01*
X434493Y215129D01*
X434441Y215093D01*
X434387Y215060D01*
X434332Y215031D01*
X434275Y215005D01*
X434216Y214982D01*
X434157Y214962D01*
X434096Y214946D01*
X434035Y214933D01*
X433972Y214924D01*
X433910Y214919D01*
X433847Y214917D01*
X435591Y216928D02*
X435624Y216981D01*
X435661Y217032D01*
X435700Y217081D01*
X435742Y217128D01*
X435787Y217172D01*
X435834Y217213D01*
X435883Y217252D01*
X435935Y217288D01*
X435989Y217321D01*
X436044Y217350D01*
X436101Y217376D01*
X436160Y217399D01*
X436219Y217419D01*
X436280Y217435D01*
X436341Y217448D01*
X436404Y217457D01*
X436466Y217462D01*
X436529Y217464D01*
X435590Y216928D02*
X434786Y215453D01*
X432775Y220014D02*
X437601Y221086D01*
X434384Y222159D01*
X437601Y223231D01*
X432775Y224303D01*
X432775Y228510D02*
X432777Y228578D01*
X432783Y228645D01*
X432792Y228712D01*
X432805Y228779D01*
X432822Y228844D01*
X432843Y228909D01*
X432867Y228972D01*
X432895Y229034D01*
X432926Y229094D01*
X432960Y229152D01*
X432998Y229208D01*
X433038Y229263D01*
X433082Y229314D01*
X433129Y229363D01*
X433178Y229410D01*
X433229Y229454D01*
X433284Y229494D01*
X433340Y229532D01*
X433398Y229566D01*
X433458Y229597D01*
X433520Y229625D01*
X433583Y229649D01*
X433648Y229670D01*
X433713Y229687D01*
X433780Y229700D01*
X433847Y229709D01*
X433914Y229715D01*
X433982Y229717D01*
X432775Y228510D02*
X432777Y228432D01*
X432783Y228354D01*
X432793Y228277D01*
X432806Y228200D01*
X432824Y228124D01*
X432845Y228049D01*
X432870Y227975D01*
X432899Y227903D01*
X432931Y227832D01*
X432967Y227763D01*
X433006Y227695D01*
X433049Y227630D01*
X433095Y227567D01*
X433144Y227506D01*
X433196Y227448D01*
X433251Y227393D01*
X433308Y227340D01*
X433368Y227291D01*
X433431Y227244D01*
X433496Y227201D01*
X433562Y227161D01*
X433631Y227124D01*
X433702Y227091D01*
X433774Y227061D01*
X433848Y227035D01*
X434920Y229315D02*
X434871Y229364D01*
X434819Y229411D01*
X434764Y229454D01*
X434707Y229495D01*
X434648Y229533D01*
X434587Y229567D01*
X434524Y229598D01*
X434460Y229626D01*
X434394Y229650D01*
X434328Y229670D01*
X434260Y229687D01*
X434191Y229700D01*
X434122Y229709D01*
X434052Y229715D01*
X433982Y229717D01*
X434920Y229315D02*
X437601Y227036D01*
X437601Y229717D01*
D10*
X252250Y370390D02*
X192250Y370390D01*
X252250Y370390D02*
X252250Y430390D01*
X192250Y430390D01*
X192250Y370390D01*
X204750Y400390D02*
X204755Y400819D01*
X204771Y401249D01*
X204797Y401677D01*
X204834Y402105D01*
X204882Y402532D01*
X204939Y402958D01*
X205008Y403382D01*
X205086Y403804D01*
X205175Y404224D01*
X205274Y404642D01*
X205384Y405057D01*
X205504Y405470D01*
X205633Y405879D01*
X205773Y406286D01*
X205923Y406688D01*
X206082Y407087D01*
X206251Y407482D01*
X206430Y407872D01*
X206619Y408258D01*
X206816Y408639D01*
X207023Y409016D01*
X207240Y409387D01*
X207465Y409752D01*
X207699Y410112D01*
X207942Y410467D01*
X208194Y410815D01*
X208454Y411157D01*
X208722Y411492D01*
X208999Y411821D01*
X209283Y412142D01*
X209576Y412457D01*
X209876Y412764D01*
X210183Y413064D01*
X210498Y413357D01*
X210819Y413641D01*
X211148Y413918D01*
X211483Y414186D01*
X211825Y414446D01*
X212173Y414698D01*
X212528Y414941D01*
X212888Y415175D01*
X213253Y415400D01*
X213624Y415617D01*
X214001Y415824D01*
X214382Y416021D01*
X214768Y416210D01*
X215158Y416389D01*
X215553Y416558D01*
X215952Y416717D01*
X216354Y416867D01*
X216761Y417007D01*
X217170Y417136D01*
X217583Y417256D01*
X217998Y417366D01*
X218416Y417465D01*
X218836Y417554D01*
X219258Y417632D01*
X219682Y417701D01*
X220108Y417758D01*
X220535Y417806D01*
X220963Y417843D01*
X221391Y417869D01*
X221821Y417885D01*
X222250Y417890D01*
X222679Y417885D01*
X223109Y417869D01*
X223537Y417843D01*
X223965Y417806D01*
X224392Y417758D01*
X224818Y417701D01*
X225242Y417632D01*
X225664Y417554D01*
X226084Y417465D01*
X226502Y417366D01*
X226917Y417256D01*
X227330Y417136D01*
X227739Y417007D01*
X228146Y416867D01*
X228548Y416717D01*
X228947Y416558D01*
X229342Y416389D01*
X229732Y416210D01*
X230118Y416021D01*
X230499Y415824D01*
X230876Y415617D01*
X231247Y415400D01*
X231612Y415175D01*
X231972Y414941D01*
X232327Y414698D01*
X232675Y414446D01*
X233017Y414186D01*
X233352Y413918D01*
X233681Y413641D01*
X234002Y413357D01*
X234317Y413064D01*
X234624Y412764D01*
X234924Y412457D01*
X235217Y412142D01*
X235501Y411821D01*
X235778Y411492D01*
X236046Y411157D01*
X236306Y410815D01*
X236558Y410467D01*
X236801Y410112D01*
X237035Y409752D01*
X237260Y409387D01*
X237477Y409016D01*
X237684Y408639D01*
X237881Y408258D01*
X238070Y407872D01*
X238249Y407482D01*
X238418Y407087D01*
X238577Y406688D01*
X238727Y406286D01*
X238867Y405879D01*
X238996Y405470D01*
X239116Y405057D01*
X239226Y404642D01*
X239325Y404224D01*
X239414Y403804D01*
X239492Y403382D01*
X239561Y402958D01*
X239618Y402532D01*
X239666Y402105D01*
X239703Y401677D01*
X239729Y401249D01*
X239745Y400819D01*
X239750Y400390D01*
X239745Y399961D01*
X239729Y399531D01*
X239703Y399103D01*
X239666Y398675D01*
X239618Y398248D01*
X239561Y397822D01*
X239492Y397398D01*
X239414Y396976D01*
X239325Y396556D01*
X239226Y396138D01*
X239116Y395723D01*
X238996Y395310D01*
X238867Y394901D01*
X238727Y394494D01*
X238577Y394092D01*
X238418Y393693D01*
X238249Y393298D01*
X238070Y392908D01*
X237881Y392522D01*
X237684Y392141D01*
X237477Y391764D01*
X237260Y391393D01*
X237035Y391028D01*
X236801Y390668D01*
X236558Y390313D01*
X236306Y389965D01*
X236046Y389623D01*
X235778Y389288D01*
X235501Y388959D01*
X235217Y388638D01*
X234924Y388323D01*
X234624Y388016D01*
X234317Y387716D01*
X234002Y387423D01*
X233681Y387139D01*
X233352Y386862D01*
X233017Y386594D01*
X232675Y386334D01*
X232327Y386082D01*
X231972Y385839D01*
X231612Y385605D01*
X231247Y385380D01*
X230876Y385163D01*
X230499Y384956D01*
X230118Y384759D01*
X229732Y384570D01*
X229342Y384391D01*
X228947Y384222D01*
X228548Y384063D01*
X228146Y383913D01*
X227739Y383773D01*
X227330Y383644D01*
X226917Y383524D01*
X226502Y383414D01*
X226084Y383315D01*
X225664Y383226D01*
X225242Y383148D01*
X224818Y383079D01*
X224392Y383022D01*
X223965Y382974D01*
X223537Y382937D01*
X223109Y382911D01*
X222679Y382895D01*
X222250Y382890D01*
X221821Y382895D01*
X221391Y382911D01*
X220963Y382937D01*
X220535Y382974D01*
X220108Y383022D01*
X219682Y383079D01*
X219258Y383148D01*
X218836Y383226D01*
X218416Y383315D01*
X217998Y383414D01*
X217583Y383524D01*
X217170Y383644D01*
X216761Y383773D01*
X216354Y383913D01*
X215952Y384063D01*
X215553Y384222D01*
X215158Y384391D01*
X214768Y384570D01*
X214382Y384759D01*
X214001Y384956D01*
X213624Y385163D01*
X213253Y385380D01*
X212888Y385605D01*
X212528Y385839D01*
X212173Y386082D01*
X211825Y386334D01*
X211483Y386594D01*
X211148Y386862D01*
X210819Y387139D01*
X210498Y387423D01*
X210183Y387716D01*
X209876Y388016D01*
X209576Y388323D01*
X209283Y388638D01*
X208999Y388959D01*
X208722Y389288D01*
X208454Y389623D01*
X208194Y389965D01*
X207942Y390313D01*
X207699Y390668D01*
X207465Y391028D01*
X207240Y391393D01*
X207023Y391764D01*
X206816Y392141D01*
X206619Y392522D01*
X206430Y392908D01*
X206251Y393298D01*
X206082Y393693D01*
X205923Y394092D01*
X205773Y394494D01*
X205633Y394901D01*
X205504Y395310D01*
X205384Y395723D01*
X205274Y396138D01*
X205175Y396556D01*
X205086Y396976D01*
X205008Y397398D01*
X204939Y397822D01*
X204882Y398248D01*
X204834Y398675D01*
X204797Y399103D01*
X204771Y399531D01*
X204755Y399961D01*
X204750Y400390D01*
D12*
X216392Y432775D02*
X216457Y432777D01*
X216521Y432783D01*
X216585Y432793D01*
X216649Y432806D01*
X216711Y432824D01*
X216772Y432845D01*
X216832Y432869D01*
X216890Y432898D01*
X216947Y432930D01*
X217001Y432965D01*
X217053Y433003D01*
X217103Y433045D01*
X217150Y433089D01*
X217194Y433136D01*
X217236Y433186D01*
X217274Y433238D01*
X217309Y433292D01*
X217341Y433349D01*
X217370Y433407D01*
X217394Y433467D01*
X217415Y433528D01*
X217433Y433590D01*
X217446Y433654D01*
X217456Y433718D01*
X217462Y433782D01*
X217464Y433847D01*
X216392Y432775D02*
X216298Y432777D01*
X216204Y432783D01*
X216110Y432793D01*
X216017Y432806D01*
X215925Y432824D01*
X215833Y432845D01*
X215742Y432870D01*
X215652Y432899D01*
X215564Y432932D01*
X215477Y432968D01*
X215392Y433008D01*
X215308Y433051D01*
X215227Y433098D01*
X215147Y433148D01*
X215069Y433201D01*
X214994Y433258D01*
X214921Y433317D01*
X214851Y433380D01*
X214783Y433445D01*
X214917Y436529D02*
X214919Y436594D01*
X214925Y436658D01*
X214935Y436722D01*
X214948Y436786D01*
X214966Y436848D01*
X214987Y436909D01*
X215011Y436969D01*
X215040Y437027D01*
X215072Y437084D01*
X215107Y437138D01*
X215145Y437190D01*
X215187Y437240D01*
X215231Y437287D01*
X215278Y437331D01*
X215328Y437373D01*
X215380Y437411D01*
X215434Y437446D01*
X215491Y437478D01*
X215549Y437507D01*
X215609Y437531D01*
X215670Y437552D01*
X215732Y437570D01*
X215796Y437583D01*
X215860Y437593D01*
X215924Y437599D01*
X215989Y437601D01*
X216075Y437599D01*
X216161Y437594D01*
X216247Y437584D01*
X216332Y437571D01*
X216417Y437555D01*
X216501Y437535D01*
X216584Y437511D01*
X216666Y437484D01*
X216746Y437453D01*
X216826Y437419D01*
X216903Y437381D01*
X216979Y437340D01*
X217053Y437296D01*
X217125Y437249D01*
X217196Y437199D01*
X215453Y435591D02*
X215400Y435624D01*
X215349Y435661D01*
X215300Y435700D01*
X215253Y435742D01*
X215209Y435787D01*
X215168Y435834D01*
X215129Y435883D01*
X215093Y435935D01*
X215060Y435989D01*
X215031Y436044D01*
X215005Y436101D01*
X214982Y436160D01*
X214962Y436219D01*
X214946Y436280D01*
X214933Y436341D01*
X214924Y436404D01*
X214919Y436466D01*
X214917Y436529D01*
X216928Y434785D02*
X216981Y434752D01*
X217032Y434715D01*
X217081Y434676D01*
X217128Y434634D01*
X217172Y434589D01*
X217213Y434542D01*
X217252Y434493D01*
X217288Y434441D01*
X217321Y434387D01*
X217350Y434332D01*
X217376Y434275D01*
X217399Y434216D01*
X217419Y434157D01*
X217435Y434096D01*
X217448Y434035D01*
X217457Y433972D01*
X217462Y433910D01*
X217464Y433847D01*
X216928Y434786D02*
X215453Y435590D01*
X220014Y437601D02*
X221086Y432775D01*
X222159Y435992D01*
X223231Y432775D01*
X224303Y437601D01*
X227036Y436529D02*
X228376Y437601D01*
X228376Y432775D01*
X227036Y432775D02*
X229717Y432775D01*
D10*
X74110Y252250D02*
X74110Y192250D01*
X74110Y252250D02*
X14110Y252250D01*
X14110Y192250D01*
X74110Y192250D01*
X26610Y222250D02*
X26615Y222679D01*
X26631Y223109D01*
X26657Y223537D01*
X26694Y223965D01*
X26742Y224392D01*
X26799Y224818D01*
X26868Y225242D01*
X26946Y225664D01*
X27035Y226084D01*
X27134Y226502D01*
X27244Y226917D01*
X27364Y227330D01*
X27493Y227739D01*
X27633Y228146D01*
X27783Y228548D01*
X27942Y228947D01*
X28111Y229342D01*
X28290Y229732D01*
X28479Y230118D01*
X28676Y230499D01*
X28883Y230876D01*
X29100Y231247D01*
X29325Y231612D01*
X29559Y231972D01*
X29802Y232327D01*
X30054Y232675D01*
X30314Y233017D01*
X30582Y233352D01*
X30859Y233681D01*
X31143Y234002D01*
X31436Y234317D01*
X31736Y234624D01*
X32043Y234924D01*
X32358Y235217D01*
X32679Y235501D01*
X33008Y235778D01*
X33343Y236046D01*
X33685Y236306D01*
X34033Y236558D01*
X34388Y236801D01*
X34748Y237035D01*
X35113Y237260D01*
X35484Y237477D01*
X35861Y237684D01*
X36242Y237881D01*
X36628Y238070D01*
X37018Y238249D01*
X37413Y238418D01*
X37812Y238577D01*
X38214Y238727D01*
X38621Y238867D01*
X39030Y238996D01*
X39443Y239116D01*
X39858Y239226D01*
X40276Y239325D01*
X40696Y239414D01*
X41118Y239492D01*
X41542Y239561D01*
X41968Y239618D01*
X42395Y239666D01*
X42823Y239703D01*
X43251Y239729D01*
X43681Y239745D01*
X44110Y239750D01*
X44539Y239745D01*
X44969Y239729D01*
X45397Y239703D01*
X45825Y239666D01*
X46252Y239618D01*
X46678Y239561D01*
X47102Y239492D01*
X47524Y239414D01*
X47944Y239325D01*
X48362Y239226D01*
X48777Y239116D01*
X49190Y238996D01*
X49599Y238867D01*
X50006Y238727D01*
X50408Y238577D01*
X50807Y238418D01*
X51202Y238249D01*
X51592Y238070D01*
X51978Y237881D01*
X52359Y237684D01*
X52736Y237477D01*
X53107Y237260D01*
X53472Y237035D01*
X53832Y236801D01*
X54187Y236558D01*
X54535Y236306D01*
X54877Y236046D01*
X55212Y235778D01*
X55541Y235501D01*
X55862Y235217D01*
X56177Y234924D01*
X56484Y234624D01*
X56784Y234317D01*
X57077Y234002D01*
X57361Y233681D01*
X57638Y233352D01*
X57906Y233017D01*
X58166Y232675D01*
X58418Y232327D01*
X58661Y231972D01*
X58895Y231612D01*
X59120Y231247D01*
X59337Y230876D01*
X59544Y230499D01*
X59741Y230118D01*
X59930Y229732D01*
X60109Y229342D01*
X60278Y228947D01*
X60437Y228548D01*
X60587Y228146D01*
X60727Y227739D01*
X60856Y227330D01*
X60976Y226917D01*
X61086Y226502D01*
X61185Y226084D01*
X61274Y225664D01*
X61352Y225242D01*
X61421Y224818D01*
X61478Y224392D01*
X61526Y223965D01*
X61563Y223537D01*
X61589Y223109D01*
X61605Y222679D01*
X61610Y222250D01*
X61605Y221821D01*
X61589Y221391D01*
X61563Y220963D01*
X61526Y220535D01*
X61478Y220108D01*
X61421Y219682D01*
X61352Y219258D01*
X61274Y218836D01*
X61185Y218416D01*
X61086Y217998D01*
X60976Y217583D01*
X60856Y217170D01*
X60727Y216761D01*
X60587Y216354D01*
X60437Y215952D01*
X60278Y215553D01*
X60109Y215158D01*
X59930Y214768D01*
X59741Y214382D01*
X59544Y214001D01*
X59337Y213624D01*
X59120Y213253D01*
X58895Y212888D01*
X58661Y212528D01*
X58418Y212173D01*
X58166Y211825D01*
X57906Y211483D01*
X57638Y211148D01*
X57361Y210819D01*
X57077Y210498D01*
X56784Y210183D01*
X56484Y209876D01*
X56177Y209576D01*
X55862Y209283D01*
X55541Y208999D01*
X55212Y208722D01*
X54877Y208454D01*
X54535Y208194D01*
X54187Y207942D01*
X53832Y207699D01*
X53472Y207465D01*
X53107Y207240D01*
X52736Y207023D01*
X52359Y206816D01*
X51978Y206619D01*
X51592Y206430D01*
X51202Y206251D01*
X50807Y206082D01*
X50408Y205923D01*
X50006Y205773D01*
X49599Y205633D01*
X49190Y205504D01*
X48777Y205384D01*
X48362Y205274D01*
X47944Y205175D01*
X47524Y205086D01*
X47102Y205008D01*
X46678Y204939D01*
X46252Y204882D01*
X45825Y204834D01*
X45397Y204797D01*
X44969Y204771D01*
X44539Y204755D01*
X44110Y204750D01*
X43681Y204755D01*
X43251Y204771D01*
X42823Y204797D01*
X42395Y204834D01*
X41968Y204882D01*
X41542Y204939D01*
X41118Y205008D01*
X40696Y205086D01*
X40276Y205175D01*
X39858Y205274D01*
X39443Y205384D01*
X39030Y205504D01*
X38621Y205633D01*
X38214Y205773D01*
X37812Y205923D01*
X37413Y206082D01*
X37018Y206251D01*
X36628Y206430D01*
X36242Y206619D01*
X35861Y206816D01*
X35484Y207023D01*
X35113Y207240D01*
X34748Y207465D01*
X34388Y207699D01*
X34033Y207942D01*
X33685Y208194D01*
X33343Y208454D01*
X33008Y208722D01*
X32679Y208999D01*
X32358Y209283D01*
X32043Y209576D01*
X31736Y209876D01*
X31436Y210183D01*
X31143Y210498D01*
X30859Y210819D01*
X30582Y211148D01*
X30314Y211483D01*
X30054Y211825D01*
X29802Y212173D01*
X29559Y212528D01*
X29325Y212888D01*
X29100Y213253D01*
X28883Y213624D01*
X28676Y214001D01*
X28479Y214382D01*
X28290Y214768D01*
X28111Y215158D01*
X27942Y215553D01*
X27783Y215952D01*
X27633Y216354D01*
X27493Y216761D01*
X27364Y217170D01*
X27244Y217583D01*
X27134Y217998D01*
X27035Y218416D01*
X26946Y218836D01*
X26868Y219258D01*
X26799Y219682D01*
X26742Y220108D01*
X26694Y220535D01*
X26657Y220963D01*
X26631Y221391D01*
X26615Y221821D01*
X26610Y222250D01*
D12*
X11725Y216392D02*
X11723Y216457D01*
X11717Y216521D01*
X11707Y216585D01*
X11694Y216649D01*
X11676Y216711D01*
X11655Y216772D01*
X11631Y216832D01*
X11602Y216890D01*
X11570Y216947D01*
X11535Y217001D01*
X11497Y217053D01*
X11455Y217103D01*
X11411Y217150D01*
X11364Y217194D01*
X11314Y217236D01*
X11262Y217274D01*
X11208Y217309D01*
X11151Y217341D01*
X11093Y217370D01*
X11033Y217394D01*
X10972Y217415D01*
X10910Y217433D01*
X10846Y217446D01*
X10782Y217456D01*
X10718Y217462D01*
X10653Y217464D01*
X11725Y216392D02*
X11723Y216298D01*
X11717Y216204D01*
X11707Y216110D01*
X11694Y216017D01*
X11676Y215925D01*
X11655Y215833D01*
X11630Y215742D01*
X11601Y215652D01*
X11568Y215564D01*
X11532Y215477D01*
X11492Y215392D01*
X11449Y215308D01*
X11402Y215227D01*
X11352Y215147D01*
X11299Y215069D01*
X11242Y214994D01*
X11183Y214921D01*
X11120Y214851D01*
X11055Y214783D01*
X7971Y214918D02*
X7906Y214920D01*
X7842Y214926D01*
X7778Y214936D01*
X7714Y214949D01*
X7652Y214967D01*
X7591Y214988D01*
X7531Y215012D01*
X7473Y215041D01*
X7416Y215073D01*
X7362Y215108D01*
X7310Y215146D01*
X7260Y215188D01*
X7213Y215232D01*
X7169Y215279D01*
X7127Y215329D01*
X7089Y215381D01*
X7054Y215435D01*
X7022Y215492D01*
X6993Y215550D01*
X6969Y215610D01*
X6948Y215671D01*
X6930Y215733D01*
X6917Y215797D01*
X6907Y215861D01*
X6901Y215925D01*
X6899Y215990D01*
X6901Y216076D01*
X6906Y216162D01*
X6916Y216248D01*
X6929Y216333D01*
X6945Y216418D01*
X6965Y216502D01*
X6989Y216585D01*
X7016Y216667D01*
X7047Y216747D01*
X7081Y216827D01*
X7119Y216904D01*
X7160Y216980D01*
X7204Y217054D01*
X7251Y217127D01*
X7301Y217197D01*
X8909Y215453D02*
X8876Y215400D01*
X8839Y215349D01*
X8800Y215300D01*
X8758Y215253D01*
X8713Y215209D01*
X8666Y215168D01*
X8617Y215129D01*
X8565Y215093D01*
X8511Y215060D01*
X8456Y215031D01*
X8399Y215005D01*
X8340Y214982D01*
X8281Y214962D01*
X8220Y214946D01*
X8159Y214933D01*
X8096Y214924D01*
X8034Y214919D01*
X7971Y214917D01*
X9715Y216928D02*
X9748Y216981D01*
X9785Y217032D01*
X9824Y217081D01*
X9866Y217128D01*
X9911Y217172D01*
X9958Y217213D01*
X10007Y217252D01*
X10059Y217288D01*
X10113Y217321D01*
X10168Y217350D01*
X10225Y217376D01*
X10284Y217399D01*
X10343Y217419D01*
X10404Y217435D01*
X10465Y217448D01*
X10528Y217457D01*
X10590Y217462D01*
X10653Y217464D01*
X9714Y216928D02*
X8910Y215453D01*
X6899Y220014D02*
X11725Y221086D01*
X8508Y222159D01*
X11725Y223231D01*
X6899Y224303D01*
X6899Y228108D02*
X10653Y227036D01*
X10653Y229717D01*
X9580Y228913D02*
X11725Y228913D01*
X30825Y430455D02*
X30825Y435281D01*
X30825Y433136D02*
X33506Y433136D01*
X33506Y435281D02*
X33506Y430455D01*
X36494Y434209D02*
X37835Y435281D01*
X37835Y430455D01*
X39175Y430455D02*
X36494Y430455D01*
X405325Y430455D02*
X405325Y435281D01*
X405325Y433136D02*
X408006Y433136D01*
X408006Y435281D02*
X408006Y430455D01*
X412469Y435281D02*
X412537Y435279D01*
X412604Y435273D01*
X412671Y435264D01*
X412738Y435251D01*
X412803Y435234D01*
X412868Y435213D01*
X412931Y435189D01*
X412993Y435161D01*
X413053Y435130D01*
X413111Y435096D01*
X413167Y435058D01*
X413222Y435018D01*
X413273Y434974D01*
X413322Y434927D01*
X413369Y434878D01*
X413413Y434827D01*
X413453Y434772D01*
X413491Y434716D01*
X413525Y434658D01*
X413556Y434598D01*
X413584Y434536D01*
X413608Y434473D01*
X413629Y434408D01*
X413646Y434343D01*
X413659Y434276D01*
X413668Y434209D01*
X413674Y434142D01*
X413676Y434074D01*
X412469Y435281D02*
X412391Y435279D01*
X412313Y435273D01*
X412236Y435263D01*
X412159Y435250D01*
X412083Y435232D01*
X412008Y435211D01*
X411934Y435186D01*
X411862Y435157D01*
X411791Y435125D01*
X411722Y435089D01*
X411654Y435050D01*
X411589Y435007D01*
X411526Y434961D01*
X411465Y434912D01*
X411407Y434860D01*
X411352Y434805D01*
X411299Y434748D01*
X411250Y434688D01*
X411203Y434625D01*
X411160Y434561D01*
X411120Y434494D01*
X411083Y434425D01*
X411050Y434354D01*
X411020Y434282D01*
X410994Y434209D01*
X413273Y433136D02*
X413322Y433185D01*
X413369Y433237D01*
X413412Y433292D01*
X413453Y433349D01*
X413491Y433408D01*
X413525Y433469D01*
X413556Y433532D01*
X413584Y433596D01*
X413608Y433662D01*
X413628Y433728D01*
X413645Y433796D01*
X413658Y433865D01*
X413667Y433934D01*
X413673Y434004D01*
X413675Y434074D01*
X413273Y433136D02*
X410994Y430455D01*
X413675Y430455D01*
X30825Y60781D02*
X30825Y55955D01*
X30825Y58636D02*
X33506Y58636D01*
X33506Y60781D02*
X33506Y55955D01*
X36494Y55955D02*
X37835Y55955D01*
X37906Y55957D01*
X37978Y55963D01*
X38048Y55972D01*
X38118Y55985D01*
X38188Y56002D01*
X38256Y56023D01*
X38323Y56047D01*
X38389Y56075D01*
X38453Y56106D01*
X38516Y56141D01*
X38576Y56179D01*
X38635Y56220D01*
X38691Y56264D01*
X38745Y56311D01*
X38796Y56360D01*
X38844Y56413D01*
X38890Y56468D01*
X38932Y56525D01*
X38972Y56585D01*
X39008Y56646D01*
X39041Y56710D01*
X39070Y56775D01*
X39096Y56841D01*
X39119Y56909D01*
X39138Y56978D01*
X39153Y57048D01*
X39164Y57118D01*
X39172Y57189D01*
X39176Y57260D01*
X39176Y57332D01*
X39172Y57403D01*
X39164Y57474D01*
X39153Y57544D01*
X39138Y57614D01*
X39119Y57683D01*
X39096Y57751D01*
X39070Y57817D01*
X39041Y57882D01*
X39008Y57946D01*
X38972Y58007D01*
X38932Y58067D01*
X38890Y58124D01*
X38844Y58179D01*
X38796Y58232D01*
X38745Y58281D01*
X38691Y58328D01*
X38635Y58372D01*
X38576Y58413D01*
X38516Y58451D01*
X38453Y58486D01*
X38389Y58517D01*
X38323Y58545D01*
X38256Y58569D01*
X38188Y58590D01*
X38118Y58607D01*
X38048Y58620D01*
X37978Y58629D01*
X37906Y58635D01*
X37835Y58637D01*
X38103Y60781D02*
X36494Y60781D01*
X38103Y60781D02*
X38168Y60779D01*
X38232Y60773D01*
X38296Y60763D01*
X38360Y60750D01*
X38422Y60732D01*
X38483Y60711D01*
X38543Y60687D01*
X38601Y60658D01*
X38658Y60626D01*
X38712Y60591D01*
X38764Y60553D01*
X38814Y60511D01*
X38861Y60467D01*
X38905Y60420D01*
X38947Y60370D01*
X38985Y60318D01*
X39020Y60264D01*
X39052Y60207D01*
X39081Y60149D01*
X39105Y60089D01*
X39126Y60028D01*
X39144Y59966D01*
X39157Y59902D01*
X39167Y59838D01*
X39173Y59774D01*
X39175Y59709D01*
X39173Y59644D01*
X39167Y59580D01*
X39157Y59516D01*
X39144Y59452D01*
X39126Y59390D01*
X39105Y59329D01*
X39081Y59269D01*
X39052Y59211D01*
X39020Y59154D01*
X38985Y59100D01*
X38947Y59048D01*
X38905Y58998D01*
X38861Y58951D01*
X38814Y58907D01*
X38764Y58865D01*
X38712Y58827D01*
X38658Y58792D01*
X38601Y58760D01*
X38543Y58731D01*
X38483Y58707D01*
X38422Y58686D01*
X38360Y58668D01*
X38296Y58655D01*
X38232Y58645D01*
X38168Y58639D01*
X38103Y58637D01*
X38103Y58636D02*
X37030Y58636D01*
X405325Y60781D02*
X405325Y55955D01*
X405325Y58636D02*
X408006Y58636D01*
X408006Y60781D02*
X408006Y55955D01*
X410994Y57027D02*
X412067Y60781D01*
X410994Y57027D02*
X413675Y57027D01*
X412871Y58100D02*
X412871Y55955D01*
M02*
