G04 EAGLE Gerber RS-274X export*
G75*
%MOMM*%
%FSLAX34Y34*%
%LPD*%
%INSolderpaste Top*%
%IPPOS*%
%AMOC8*
5,1,8,0,0,1.08239X$1,22.5*%
G01*
%ADD10R,1.651000X1.000000*%
%ADD11R,1.550000X1.300000*%
%ADD12R,1.300000X1.550000*%


D10*
X168020Y286250D03*
X116480Y286250D03*
X116480Y318250D03*
X168020Y318250D03*
X248020Y286250D03*
X196480Y286250D03*
X196480Y318250D03*
X248020Y318250D03*
X328020Y286250D03*
X276480Y286250D03*
X276480Y318250D03*
X328020Y318250D03*
X168020Y206250D03*
X116480Y206250D03*
X116480Y238250D03*
X168020Y238250D03*
X248020Y206250D03*
X196480Y206250D03*
X196480Y238250D03*
X248020Y238250D03*
X328020Y206250D03*
X276480Y206250D03*
X276480Y238250D03*
X328020Y238250D03*
X168020Y126250D03*
X116480Y126250D03*
X116480Y158250D03*
X168020Y158250D03*
X248020Y126250D03*
X196480Y126250D03*
X196480Y158250D03*
X248020Y158250D03*
X328020Y126250D03*
X276480Y126250D03*
X276480Y158250D03*
X328020Y158250D03*
D11*
X262000Y66610D03*
X182500Y66610D03*
X262000Y21610D03*
X182500Y21610D03*
D12*
X377890Y262000D03*
X377890Y182500D03*
X422890Y262000D03*
X422890Y182500D03*
D11*
X182500Y377890D03*
X262000Y377890D03*
X182500Y422890D03*
X262000Y422890D03*
D12*
X66610Y182500D03*
X66610Y262000D03*
X21610Y182500D03*
X21610Y262000D03*
M02*
