G04 EAGLE Gerber RS-274X export*
G75*
%MOMM*%
%FSLAX34Y34*%
%LPD*%
%INBottom Copper*%
%IPPOS*%
%AMOC8*
5,1,8,0,0,1.08239X$1,22.5*%
G01*
%ADD10R,1.200000X2.000000*%
%ADD11R,0.600000X1.350000*%
%ADD12R,1.100000X1.000000*%
%ADD13R,1.000000X1.100000*%
%ADD14C,1.879600*%
%ADD15C,1.006400*%
%ADD16C,0.406400*%

G36*
X394092Y10925D02*
X394092Y10925D01*
X394112Y10923D01*
X394232Y10945D01*
X394354Y10963D01*
X394372Y10971D01*
X394391Y10974D01*
X394501Y11028D01*
X394614Y11079D01*
X394629Y11091D01*
X394646Y11100D01*
X394737Y11183D01*
X394831Y11262D01*
X394841Y11279D01*
X394856Y11292D01*
X394920Y11397D01*
X394988Y11499D01*
X394994Y11518D01*
X395004Y11534D01*
X395037Y11653D01*
X395074Y11770D01*
X395074Y11790D01*
X395080Y11809D01*
X395078Y11931D01*
X395081Y12054D01*
X395076Y12073D01*
X395076Y12093D01*
X395040Y12211D01*
X395009Y12329D01*
X394999Y12346D01*
X394994Y12365D01*
X394927Y12469D01*
X394864Y12574D01*
X394850Y12587D01*
X394839Y12604D01*
X394782Y12651D01*
X394657Y12768D01*
X394611Y12792D01*
X394580Y12817D01*
X393124Y13658D01*
X388158Y18624D01*
X384647Y24705D01*
X382829Y31489D01*
X382829Y38511D01*
X384647Y45295D01*
X388158Y51376D01*
X393124Y56342D01*
X399205Y59853D01*
X405989Y61671D01*
X413011Y61671D01*
X419795Y59853D01*
X425876Y56342D01*
X430842Y51376D01*
X431683Y49920D01*
X431695Y49904D01*
X431703Y49886D01*
X431782Y49793D01*
X431858Y49696D01*
X431874Y49684D01*
X431887Y49669D01*
X431989Y49601D01*
X432088Y49529D01*
X432107Y49523D01*
X432123Y49512D01*
X432240Y49475D01*
X432356Y49433D01*
X432376Y49432D01*
X432394Y49426D01*
X432517Y49423D01*
X432640Y49415D01*
X432659Y49419D01*
X432678Y49419D01*
X432797Y49450D01*
X432917Y49476D01*
X432935Y49486D01*
X432953Y49491D01*
X433059Y49553D01*
X433167Y49612D01*
X433181Y49626D01*
X433198Y49636D01*
X433282Y49725D01*
X433369Y49812D01*
X433379Y49829D01*
X433392Y49843D01*
X433448Y49953D01*
X433508Y50060D01*
X433513Y50079D01*
X433522Y50096D01*
X433534Y50169D01*
X433573Y50337D01*
X433571Y50388D01*
X433577Y50427D01*
X433577Y394073D01*
X433575Y394092D01*
X433577Y394112D01*
X433555Y394232D01*
X433537Y394354D01*
X433529Y394372D01*
X433526Y394391D01*
X433472Y394501D01*
X433421Y394614D01*
X433409Y394629D01*
X433400Y394646D01*
X433317Y394737D01*
X433238Y394831D01*
X433221Y394841D01*
X433208Y394856D01*
X433103Y394920D01*
X433001Y394988D01*
X432982Y394994D01*
X432966Y395004D01*
X432847Y395037D01*
X432730Y395074D01*
X432710Y395074D01*
X432691Y395080D01*
X432569Y395078D01*
X432446Y395081D01*
X432427Y395076D01*
X432407Y395076D01*
X432289Y395040D01*
X432171Y395009D01*
X432154Y394999D01*
X432135Y394994D01*
X432031Y394927D01*
X431926Y394864D01*
X431913Y394850D01*
X431896Y394839D01*
X431849Y394782D01*
X431732Y394657D01*
X431708Y394611D01*
X431683Y394580D01*
X430842Y393124D01*
X425876Y388158D01*
X419795Y384647D01*
X413011Y382829D01*
X405989Y382829D01*
X399205Y384647D01*
X393124Y388158D01*
X388158Y393124D01*
X384647Y399205D01*
X382829Y405989D01*
X382829Y413011D01*
X384647Y419795D01*
X388158Y425876D01*
X393124Y430842D01*
X394580Y431683D01*
X394596Y431695D01*
X394614Y431703D01*
X394707Y431782D01*
X394804Y431858D01*
X394816Y431874D01*
X394831Y431887D01*
X394899Y431989D01*
X394971Y432088D01*
X394977Y432107D01*
X394988Y432123D01*
X395025Y432240D01*
X395067Y432356D01*
X395068Y432376D01*
X395074Y432394D01*
X395077Y432517D01*
X395085Y432640D01*
X395081Y432659D01*
X395081Y432678D01*
X395050Y432797D01*
X395024Y432917D01*
X395014Y432935D01*
X395009Y432953D01*
X394947Y433059D01*
X394888Y433167D01*
X394874Y433181D01*
X394864Y433198D01*
X394775Y433282D01*
X394688Y433369D01*
X394671Y433379D01*
X394657Y433392D01*
X394547Y433448D01*
X394440Y433508D01*
X394421Y433513D01*
X394404Y433522D01*
X394331Y433534D01*
X394163Y433573D01*
X394112Y433571D01*
X394073Y433577D01*
X50427Y433577D01*
X50408Y433575D01*
X50388Y433577D01*
X50267Y433555D01*
X50146Y433537D01*
X50128Y433529D01*
X50109Y433526D01*
X49998Y433471D01*
X49886Y433421D01*
X49872Y433409D01*
X49854Y433400D01*
X49763Y433317D01*
X49669Y433238D01*
X49659Y433221D01*
X49644Y433208D01*
X49580Y433103D01*
X49512Y433001D01*
X49506Y432982D01*
X49496Y432966D01*
X49463Y432847D01*
X49426Y432730D01*
X49426Y432710D01*
X49420Y432691D01*
X49422Y432569D01*
X49419Y432446D01*
X49424Y432427D01*
X49424Y432407D01*
X49460Y432289D01*
X49491Y432171D01*
X49501Y432154D01*
X49506Y432135D01*
X49573Y432032D01*
X49636Y431926D01*
X49650Y431913D01*
X49661Y431896D01*
X49718Y431850D01*
X49843Y431732D01*
X49889Y431708D01*
X49920Y431683D01*
X51376Y430842D01*
X56342Y425876D01*
X59853Y419795D01*
X61671Y413011D01*
X61671Y405989D01*
X59853Y399205D01*
X56342Y393124D01*
X51376Y388158D01*
X45295Y384647D01*
X38511Y382829D01*
X31489Y382829D01*
X24705Y384647D01*
X18624Y388158D01*
X13658Y393124D01*
X12817Y394580D01*
X12805Y394596D01*
X12797Y394614D01*
X12718Y394707D01*
X12642Y394804D01*
X12626Y394816D01*
X12613Y394831D01*
X12511Y394899D01*
X12412Y394971D01*
X12393Y394977D01*
X12377Y394988D01*
X12260Y395025D01*
X12144Y395067D01*
X12124Y395068D01*
X12106Y395074D01*
X11983Y395077D01*
X11860Y395085D01*
X11841Y395081D01*
X11822Y395081D01*
X11703Y395050D01*
X11583Y395024D01*
X11565Y395014D01*
X11547Y395009D01*
X11441Y394947D01*
X11333Y394888D01*
X11319Y394874D01*
X11302Y394864D01*
X11218Y394775D01*
X11131Y394688D01*
X11121Y394671D01*
X11108Y394657D01*
X11052Y394547D01*
X10992Y394440D01*
X10987Y394421D01*
X10978Y394404D01*
X10966Y394331D01*
X10927Y394163D01*
X10929Y394112D01*
X10923Y394073D01*
X10923Y50427D01*
X10925Y50408D01*
X10923Y50388D01*
X10945Y50268D01*
X10963Y50146D01*
X10971Y50128D01*
X10974Y50109D01*
X11028Y49999D01*
X11079Y49886D01*
X11091Y49871D01*
X11100Y49854D01*
X11183Y49763D01*
X11262Y49669D01*
X11279Y49659D01*
X11292Y49644D01*
X11397Y49580D01*
X11499Y49512D01*
X11518Y49506D01*
X11534Y49496D01*
X11653Y49463D01*
X11770Y49426D01*
X11790Y49426D01*
X11809Y49420D01*
X11931Y49422D01*
X12054Y49419D01*
X12073Y49424D01*
X12093Y49424D01*
X12211Y49460D01*
X12329Y49491D01*
X12346Y49501D01*
X12365Y49506D01*
X12469Y49573D01*
X12574Y49636D01*
X12587Y49650D01*
X12604Y49661D01*
X12651Y49718D01*
X12768Y49843D01*
X12792Y49889D01*
X12817Y49920D01*
X13658Y51376D01*
X18624Y56342D01*
X24705Y59853D01*
X31489Y61671D01*
X38511Y61671D01*
X45295Y59853D01*
X51376Y56342D01*
X56342Y51376D01*
X59853Y45295D01*
X61671Y38511D01*
X61671Y31489D01*
X59853Y24705D01*
X56342Y18624D01*
X51376Y13658D01*
X49920Y12817D01*
X49904Y12805D01*
X49886Y12797D01*
X49793Y12718D01*
X49696Y12642D01*
X49684Y12626D01*
X49669Y12613D01*
X49601Y12511D01*
X49529Y12412D01*
X49523Y12393D01*
X49512Y12377D01*
X49475Y12260D01*
X49433Y12144D01*
X49432Y12124D01*
X49426Y12106D01*
X49423Y11983D01*
X49415Y11860D01*
X49419Y11841D01*
X49419Y11822D01*
X49450Y11703D01*
X49476Y11583D01*
X49486Y11565D01*
X49491Y11547D01*
X49553Y11441D01*
X49612Y11333D01*
X49626Y11319D01*
X49636Y11302D01*
X49725Y11218D01*
X49812Y11131D01*
X49829Y11121D01*
X49843Y11108D01*
X49953Y11052D01*
X50060Y10992D01*
X50079Y10987D01*
X50096Y10978D01*
X50169Y10966D01*
X50337Y10927D01*
X50388Y10929D01*
X50427Y10923D01*
X394073Y10923D01*
X394092Y10925D01*
G37*
%LPC*%
G36*
X209393Y85919D02*
X209393Y85919D01*
X206423Y87150D01*
X204150Y89423D01*
X202919Y92393D01*
X202919Y95607D01*
X204150Y98577D01*
X205622Y100050D01*
X205674Y100120D01*
X205734Y100183D01*
X205760Y100233D01*
X205793Y100277D01*
X205824Y100359D01*
X205864Y100437D01*
X205872Y100484D01*
X205894Y100543D01*
X205906Y100690D01*
X205919Y100768D01*
X205919Y193511D01*
X206693Y195378D01*
X211872Y200557D01*
X211924Y200627D01*
X211984Y200691D01*
X212010Y200740D01*
X212043Y200784D01*
X212074Y200866D01*
X212114Y200944D01*
X212122Y200992D01*
X212144Y201050D01*
X212156Y201198D01*
X212169Y201275D01*
X212169Y201404D01*
X212161Y201462D01*
X212163Y201520D01*
X212141Y201602D01*
X212129Y201686D01*
X212106Y201739D01*
X212091Y201795D01*
X212048Y201868D01*
X212013Y201945D01*
X211975Y201990D01*
X211946Y202040D01*
X211884Y202098D01*
X211830Y202162D01*
X211781Y202194D01*
X211738Y202234D01*
X211663Y202273D01*
X211593Y202320D01*
X211537Y202337D01*
X211485Y202364D01*
X211417Y202375D01*
X211322Y202405D01*
X211222Y202408D01*
X211154Y202419D01*
X139489Y202419D01*
X137622Y203193D01*
X136050Y204765D01*
X92693Y248122D01*
X92623Y248174D01*
X92559Y248234D01*
X92510Y248260D01*
X92466Y248293D01*
X92384Y248324D01*
X92306Y248364D01*
X92258Y248372D01*
X92200Y248394D01*
X92052Y248406D01*
X91975Y248419D01*
X89893Y248419D01*
X86923Y249650D01*
X84650Y251923D01*
X83419Y254893D01*
X83419Y258107D01*
X84650Y261077D01*
X86923Y263350D01*
X89893Y264581D01*
X93107Y264581D01*
X96077Y263350D01*
X98350Y261077D01*
X99581Y258107D01*
X99581Y256025D01*
X99593Y255938D01*
X99596Y255851D01*
X99613Y255798D01*
X99621Y255744D01*
X99656Y255664D01*
X99683Y255580D01*
X99711Y255541D01*
X99737Y255484D01*
X99833Y255371D01*
X99878Y255307D01*
X142307Y212878D01*
X142377Y212826D01*
X142441Y212766D01*
X142490Y212740D01*
X142534Y212707D01*
X142616Y212676D01*
X142694Y212636D01*
X142742Y212628D01*
X142800Y212606D01*
X142948Y212594D01*
X143025Y212581D01*
X200407Y212581D01*
X200436Y212585D01*
X200465Y212582D01*
X200576Y212605D01*
X200688Y212621D01*
X200715Y212633D01*
X200744Y212638D01*
X200844Y212690D01*
X200948Y212737D01*
X200970Y212756D01*
X200996Y212769D01*
X201078Y212847D01*
X201165Y212920D01*
X201181Y212945D01*
X201202Y212965D01*
X201259Y213063D01*
X201322Y213157D01*
X201331Y213185D01*
X201346Y213210D01*
X201374Y213320D01*
X201408Y213428D01*
X201409Y213457D01*
X201416Y213486D01*
X201412Y213599D01*
X201415Y213712D01*
X201408Y213741D01*
X201407Y213770D01*
X201372Y213878D01*
X201343Y213987D01*
X201328Y214013D01*
X201319Y214041D01*
X201274Y214104D01*
X201201Y214227D01*
X201201Y216154D01*
X201193Y216212D01*
X201195Y216270D01*
X201173Y216352D01*
X201161Y216436D01*
X201138Y216489D01*
X201123Y216545D01*
X201080Y216618D01*
X201045Y216695D01*
X201007Y216740D01*
X200978Y216790D01*
X200916Y216848D01*
X200862Y216912D01*
X200813Y216944D01*
X200770Y216984D01*
X200695Y217023D01*
X200625Y217070D01*
X200569Y217087D01*
X200517Y217114D01*
X200449Y217125D01*
X200354Y217155D01*
X200254Y217158D01*
X200186Y217169D01*
X183239Y217169D01*
X181372Y217943D01*
X142193Y257122D01*
X142123Y257174D01*
X142059Y257234D01*
X142010Y257260D01*
X141966Y257293D01*
X141884Y257324D01*
X141806Y257364D01*
X141758Y257372D01*
X141700Y257394D01*
X141552Y257406D01*
X141475Y257419D01*
X139393Y257419D01*
X136423Y258650D01*
X134150Y260923D01*
X132919Y263893D01*
X132919Y267107D01*
X134150Y270077D01*
X136423Y272350D01*
X139393Y273581D01*
X142607Y273581D01*
X145577Y272350D01*
X147850Y270077D01*
X149081Y267107D01*
X149081Y265025D01*
X149093Y264938D01*
X149096Y264851D01*
X149113Y264798D01*
X149121Y264744D01*
X149156Y264664D01*
X149183Y264581D01*
X149211Y264541D01*
X149237Y264484D01*
X149333Y264371D01*
X149378Y264307D01*
X186057Y227628D01*
X186127Y227576D01*
X186191Y227516D01*
X186240Y227490D01*
X186284Y227457D01*
X186366Y227426D01*
X186444Y227386D01*
X186492Y227378D01*
X186550Y227356D01*
X186698Y227344D01*
X186775Y227331D01*
X200186Y227331D01*
X200244Y227339D01*
X200302Y227337D01*
X200384Y227359D01*
X200468Y227371D01*
X200521Y227394D01*
X200577Y227409D01*
X200650Y227452D01*
X200727Y227487D01*
X200772Y227525D01*
X200822Y227554D01*
X200880Y227616D01*
X200944Y227670D01*
X200976Y227719D01*
X201016Y227762D01*
X201055Y227837D01*
X201102Y227907D01*
X201119Y227963D01*
X201146Y228015D01*
X201157Y228083D01*
X201187Y228178D01*
X201190Y228278D01*
X201201Y228346D01*
X201201Y230263D01*
X202987Y232049D01*
X211154Y232049D01*
X211212Y232057D01*
X211270Y232055D01*
X211352Y232077D01*
X211436Y232089D01*
X211489Y232112D01*
X211545Y232127D01*
X211618Y232170D01*
X211695Y232205D01*
X211740Y232243D01*
X211790Y232272D01*
X211848Y232334D01*
X211912Y232388D01*
X211944Y232437D01*
X211984Y232480D01*
X212023Y232555D01*
X212070Y232625D01*
X212087Y232681D01*
X212114Y232733D01*
X212125Y232801D01*
X212155Y232896D01*
X212158Y232996D01*
X212169Y233064D01*
X212169Y302261D01*
X212943Y304128D01*
X223772Y314957D01*
X223824Y315027D01*
X223884Y315091D01*
X223910Y315140D01*
X223943Y315184D01*
X223974Y315266D01*
X224014Y315344D01*
X224022Y315392D01*
X224044Y315450D01*
X224056Y315598D01*
X224069Y315675D01*
X224069Y341586D01*
X224061Y341644D01*
X224063Y341702D01*
X224041Y341784D01*
X224029Y341868D01*
X224006Y341921D01*
X223991Y341977D01*
X223948Y342050D01*
X223913Y342127D01*
X223875Y342172D01*
X223846Y342222D01*
X223784Y342280D01*
X223730Y342344D01*
X223681Y342376D01*
X223638Y342416D01*
X223563Y342455D01*
X223493Y342502D01*
X223437Y342519D01*
X223385Y342546D01*
X223317Y342557D01*
X223222Y342587D01*
X223122Y342590D01*
X223054Y342601D01*
X222387Y342601D01*
X221009Y343980D01*
X220962Y344015D01*
X220922Y344057D01*
X220849Y344100D01*
X220782Y344151D01*
X220727Y344172D01*
X220676Y344201D01*
X220595Y344222D01*
X220516Y344252D01*
X220457Y344257D01*
X220401Y344271D01*
X220317Y344268D01*
X220233Y344275D01*
X220175Y344264D01*
X220117Y344262D01*
X220037Y344236D01*
X219954Y344220D01*
X219902Y344193D01*
X219846Y344175D01*
X219790Y344135D01*
X219701Y344089D01*
X219629Y344020D01*
X219573Y343980D01*
X219210Y343617D01*
X218631Y343282D01*
X217984Y343109D01*
X214181Y343109D01*
X214181Y349634D01*
X214173Y349692D01*
X214174Y349750D01*
X214153Y349832D01*
X214141Y349915D01*
X214117Y349969D01*
X214103Y350025D01*
X214060Y350098D01*
X214025Y350175D01*
X213987Y350219D01*
X213957Y350270D01*
X213896Y350327D01*
X213841Y350392D01*
X213793Y350424D01*
X213750Y350464D01*
X213675Y350503D01*
X213605Y350549D01*
X213549Y350567D01*
X213497Y350594D01*
X213429Y350605D01*
X213334Y350635D01*
X213234Y350638D01*
X213166Y350649D01*
X212149Y350649D01*
X212149Y350651D01*
X213166Y350651D01*
X213224Y350659D01*
X213282Y350658D01*
X213364Y350679D01*
X213447Y350691D01*
X213501Y350715D01*
X213557Y350729D01*
X213630Y350772D01*
X213707Y350807D01*
X213751Y350845D01*
X213802Y350875D01*
X213859Y350936D01*
X213924Y350991D01*
X213956Y351039D01*
X213996Y351082D01*
X214035Y351157D01*
X214081Y351227D01*
X214099Y351283D01*
X214126Y351335D01*
X214137Y351403D01*
X214167Y351498D01*
X214170Y351598D01*
X214181Y351666D01*
X214181Y358191D01*
X217984Y358191D01*
X218631Y358018D01*
X219210Y357683D01*
X219573Y357320D01*
X219620Y357285D01*
X219660Y357243D01*
X219733Y357200D01*
X219800Y357149D01*
X219855Y357128D01*
X219905Y357099D01*
X219987Y357078D01*
X220066Y357048D01*
X220124Y357043D01*
X220181Y357029D01*
X220265Y357032D01*
X220349Y357025D01*
X220406Y357036D01*
X220465Y357038D01*
X220545Y357064D01*
X220628Y357080D01*
X220680Y357107D01*
X220735Y357125D01*
X220792Y357166D01*
X220880Y357211D01*
X220952Y357280D01*
X221009Y357320D01*
X222387Y358699D01*
X235913Y358699D01*
X237704Y356907D01*
X237707Y356888D01*
X237705Y356830D01*
X237727Y356748D01*
X237739Y356664D01*
X237762Y356611D01*
X237777Y356555D01*
X237820Y356482D01*
X237855Y356405D01*
X237893Y356360D01*
X237922Y356310D01*
X237984Y356252D01*
X238038Y356188D01*
X238087Y356156D01*
X238130Y356116D01*
X238205Y356077D01*
X238275Y356030D01*
X238331Y356013D01*
X238383Y355986D01*
X238451Y355975D01*
X238546Y355945D01*
X238646Y355942D01*
X238714Y355931D01*
X246804Y355931D01*
X246805Y355931D01*
X246807Y355931D01*
X246946Y355951D01*
X247085Y355971D01*
X247087Y355971D01*
X247088Y355971D01*
X247214Y356028D01*
X247345Y356087D01*
X247346Y356088D01*
X247347Y356089D01*
X247453Y356179D01*
X247562Y356270D01*
X247563Y356272D01*
X247564Y356273D01*
X247572Y356286D01*
X247719Y356507D01*
X247729Y356536D01*
X247742Y356557D01*
X248298Y357901D01*
X251799Y361402D01*
X256374Y363297D01*
X261326Y363297D01*
X265901Y361402D01*
X269402Y357901D01*
X271297Y353326D01*
X271297Y348374D01*
X269402Y343799D01*
X265901Y340298D01*
X261326Y338403D01*
X256374Y338403D01*
X251799Y340298D01*
X248298Y343799D01*
X247742Y345143D01*
X247741Y345144D01*
X247741Y345145D01*
X247670Y345264D01*
X247597Y345387D01*
X247596Y345388D01*
X247595Y345390D01*
X247491Y345487D01*
X247391Y345583D01*
X247389Y345583D01*
X247388Y345584D01*
X247262Y345649D01*
X247138Y345713D01*
X247136Y345713D01*
X247135Y345714D01*
X247120Y345716D01*
X246859Y345768D01*
X246829Y345765D01*
X246804Y345769D01*
X238714Y345769D01*
X238656Y345761D01*
X238598Y345763D01*
X238516Y345741D01*
X238432Y345729D01*
X238379Y345706D01*
X238323Y345691D01*
X238250Y345648D01*
X238173Y345613D01*
X238128Y345575D01*
X238078Y345546D01*
X238020Y345484D01*
X237956Y345430D01*
X237924Y345381D01*
X237884Y345338D01*
X237845Y345263D01*
X237798Y345193D01*
X237781Y345137D01*
X237754Y345085D01*
X237743Y345017D01*
X237713Y344922D01*
X237710Y344822D01*
X237699Y344754D01*
X237699Y344387D01*
X235913Y342601D01*
X235246Y342601D01*
X235188Y342593D01*
X235130Y342595D01*
X235048Y342573D01*
X234964Y342561D01*
X234911Y342538D01*
X234855Y342523D01*
X234782Y342480D01*
X234705Y342445D01*
X234660Y342407D01*
X234610Y342378D01*
X234552Y342316D01*
X234488Y342262D01*
X234456Y342213D01*
X234416Y342170D01*
X234377Y342095D01*
X234330Y342025D01*
X234313Y341969D01*
X234286Y341917D01*
X234275Y341849D01*
X234245Y341754D01*
X234242Y341654D01*
X234231Y341586D01*
X234231Y312139D01*
X233457Y310272D01*
X222628Y299443D01*
X222576Y299373D01*
X222516Y299309D01*
X222490Y299260D01*
X222457Y299216D01*
X222426Y299134D01*
X222386Y299056D01*
X222378Y299008D01*
X222356Y298950D01*
X222344Y298802D01*
X222331Y298725D01*
X222331Y253967D01*
X222335Y253938D01*
X222332Y253909D01*
X222355Y253798D01*
X222371Y253685D01*
X222383Y253659D01*
X222388Y253630D01*
X222440Y253529D01*
X222487Y253426D01*
X222506Y253404D01*
X222519Y253378D01*
X222597Y253296D01*
X222670Y253209D01*
X222695Y253193D01*
X222715Y253172D01*
X222813Y253114D01*
X222907Y253051D01*
X222935Y253043D01*
X222960Y253028D01*
X223070Y253000D01*
X223178Y252966D01*
X223208Y252965D01*
X223236Y252958D01*
X223349Y252961D01*
X223462Y252958D01*
X223491Y252966D01*
X223520Y252967D01*
X223628Y253002D01*
X223737Y253030D01*
X223763Y253045D01*
X223791Y253054D01*
X223854Y253100D01*
X223982Y253175D01*
X224025Y253221D01*
X224064Y253249D01*
X232622Y261807D01*
X232674Y261877D01*
X232734Y261941D01*
X232760Y261990D01*
X232793Y262034D01*
X232824Y262116D01*
X232864Y262194D01*
X232872Y262242D01*
X232894Y262300D01*
X232906Y262448D01*
X232919Y262525D01*
X232919Y264607D01*
X234150Y267577D01*
X236423Y269850D01*
X239393Y271081D01*
X242607Y271081D01*
X245577Y269850D01*
X247850Y267577D01*
X249081Y264607D01*
X249081Y261393D01*
X247850Y258423D01*
X245577Y256150D01*
X242607Y254919D01*
X240525Y254919D01*
X240438Y254907D01*
X240351Y254904D01*
X240298Y254887D01*
X240244Y254879D01*
X240164Y254844D01*
X240081Y254817D01*
X240041Y254789D01*
X239984Y254763D01*
X239871Y254667D01*
X239807Y254622D01*
X232628Y247443D01*
X232576Y247373D01*
X232516Y247309D01*
X232490Y247260D01*
X232457Y247216D01*
X232426Y247134D01*
X232386Y247056D01*
X232378Y247008D01*
X232356Y246950D01*
X232344Y246802D01*
X232331Y246725D01*
X232331Y232439D01*
X232338Y232391D01*
X232335Y232342D01*
X232357Y232251D01*
X232371Y232158D01*
X232390Y232113D01*
X232402Y232066D01*
X232448Y231984D01*
X232487Y231898D01*
X232518Y231861D01*
X232542Y231819D01*
X232610Y231753D01*
X232670Y231681D01*
X232711Y231654D01*
X232746Y231620D01*
X232829Y231576D01*
X232907Y231524D01*
X232954Y231509D01*
X232997Y231486D01*
X233089Y231466D01*
X233178Y231438D01*
X233227Y231437D01*
X233275Y231426D01*
X233349Y231434D01*
X233462Y231431D01*
X233546Y231453D01*
X233609Y231459D01*
X233915Y231541D01*
X235751Y231541D01*
X235751Y222734D01*
X235759Y222676D01*
X235757Y222618D01*
X235779Y222536D01*
X235791Y222453D01*
X235814Y222399D01*
X235829Y222343D01*
X235872Y222270D01*
X235881Y222251D01*
X235850Y222205D01*
X235833Y222149D01*
X235806Y222097D01*
X235795Y222029D01*
X235765Y221934D01*
X235762Y221834D01*
X235751Y221766D01*
X235751Y212959D01*
X233915Y212959D01*
X233609Y213041D01*
X233560Y213047D01*
X233514Y213062D01*
X233420Y213065D01*
X233327Y213076D01*
X233278Y213068D01*
X233230Y213069D01*
X233139Y213046D01*
X233046Y213031D01*
X233002Y213010D01*
X232955Y212998D01*
X232874Y212950D01*
X232789Y212910D01*
X232752Y212877D01*
X232710Y212852D01*
X232646Y212784D01*
X232575Y212722D01*
X232549Y212681D01*
X232516Y212645D01*
X232473Y212561D01*
X232422Y212482D01*
X232408Y212435D01*
X232386Y212392D01*
X232374Y212319D01*
X232342Y212210D01*
X232341Y212123D01*
X232331Y212061D01*
X232331Y197018D01*
X232343Y196931D01*
X232346Y196844D01*
X232363Y196791D01*
X232371Y196736D01*
X232406Y196656D01*
X232433Y196573D01*
X232461Y196534D01*
X232487Y196477D01*
X232583Y196363D01*
X232628Y196300D01*
X233850Y195077D01*
X235081Y192107D01*
X235081Y188893D01*
X233850Y185923D01*
X232378Y184450D01*
X232326Y184380D01*
X232266Y184317D01*
X232240Y184267D01*
X232207Y184223D01*
X232176Y184141D01*
X232136Y184063D01*
X232128Y184016D01*
X232106Y183957D01*
X232094Y183810D01*
X232081Y183732D01*
X232081Y148768D01*
X232093Y148681D01*
X232096Y148594D01*
X232113Y148541D01*
X232121Y148486D01*
X232156Y148406D01*
X232183Y148323D01*
X232211Y148284D01*
X232237Y148227D01*
X232333Y148113D01*
X232378Y148050D01*
X233850Y146577D01*
X235081Y143607D01*
X235081Y140393D01*
X233850Y137423D01*
X231577Y135150D01*
X228607Y133919D01*
X225393Y133919D01*
X222423Y135150D01*
X220150Y137423D01*
X218919Y140393D01*
X218919Y143607D01*
X220150Y146577D01*
X221622Y148050D01*
X221674Y148120D01*
X221734Y148183D01*
X221760Y148233D01*
X221793Y148277D01*
X221824Y148359D01*
X221864Y148437D01*
X221872Y148484D01*
X221894Y148543D01*
X221906Y148690D01*
X221919Y148768D01*
X221919Y183732D01*
X221907Y183819D01*
X221904Y183906D01*
X221887Y183959D01*
X221879Y184014D01*
X221844Y184094D01*
X221817Y184177D01*
X221789Y184216D01*
X221763Y184273D01*
X221667Y184387D01*
X221622Y184450D01*
X220150Y185923D01*
X218919Y188893D01*
X218919Y190783D01*
X218915Y190812D01*
X218918Y190841D01*
X218895Y190952D01*
X218879Y191065D01*
X218867Y191091D01*
X218862Y191120D01*
X218809Y191221D01*
X218763Y191324D01*
X218744Y191346D01*
X218731Y191372D01*
X218653Y191455D01*
X218580Y191541D01*
X218555Y191557D01*
X218535Y191578D01*
X218437Y191636D01*
X218343Y191699D01*
X218315Y191707D01*
X218290Y191722D01*
X218180Y191750D01*
X218072Y191784D01*
X218042Y191785D01*
X218014Y191792D01*
X217901Y191789D01*
X217788Y191792D01*
X217759Y191784D01*
X217730Y191783D01*
X217622Y191748D01*
X217513Y191720D01*
X217487Y191705D01*
X217459Y191696D01*
X217395Y191650D01*
X217268Y191575D01*
X217225Y191529D01*
X217186Y191501D01*
X216378Y190693D01*
X216325Y190623D01*
X216266Y190559D01*
X216240Y190510D01*
X216207Y190466D01*
X216176Y190384D01*
X216136Y190306D01*
X216128Y190258D01*
X216106Y190200D01*
X216094Y190052D01*
X216081Y189975D01*
X216081Y131096D01*
X216089Y131038D01*
X216087Y130980D01*
X216109Y130898D01*
X216121Y130814D01*
X216144Y130761D01*
X216159Y130705D01*
X216202Y130632D01*
X216237Y130555D01*
X216275Y130510D01*
X216304Y130460D01*
X216366Y130402D01*
X216420Y130338D01*
X216469Y130306D01*
X216512Y130266D01*
X216587Y130227D01*
X216657Y130180D01*
X216713Y130163D01*
X216765Y130136D01*
X216833Y130125D01*
X216928Y130095D01*
X217028Y130092D01*
X217096Y130081D01*
X283975Y130081D01*
X284062Y130093D01*
X284149Y130096D01*
X284202Y130113D01*
X284256Y130121D01*
X284336Y130156D01*
X284419Y130183D01*
X284459Y130211D01*
X284516Y130237D01*
X284629Y130333D01*
X284693Y130378D01*
X294122Y139807D01*
X294174Y139877D01*
X294234Y139941D01*
X294260Y139990D01*
X294293Y140034D01*
X294324Y140116D01*
X294364Y140194D01*
X294372Y140242D01*
X294394Y140300D01*
X294406Y140448D01*
X294419Y140525D01*
X294419Y142607D01*
X295650Y145577D01*
X297923Y147850D01*
X300893Y149081D01*
X304107Y149081D01*
X307077Y147850D01*
X309350Y145577D01*
X310581Y142607D01*
X310581Y139393D01*
X309350Y136423D01*
X307077Y134150D01*
X304107Y132919D01*
X302025Y132919D01*
X301938Y132907D01*
X301851Y132904D01*
X301798Y132887D01*
X301744Y132879D01*
X301664Y132844D01*
X301581Y132817D01*
X301541Y132789D01*
X301484Y132763D01*
X301371Y132667D01*
X301307Y132622D01*
X289378Y120693D01*
X287511Y119919D01*
X217096Y119919D01*
X217038Y119911D01*
X216980Y119913D01*
X216898Y119891D01*
X216814Y119879D01*
X216761Y119856D01*
X216705Y119841D01*
X216632Y119798D01*
X216555Y119763D01*
X216510Y119725D01*
X216460Y119696D01*
X216402Y119634D01*
X216338Y119580D01*
X216306Y119531D01*
X216266Y119488D01*
X216227Y119413D01*
X216180Y119343D01*
X216163Y119287D01*
X216136Y119235D01*
X216125Y119167D01*
X216095Y119072D01*
X216092Y118972D01*
X216081Y118904D01*
X216081Y100768D01*
X216093Y100681D01*
X216096Y100594D01*
X216113Y100541D01*
X216121Y100486D01*
X216156Y100406D01*
X216183Y100323D01*
X216211Y100284D01*
X216237Y100227D01*
X216333Y100113D01*
X216378Y100050D01*
X217850Y98577D01*
X219081Y95607D01*
X219081Y92393D01*
X217850Y89423D01*
X215577Y87150D01*
X212607Y85919D01*
X209393Y85919D01*
G37*
%LPD*%
%LPC*%
G36*
X41674Y267603D02*
X41674Y267603D01*
X37099Y269498D01*
X33598Y272999D01*
X31703Y277574D01*
X31703Y282526D01*
X33598Y287101D01*
X37099Y290602D01*
X38443Y291158D01*
X38444Y291159D01*
X38445Y291159D01*
X38564Y291230D01*
X38687Y291303D01*
X38688Y291304D01*
X38690Y291305D01*
X38787Y291409D01*
X38883Y291509D01*
X38883Y291511D01*
X38884Y291512D01*
X38949Y291638D01*
X39013Y291762D01*
X39013Y291764D01*
X39014Y291765D01*
X39016Y291780D01*
X39068Y292041D01*
X39065Y292071D01*
X39069Y292096D01*
X39069Y299686D01*
X39061Y299744D01*
X39063Y299802D01*
X39041Y299884D01*
X39029Y299968D01*
X39006Y300021D01*
X38991Y300077D01*
X38948Y300150D01*
X38913Y300227D01*
X38875Y300272D01*
X38846Y300322D01*
X38784Y300380D01*
X38730Y300444D01*
X38681Y300476D01*
X38638Y300516D01*
X38563Y300555D01*
X38493Y300602D01*
X38437Y300619D01*
X38385Y300646D01*
X38317Y300657D01*
X38222Y300687D01*
X38122Y300690D01*
X38054Y300701D01*
X37287Y300701D01*
X35501Y302487D01*
X35501Y316013D01*
X36521Y317032D01*
X36556Y317079D01*
X36598Y317119D01*
X36641Y317192D01*
X36691Y317259D01*
X36712Y317314D01*
X36742Y317364D01*
X36763Y317446D01*
X36793Y317525D01*
X36798Y317583D01*
X36812Y317640D01*
X36809Y317724D01*
X36816Y317808D01*
X36805Y317866D01*
X36803Y317924D01*
X36777Y318004D01*
X36760Y318087D01*
X36733Y318139D01*
X36715Y318195D01*
X36675Y318251D01*
X36629Y318339D01*
X36561Y318412D01*
X36521Y318468D01*
X35501Y319487D01*
X35501Y333013D01*
X37287Y334799D01*
X37454Y334799D01*
X37512Y334807D01*
X37570Y334805D01*
X37652Y334827D01*
X37736Y334839D01*
X37789Y334862D01*
X37845Y334877D01*
X37918Y334920D01*
X37995Y334955D01*
X38040Y334993D01*
X38090Y335022D01*
X38148Y335084D01*
X38212Y335138D01*
X38244Y335187D01*
X38284Y335230D01*
X38323Y335305D01*
X38370Y335375D01*
X38387Y335431D01*
X38414Y335483D01*
X38425Y335551D01*
X38455Y335646D01*
X38458Y335746D01*
X38469Y335814D01*
X38469Y344452D01*
X38469Y344454D01*
X38469Y344456D01*
X38450Y344588D01*
X38429Y344734D01*
X38429Y344735D01*
X38429Y344737D01*
X38372Y344862D01*
X38313Y344993D01*
X38312Y344995D01*
X38311Y344996D01*
X38220Y345103D01*
X38130Y345210D01*
X38128Y345211D01*
X38127Y345212D01*
X38114Y345221D01*
X37893Y345368D01*
X37864Y345377D01*
X37843Y345390D01*
X37099Y345698D01*
X33598Y349199D01*
X31703Y353774D01*
X31703Y358726D01*
X33598Y363301D01*
X37099Y366802D01*
X41674Y368697D01*
X46626Y368697D01*
X51201Y366802D01*
X54702Y363301D01*
X55258Y361957D01*
X55259Y361956D01*
X55259Y361955D01*
X55330Y361836D01*
X55403Y361713D01*
X55404Y361712D01*
X55405Y361710D01*
X55509Y361613D01*
X55609Y361517D01*
X55611Y361517D01*
X55612Y361516D01*
X55738Y361451D01*
X55862Y361387D01*
X55864Y361387D01*
X55865Y361386D01*
X55880Y361384D01*
X56141Y361332D01*
X56171Y361335D01*
X56196Y361331D01*
X110261Y361331D01*
X112128Y360557D01*
X129307Y343378D01*
X129377Y343326D01*
X129441Y343266D01*
X129490Y343240D01*
X129534Y343207D01*
X129616Y343176D01*
X129694Y343136D01*
X129742Y343128D01*
X129800Y343106D01*
X129948Y343094D01*
X130025Y343081D01*
X132107Y343081D01*
X135077Y341850D01*
X137350Y339577D01*
X138581Y336607D01*
X138581Y333393D01*
X137350Y330423D01*
X135077Y328150D01*
X132107Y326919D01*
X128893Y326919D01*
X125923Y328150D01*
X123650Y330423D01*
X122419Y333393D01*
X122419Y335475D01*
X122407Y335562D01*
X122404Y335649D01*
X122387Y335702D01*
X122379Y335756D01*
X122344Y335836D01*
X122317Y335920D01*
X122289Y335959D01*
X122263Y336016D01*
X122167Y336129D01*
X122122Y336193D01*
X107443Y350872D01*
X107373Y350924D01*
X107309Y350984D01*
X107260Y351010D01*
X107216Y351043D01*
X107134Y351074D01*
X107056Y351114D01*
X107008Y351122D01*
X106950Y351144D01*
X106802Y351156D01*
X106725Y351169D01*
X56196Y351169D01*
X56195Y351169D01*
X56193Y351169D01*
X56054Y351149D01*
X55915Y351129D01*
X55913Y351129D01*
X55912Y351129D01*
X55786Y351072D01*
X55655Y351013D01*
X55654Y351012D01*
X55653Y351011D01*
X55545Y350920D01*
X55438Y350830D01*
X55437Y350828D01*
X55436Y350827D01*
X55428Y350814D01*
X55281Y350593D01*
X55271Y350564D01*
X55258Y350543D01*
X54702Y349199D01*
X51201Y345698D01*
X49257Y344893D01*
X49256Y344892D01*
X49255Y344892D01*
X49136Y344822D01*
X49013Y344749D01*
X49012Y344748D01*
X49010Y344747D01*
X48911Y344641D01*
X48817Y344542D01*
X48817Y344541D01*
X48816Y344540D01*
X48751Y344414D01*
X48687Y344289D01*
X48687Y344288D01*
X48686Y344286D01*
X48684Y344271D01*
X48655Y344124D01*
X48645Y344093D01*
X48644Y344071D01*
X48632Y344010D01*
X48635Y343980D01*
X48631Y343955D01*
X48631Y335814D01*
X48639Y335756D01*
X48637Y335698D01*
X48659Y335616D01*
X48671Y335532D01*
X48694Y335479D01*
X48709Y335423D01*
X48752Y335350D01*
X48787Y335273D01*
X48825Y335228D01*
X48854Y335178D01*
X48916Y335120D01*
X48970Y335056D01*
X49019Y335024D01*
X49062Y334984D01*
X49137Y334945D01*
X49207Y334898D01*
X49263Y334881D01*
X49315Y334854D01*
X49383Y334843D01*
X49478Y334813D01*
X49578Y334810D01*
X49646Y334799D01*
X49813Y334799D01*
X51599Y333013D01*
X51599Y319487D01*
X50579Y318468D01*
X50544Y318421D01*
X50502Y318381D01*
X50459Y318308D01*
X50409Y318241D01*
X50388Y318186D01*
X50358Y318136D01*
X50337Y318054D01*
X50307Y317975D01*
X50302Y317917D01*
X50288Y317860D01*
X50291Y317776D01*
X50284Y317692D01*
X50295Y317634D01*
X50297Y317576D01*
X50323Y317496D01*
X50340Y317413D01*
X50367Y317361D01*
X50385Y317305D01*
X50425Y317249D01*
X50471Y317161D01*
X50539Y317088D01*
X50579Y317032D01*
X51599Y316013D01*
X51599Y302487D01*
X49528Y300417D01*
X49476Y300347D01*
X49416Y300283D01*
X49390Y300233D01*
X49357Y300189D01*
X49326Y300108D01*
X49286Y300030D01*
X49278Y299982D01*
X49256Y299924D01*
X49244Y299776D01*
X49231Y299699D01*
X49231Y292096D01*
X49231Y292095D01*
X49231Y292093D01*
X49238Y292044D01*
X49237Y292031D01*
X49243Y292011D01*
X49251Y291954D01*
X49271Y291815D01*
X49271Y291813D01*
X49271Y291812D01*
X49328Y291686D01*
X49387Y291555D01*
X49388Y291554D01*
X49389Y291553D01*
X49480Y291445D01*
X49570Y291338D01*
X49572Y291337D01*
X49573Y291336D01*
X49586Y291328D01*
X49807Y291181D01*
X49836Y291171D01*
X49857Y291158D01*
X51201Y290602D01*
X54702Y287101D01*
X56597Y282526D01*
X56597Y277574D01*
X54702Y272999D01*
X51201Y269498D01*
X46626Y267603D01*
X41674Y267603D01*
G37*
%LPD*%
%LPC*%
G36*
X396174Y78603D02*
X396174Y78603D01*
X391599Y80498D01*
X388098Y83999D01*
X386203Y88574D01*
X386203Y93526D01*
X388098Y98101D01*
X391599Y101602D01*
X392943Y102158D01*
X392944Y102159D01*
X392945Y102159D01*
X393064Y102230D01*
X393187Y102303D01*
X393188Y102304D01*
X393190Y102305D01*
X393287Y102409D01*
X393383Y102509D01*
X393383Y102511D01*
X393384Y102512D01*
X393447Y102635D01*
X393513Y102762D01*
X393513Y102764D01*
X393514Y102765D01*
X393516Y102780D01*
X393568Y103041D01*
X393565Y103071D01*
X393569Y103096D01*
X393569Y110186D01*
X393561Y110244D01*
X393563Y110302D01*
X393541Y110384D01*
X393529Y110468D01*
X393506Y110521D01*
X393491Y110577D01*
X393448Y110650D01*
X393413Y110727D01*
X393375Y110772D01*
X393346Y110822D01*
X393284Y110880D01*
X393230Y110944D01*
X393181Y110976D01*
X393138Y111016D01*
X393063Y111055D01*
X392993Y111102D01*
X392937Y111119D01*
X392885Y111146D01*
X392817Y111157D01*
X392722Y111187D01*
X392622Y111190D01*
X392554Y111201D01*
X392487Y111201D01*
X390701Y112987D01*
X390701Y113654D01*
X390693Y113712D01*
X390695Y113770D01*
X390673Y113852D01*
X390661Y113936D01*
X390638Y113989D01*
X390623Y114045D01*
X390580Y114118D01*
X390545Y114195D01*
X390507Y114240D01*
X390478Y114290D01*
X390416Y114348D01*
X390362Y114412D01*
X390313Y114444D01*
X390270Y114484D01*
X390195Y114523D01*
X390125Y114570D01*
X390069Y114587D01*
X390017Y114614D01*
X389949Y114625D01*
X389854Y114655D01*
X389754Y114658D01*
X389686Y114669D01*
X386239Y114669D01*
X384372Y115443D01*
X379193Y120622D01*
X379123Y120674D01*
X379059Y120734D01*
X379010Y120760D01*
X378966Y120793D01*
X378884Y120824D01*
X378806Y120864D01*
X378758Y120872D01*
X378700Y120894D01*
X378552Y120906D01*
X378475Y120919D01*
X373268Y120919D01*
X373181Y120907D01*
X373094Y120904D01*
X373041Y120887D01*
X372986Y120879D01*
X372906Y120844D01*
X372823Y120817D01*
X372784Y120789D01*
X372727Y120763D01*
X372613Y120667D01*
X372550Y120622D01*
X370577Y118650D01*
X367607Y117419D01*
X364393Y117419D01*
X361423Y118650D01*
X359150Y120923D01*
X357919Y123893D01*
X357919Y127107D01*
X359150Y130077D01*
X361423Y132350D01*
X364393Y133581D01*
X367607Y133581D01*
X370577Y132350D01*
X371550Y131378D01*
X371620Y131326D01*
X371683Y131266D01*
X371733Y131240D01*
X371777Y131207D01*
X371859Y131176D01*
X371937Y131136D01*
X371984Y131128D01*
X372043Y131106D01*
X372190Y131094D01*
X372268Y131081D01*
X382011Y131081D01*
X383878Y130307D01*
X388968Y125217D01*
X388992Y125199D01*
X389011Y125177D01*
X389105Y125114D01*
X389195Y125046D01*
X389223Y125036D01*
X389247Y125019D01*
X389355Y124985D01*
X389461Y124945D01*
X389490Y124943D01*
X389518Y124934D01*
X389632Y124931D01*
X389744Y124921D01*
X389773Y124927D01*
X389802Y124926D01*
X389912Y124955D01*
X390023Y124977D01*
X390049Y124991D01*
X390077Y124998D01*
X390175Y125056D01*
X390275Y125108D01*
X390297Y125128D01*
X390322Y125143D01*
X390399Y125226D01*
X390481Y125304D01*
X390496Y125329D01*
X390516Y125351D01*
X390568Y125452D01*
X390625Y125549D01*
X390632Y125578D01*
X390646Y125604D01*
X390659Y125681D01*
X390695Y125825D01*
X390693Y125887D01*
X390701Y125935D01*
X390701Y126513D01*
X391721Y127532D01*
X391756Y127579D01*
X391798Y127619D01*
X391841Y127692D01*
X391891Y127759D01*
X391912Y127814D01*
X391942Y127864D01*
X391963Y127946D01*
X391993Y128025D01*
X391998Y128083D01*
X392012Y128140D01*
X392009Y128224D01*
X392016Y128308D01*
X392005Y128366D01*
X392003Y128424D01*
X391977Y128504D01*
X391960Y128587D01*
X391933Y128639D01*
X391915Y128695D01*
X391875Y128751D01*
X391829Y128839D01*
X391761Y128912D01*
X391721Y128968D01*
X390701Y129987D01*
X390701Y143513D01*
X392487Y145299D01*
X392654Y145299D01*
X392712Y145307D01*
X392770Y145305D01*
X392852Y145327D01*
X392936Y145339D01*
X392989Y145362D01*
X393045Y145377D01*
X393118Y145420D01*
X393195Y145455D01*
X393240Y145493D01*
X393290Y145522D01*
X393348Y145584D01*
X393412Y145638D01*
X393444Y145687D01*
X393484Y145730D01*
X393523Y145805D01*
X393570Y145875D01*
X393587Y145931D01*
X393614Y145983D01*
X393625Y146051D01*
X393655Y146146D01*
X393658Y146246D01*
X393669Y146314D01*
X393669Y155162D01*
X393669Y155164D01*
X393669Y155166D01*
X393649Y155306D01*
X393629Y155444D01*
X393629Y155445D01*
X393629Y155447D01*
X393572Y155573D01*
X393513Y155703D01*
X393512Y155705D01*
X393511Y155706D01*
X393420Y155813D01*
X393330Y155920D01*
X393328Y155921D01*
X393327Y155922D01*
X393314Y155931D01*
X393093Y156078D01*
X393064Y156087D01*
X393043Y156100D01*
X391599Y156698D01*
X388098Y160199D01*
X386203Y164774D01*
X386203Y169726D01*
X388098Y174301D01*
X391599Y177802D01*
X396174Y179697D01*
X401126Y179697D01*
X405701Y177802D01*
X409202Y174301D01*
X411097Y169726D01*
X411097Y164774D01*
X409202Y160199D01*
X405701Y156698D01*
X404457Y156183D01*
X404456Y156182D01*
X404455Y156182D01*
X404334Y156111D01*
X404213Y156039D01*
X404212Y156038D01*
X404210Y156037D01*
X404113Y155933D01*
X404017Y155832D01*
X404017Y155831D01*
X404016Y155830D01*
X403951Y155703D01*
X403887Y155579D01*
X403887Y155578D01*
X403886Y155576D01*
X403884Y155562D01*
X403832Y155300D01*
X403835Y155270D01*
X403831Y155245D01*
X403831Y146314D01*
X403839Y146256D01*
X403837Y146198D01*
X403859Y146116D01*
X403871Y146032D01*
X403894Y145979D01*
X403909Y145923D01*
X403952Y145850D01*
X403987Y145773D01*
X404025Y145728D01*
X404054Y145678D01*
X404116Y145620D01*
X404170Y145556D01*
X404219Y145524D01*
X404262Y145484D01*
X404337Y145445D01*
X404407Y145398D01*
X404463Y145381D01*
X404515Y145354D01*
X404583Y145343D01*
X404678Y145313D01*
X404778Y145310D01*
X404846Y145299D01*
X405013Y145299D01*
X406799Y143513D01*
X406799Y129987D01*
X405779Y128968D01*
X405744Y128921D01*
X405702Y128881D01*
X405659Y128808D01*
X405609Y128741D01*
X405588Y128686D01*
X405558Y128636D01*
X405537Y128554D01*
X405507Y128475D01*
X405502Y128417D01*
X405488Y128360D01*
X405491Y128276D01*
X405484Y128192D01*
X405495Y128134D01*
X405497Y128076D01*
X405523Y127996D01*
X405540Y127913D01*
X405567Y127861D01*
X405585Y127805D01*
X405625Y127749D01*
X405671Y127661D01*
X405739Y127588D01*
X405779Y127532D01*
X406799Y126513D01*
X406799Y112987D01*
X405013Y111201D01*
X404746Y111201D01*
X404688Y111193D01*
X404630Y111195D01*
X404548Y111173D01*
X404464Y111161D01*
X404411Y111138D01*
X404355Y111123D01*
X404282Y111080D01*
X404205Y111045D01*
X404160Y111007D01*
X404110Y110978D01*
X404052Y110916D01*
X403988Y110862D01*
X403956Y110813D01*
X403916Y110770D01*
X403877Y110695D01*
X403830Y110625D01*
X403813Y110569D01*
X403786Y110517D01*
X403775Y110449D01*
X403745Y110354D01*
X403742Y110254D01*
X403731Y110186D01*
X403731Y103096D01*
X403731Y103095D01*
X403731Y103093D01*
X403751Y102954D01*
X403771Y102815D01*
X403771Y102813D01*
X403771Y102812D01*
X403828Y102686D01*
X403887Y102555D01*
X403888Y102554D01*
X403889Y102553D01*
X403980Y102445D01*
X404070Y102338D01*
X404072Y102337D01*
X404073Y102336D01*
X404086Y102328D01*
X404307Y102181D01*
X404336Y102171D01*
X404357Y102158D01*
X405701Y101602D01*
X409202Y98101D01*
X411097Y93526D01*
X411097Y88574D01*
X409202Y83999D01*
X405701Y80498D01*
X401126Y78603D01*
X396174Y78603D01*
G37*
%LPD*%
%LPC*%
G36*
X349893Y355919D02*
X349893Y355919D01*
X346923Y357150D01*
X344650Y359423D01*
X343419Y362393D01*
X343419Y365607D01*
X344649Y368577D01*
X345676Y369603D01*
X345693Y369627D01*
X345716Y369646D01*
X345732Y369670D01*
X345753Y369690D01*
X345796Y369763D01*
X345846Y369831D01*
X345857Y369858D01*
X345873Y369882D01*
X345882Y369910D01*
X345897Y369936D01*
X345918Y370017D01*
X345948Y370096D01*
X345950Y370126D01*
X345959Y370153D01*
X345960Y370183D01*
X345967Y370211D01*
X345964Y370295D01*
X345971Y370380D01*
X345965Y370409D01*
X345966Y370438D01*
X345959Y370466D01*
X345958Y370495D01*
X345932Y370576D01*
X345915Y370658D01*
X345902Y370685D01*
X345894Y370713D01*
X345880Y370738D01*
X345870Y370766D01*
X345830Y370822D01*
X345784Y370911D01*
X345764Y370932D01*
X345749Y370957D01*
X345704Y371000D01*
X345676Y371039D01*
X339411Y377304D01*
X339341Y377356D01*
X339277Y377416D01*
X339228Y377442D01*
X339184Y377475D01*
X339102Y377506D01*
X339024Y377546D01*
X338976Y377554D01*
X338918Y377576D01*
X338770Y377588D01*
X338693Y377601D01*
X331487Y377601D01*
X330468Y378621D01*
X330421Y378656D01*
X330381Y378698D01*
X330308Y378741D01*
X330241Y378791D01*
X330186Y378812D01*
X330136Y378842D01*
X330054Y378863D01*
X329975Y378893D01*
X329917Y378898D01*
X329860Y378912D01*
X329776Y378909D01*
X329692Y378916D01*
X329634Y378905D01*
X329576Y378903D01*
X329496Y378877D01*
X329413Y378860D01*
X329361Y378833D01*
X329305Y378815D01*
X329249Y378775D01*
X329161Y378729D01*
X329088Y378661D01*
X329032Y378621D01*
X328013Y377601D01*
X314487Y377601D01*
X312417Y379672D01*
X312347Y379724D01*
X312283Y379784D01*
X312233Y379810D01*
X312189Y379843D01*
X312108Y379874D01*
X312030Y379914D01*
X311982Y379922D01*
X311924Y379944D01*
X311776Y379956D01*
X311699Y379969D01*
X303996Y379969D01*
X303995Y379969D01*
X303993Y379969D01*
X303854Y379949D01*
X303715Y379929D01*
X303713Y379929D01*
X303712Y379929D01*
X303586Y379872D01*
X303455Y379813D01*
X303454Y379812D01*
X303453Y379811D01*
X303345Y379720D01*
X303238Y379630D01*
X303237Y379628D01*
X303236Y379627D01*
X303228Y379614D01*
X303081Y379393D01*
X303071Y379364D01*
X303058Y379343D01*
X302502Y377999D01*
X299001Y374498D01*
X294426Y372603D01*
X289474Y372603D01*
X284899Y374498D01*
X281398Y377999D01*
X279503Y382574D01*
X279503Y387526D01*
X281398Y392101D01*
X284899Y395602D01*
X289474Y397497D01*
X294426Y397497D01*
X299001Y395602D01*
X302502Y392101D01*
X303058Y390757D01*
X303059Y390756D01*
X303059Y390755D01*
X303130Y390636D01*
X303203Y390513D01*
X303204Y390512D01*
X303205Y390510D01*
X303309Y390413D01*
X303409Y390317D01*
X303411Y390317D01*
X303412Y390316D01*
X303538Y390251D01*
X303662Y390187D01*
X303664Y390187D01*
X303665Y390186D01*
X303680Y390184D01*
X303941Y390132D01*
X303971Y390135D01*
X303996Y390131D01*
X311686Y390131D01*
X311744Y390139D01*
X311802Y390137D01*
X311884Y390159D01*
X311968Y390171D01*
X312021Y390194D01*
X312077Y390209D01*
X312150Y390252D01*
X312227Y390287D01*
X312272Y390325D01*
X312322Y390354D01*
X312380Y390416D01*
X312444Y390470D01*
X312476Y390519D01*
X312516Y390562D01*
X312555Y390637D01*
X312602Y390707D01*
X312619Y390763D01*
X312646Y390815D01*
X312657Y390883D01*
X312687Y390978D01*
X312690Y391078D01*
X312701Y391146D01*
X312701Y391913D01*
X314487Y393699D01*
X328013Y393699D01*
X329032Y392679D01*
X329079Y392644D01*
X329119Y392602D01*
X329192Y392559D01*
X329259Y392509D01*
X329314Y392488D01*
X329364Y392458D01*
X329446Y392437D01*
X329525Y392407D01*
X329583Y392402D01*
X329640Y392388D01*
X329724Y392391D01*
X329808Y392384D01*
X329866Y392395D01*
X329924Y392397D01*
X330004Y392423D01*
X330087Y392440D01*
X330139Y392467D01*
X330195Y392485D01*
X330251Y392525D01*
X330339Y392571D01*
X330412Y392639D01*
X330468Y392679D01*
X331487Y393699D01*
X345013Y393699D01*
X346799Y391913D01*
X346799Y391746D01*
X346807Y391688D01*
X346805Y391630D01*
X346827Y391548D01*
X346839Y391464D01*
X346862Y391411D01*
X346877Y391355D01*
X346920Y391282D01*
X346955Y391205D01*
X346993Y391160D01*
X347022Y391110D01*
X347084Y391052D01*
X347138Y390988D01*
X347187Y390956D01*
X347230Y390916D01*
X347305Y390877D01*
X347375Y390830D01*
X347431Y390813D01*
X347483Y390786D01*
X347551Y390775D01*
X347646Y390745D01*
X347746Y390742D01*
X347814Y390731D01*
X356352Y390731D01*
X356354Y390731D01*
X356356Y390731D01*
X356496Y390751D01*
X356634Y390771D01*
X356635Y390771D01*
X356637Y390771D01*
X356763Y390828D01*
X356893Y390887D01*
X356895Y390888D01*
X356896Y390889D01*
X357001Y390978D01*
X357110Y391070D01*
X357111Y391072D01*
X357112Y391073D01*
X357121Y391086D01*
X357268Y391307D01*
X357277Y391336D01*
X357290Y391357D01*
X357598Y392101D01*
X361099Y395602D01*
X365674Y397497D01*
X370626Y397497D01*
X375201Y395602D01*
X378702Y392101D01*
X380597Y387526D01*
X380597Y382574D01*
X378702Y377999D01*
X375201Y374498D01*
X370626Y372603D01*
X365674Y372603D01*
X361099Y374498D01*
X357598Y377999D01*
X356793Y379943D01*
X356792Y379944D01*
X356792Y379945D01*
X356722Y380064D01*
X356649Y380187D01*
X356648Y380188D01*
X356647Y380190D01*
X356543Y380287D01*
X356442Y380383D01*
X356441Y380383D01*
X356440Y380384D01*
X356314Y380449D01*
X356189Y380513D01*
X356188Y380513D01*
X356186Y380514D01*
X356171Y380516D01*
X355910Y380568D01*
X355880Y380565D01*
X355855Y380569D01*
X352967Y380569D01*
X352938Y380565D01*
X352909Y380568D01*
X352798Y380545D01*
X352685Y380529D01*
X352659Y380517D01*
X352630Y380512D01*
X352529Y380460D01*
X352426Y380413D01*
X352404Y380394D01*
X352378Y380381D01*
X352296Y380303D01*
X352209Y380230D01*
X352193Y380205D01*
X352172Y380185D01*
X352114Y380087D01*
X352051Y379993D01*
X352043Y379965D01*
X352028Y379940D01*
X352000Y379830D01*
X351966Y379722D01*
X351965Y379692D01*
X351958Y379664D01*
X351961Y379551D01*
X351958Y379438D01*
X351966Y379409D01*
X351967Y379380D01*
X352002Y379272D01*
X352030Y379163D01*
X352045Y379137D01*
X352054Y379109D01*
X352100Y379046D01*
X352175Y378918D01*
X352221Y378875D01*
X352249Y378836D01*
X355807Y375278D01*
X356581Y373411D01*
X356581Y370768D01*
X356593Y370681D01*
X356596Y370594D01*
X356613Y370541D01*
X356621Y370486D01*
X356656Y370406D01*
X356683Y370323D01*
X356711Y370284D01*
X356737Y370227D01*
X356833Y370113D01*
X356878Y370050D01*
X358350Y368577D01*
X359581Y365607D01*
X359581Y362393D01*
X358350Y359423D01*
X356077Y357150D01*
X353107Y355919D01*
X349893Y355919D01*
G37*
%LPD*%
%LPC*%
G36*
X84574Y33303D02*
X84574Y33303D01*
X79999Y35198D01*
X76498Y38699D01*
X74603Y43274D01*
X74603Y48226D01*
X76498Y52801D01*
X79999Y56302D01*
X84574Y58197D01*
X89526Y58197D01*
X94101Y56302D01*
X97602Y52801D01*
X97992Y51857D01*
X97993Y51856D01*
X97994Y51855D01*
X98064Y51736D01*
X98137Y51613D01*
X98138Y51612D01*
X98139Y51610D01*
X98243Y51513D01*
X98344Y51417D01*
X98345Y51417D01*
X98346Y51416D01*
X98472Y51351D01*
X98596Y51287D01*
X98598Y51287D01*
X98599Y51286D01*
X98614Y51284D01*
X98875Y51232D01*
X98906Y51235D01*
X98930Y51231D01*
X107186Y51231D01*
X107244Y51239D01*
X107302Y51237D01*
X107384Y51259D01*
X107468Y51271D01*
X107521Y51294D01*
X107577Y51309D01*
X107650Y51352D01*
X107727Y51387D01*
X107772Y51425D01*
X107822Y51454D01*
X107880Y51516D01*
X107944Y51570D01*
X107976Y51619D01*
X108016Y51662D01*
X108055Y51737D01*
X108102Y51807D01*
X108119Y51863D01*
X108146Y51915D01*
X108157Y51983D01*
X108187Y52078D01*
X108190Y52178D01*
X108201Y52246D01*
X108201Y52413D01*
X109987Y54199D01*
X123513Y54199D01*
X124532Y53179D01*
X124579Y53144D01*
X124619Y53102D01*
X124692Y53059D01*
X124759Y53009D01*
X124814Y52988D01*
X124864Y52958D01*
X124946Y52937D01*
X125025Y52907D01*
X125083Y52902D01*
X125140Y52888D01*
X125224Y52891D01*
X125308Y52884D01*
X125366Y52895D01*
X125424Y52897D01*
X125504Y52923D01*
X125587Y52940D01*
X125639Y52967D01*
X125695Y52985D01*
X125751Y53025D01*
X125839Y53071D01*
X125912Y53139D01*
X125968Y53179D01*
X126987Y54199D01*
X140513Y54199D01*
X142299Y52413D01*
X142299Y51846D01*
X142307Y51788D01*
X142305Y51730D01*
X142327Y51648D01*
X142339Y51564D01*
X142362Y51511D01*
X142377Y51455D01*
X142420Y51382D01*
X142455Y51305D01*
X142493Y51260D01*
X142522Y51210D01*
X142584Y51152D01*
X142638Y51088D01*
X142687Y51056D01*
X142730Y51016D01*
X142805Y50977D01*
X142875Y50930D01*
X142931Y50913D01*
X142983Y50886D01*
X143051Y50875D01*
X143146Y50845D01*
X143246Y50842D01*
X143314Y50831D01*
X151204Y50831D01*
X151205Y50831D01*
X151207Y50831D01*
X151346Y50851D01*
X151485Y50871D01*
X151487Y50871D01*
X151488Y50871D01*
X151614Y50928D01*
X151745Y50987D01*
X151746Y50988D01*
X151747Y50989D01*
X151855Y51080D01*
X151962Y51170D01*
X151963Y51172D01*
X151964Y51173D01*
X151972Y51186D01*
X152119Y51407D01*
X152129Y51436D01*
X152142Y51457D01*
X152698Y52801D01*
X156199Y56302D01*
X160774Y58197D01*
X165726Y58197D01*
X170301Y56302D01*
X173802Y52801D01*
X175697Y48226D01*
X175697Y43274D01*
X173802Y38699D01*
X170301Y35198D01*
X165726Y33303D01*
X160774Y33303D01*
X156199Y35198D01*
X152698Y38699D01*
X152142Y40043D01*
X152141Y40044D01*
X152141Y40045D01*
X152070Y40164D01*
X151997Y40287D01*
X151996Y40288D01*
X151995Y40290D01*
X151891Y40387D01*
X151791Y40483D01*
X151789Y40483D01*
X151788Y40484D01*
X151662Y40549D01*
X151538Y40613D01*
X151536Y40613D01*
X151535Y40614D01*
X151520Y40616D01*
X151259Y40668D01*
X151229Y40665D01*
X151204Y40669D01*
X143314Y40669D01*
X143256Y40661D01*
X143198Y40663D01*
X143116Y40641D01*
X143032Y40629D01*
X142979Y40606D01*
X142923Y40591D01*
X142850Y40548D01*
X142773Y40513D01*
X142728Y40475D01*
X142678Y40446D01*
X142620Y40384D01*
X142556Y40330D01*
X142524Y40281D01*
X142484Y40238D01*
X142445Y40163D01*
X142398Y40093D01*
X142381Y40037D01*
X142354Y39985D01*
X142346Y39934D01*
X140513Y38101D01*
X126987Y38101D01*
X125968Y39121D01*
X125921Y39156D01*
X125881Y39198D01*
X125808Y39241D01*
X125741Y39291D01*
X125686Y39312D01*
X125636Y39342D01*
X125554Y39363D01*
X125475Y39393D01*
X125417Y39398D01*
X125360Y39412D01*
X125276Y39409D01*
X125192Y39416D01*
X125134Y39405D01*
X125076Y39403D01*
X124996Y39377D01*
X124913Y39360D01*
X124861Y39333D01*
X124805Y39315D01*
X124749Y39275D01*
X124661Y39229D01*
X124588Y39161D01*
X124532Y39121D01*
X123513Y38101D01*
X109987Y38101D01*
X108201Y39887D01*
X108201Y40054D01*
X108193Y40112D01*
X108195Y40170D01*
X108173Y40252D01*
X108161Y40336D01*
X108138Y40389D01*
X108123Y40445D01*
X108080Y40518D01*
X108045Y40595D01*
X108007Y40640D01*
X107978Y40690D01*
X107916Y40748D01*
X107862Y40812D01*
X107813Y40844D01*
X107770Y40884D01*
X107695Y40923D01*
X107625Y40970D01*
X107569Y40987D01*
X107517Y41014D01*
X107449Y41025D01*
X107354Y41055D01*
X107254Y41058D01*
X107186Y41069D01*
X99262Y41069D01*
X99260Y41069D01*
X99259Y41069D01*
X99119Y41049D01*
X98980Y41029D01*
X98979Y41029D01*
X98977Y41029D01*
X98851Y40972D01*
X98721Y40913D01*
X98720Y40912D01*
X98718Y40911D01*
X98611Y40820D01*
X98504Y40730D01*
X98503Y40728D01*
X98502Y40727D01*
X98494Y40714D01*
X98346Y40493D01*
X98337Y40464D01*
X98324Y40443D01*
X97602Y38699D01*
X94101Y35198D01*
X89526Y33303D01*
X84574Y33303D01*
G37*
%LPD*%
%LPC*%
G36*
X242987Y172451D02*
X242987Y172451D01*
X241201Y174237D01*
X241201Y196763D01*
X242987Y198549D01*
X257513Y198549D01*
X259299Y196763D01*
X259299Y174237D01*
X257513Y172451D01*
X242987Y172451D01*
G37*
%LPD*%
%LPC*%
G36*
X186987Y172451D02*
X186987Y172451D01*
X185201Y174237D01*
X185201Y196763D01*
X186987Y198549D01*
X201513Y198549D01*
X203299Y196763D01*
X203299Y174237D01*
X201513Y172451D01*
X186987Y172451D01*
G37*
%LPD*%
%LPC*%
G36*
X184681Y352881D02*
X184681Y352881D01*
X184681Y362616D01*
X185446Y362495D01*
X187233Y361914D01*
X188907Y361061D01*
X190428Y359956D01*
X191756Y358628D01*
X192861Y357107D01*
X193714Y355433D01*
X194295Y353646D01*
X194416Y352881D01*
X184681Y352881D01*
G37*
%LPD*%
%LPC*%
G36*
X170884Y352881D02*
X170884Y352881D01*
X171005Y353646D01*
X171586Y355433D01*
X172439Y357107D01*
X173544Y358628D01*
X174872Y359956D01*
X176393Y361061D01*
X178067Y361914D01*
X179854Y362495D01*
X180619Y362616D01*
X180619Y352881D01*
X170884Y352881D01*
G37*
%LPD*%
%LPC*%
G36*
X184681Y348819D02*
X184681Y348819D01*
X194416Y348819D01*
X194295Y348054D01*
X193714Y346267D01*
X192861Y344593D01*
X191756Y343072D01*
X190428Y341744D01*
X188907Y340639D01*
X187233Y339786D01*
X185446Y339205D01*
X184681Y339084D01*
X184681Y348819D01*
G37*
%LPD*%
%LPC*%
G36*
X179854Y339205D02*
X179854Y339205D01*
X178067Y339786D01*
X176393Y340639D01*
X174872Y341744D01*
X173544Y343072D01*
X172439Y344593D01*
X171586Y346267D01*
X171005Y348054D01*
X170884Y348819D01*
X180619Y348819D01*
X180619Y339084D01*
X179854Y339205D01*
G37*
%LPD*%
%LPC*%
G36*
X204109Y352681D02*
X204109Y352681D01*
X204109Y355984D01*
X204282Y356631D01*
X204617Y357210D01*
X205090Y357683D01*
X205669Y358018D01*
X206316Y358191D01*
X210119Y358191D01*
X210119Y352681D01*
X204109Y352681D01*
G37*
%LPD*%
%LPC*%
G36*
X206316Y343109D02*
X206316Y343109D01*
X205669Y343282D01*
X205090Y343617D01*
X204617Y344090D01*
X204282Y344669D01*
X204109Y345316D01*
X204109Y348619D01*
X210119Y348619D01*
X210119Y343109D01*
X206316Y343109D01*
G37*
%LPD*%
%LPC*%
G36*
X238749Y223749D02*
X238749Y223749D01*
X238749Y231541D01*
X240584Y231541D01*
X241231Y231368D01*
X241810Y231033D01*
X242283Y230560D01*
X242618Y229981D01*
X242791Y229334D01*
X242791Y223749D01*
X238749Y223749D01*
G37*
%LPD*%
%LPC*%
G36*
X238749Y212959D02*
X238749Y212959D01*
X238749Y220751D01*
X242791Y220751D01*
X242791Y215166D01*
X242618Y214519D01*
X242283Y213940D01*
X241810Y213467D01*
X241231Y213132D01*
X240584Y212959D01*
X238749Y212959D01*
G37*
%LPD*%
%LPC*%
G36*
X182649Y350849D02*
X182649Y350849D01*
X182649Y350851D01*
X182651Y350851D01*
X182651Y350849D01*
X182649Y350849D01*
G37*
%LPD*%
D10*
X250250Y185500D03*
X194250Y185500D03*
D11*
X237250Y222250D03*
X227250Y222250D03*
X217250Y222250D03*
X207250Y222250D03*
D12*
X229150Y350650D03*
X212150Y350650D03*
X321250Y385650D03*
X338250Y385650D03*
D13*
X398750Y136750D03*
X398750Y119750D03*
D12*
X133750Y46150D03*
X116750Y46150D03*
D13*
X43550Y309250D03*
X43550Y326250D03*
D14*
X291950Y385050D03*
X368150Y385050D03*
X398650Y167250D03*
X398650Y91050D03*
X163250Y45750D03*
X87050Y45750D03*
X44150Y280050D03*
X44150Y356250D03*
X258850Y350850D03*
X182650Y350850D03*
D15*
X302500Y222500D03*
X416000Y335500D03*
X374000Y336500D03*
X301500Y39500D03*
X355000Y74500D03*
X73000Y108000D03*
X27000Y148750D03*
X154500Y223500D03*
X128500Y302000D03*
X287500Y302000D03*
X234500Y299500D03*
X153500Y141500D03*
X138000Y377500D03*
X103000Y412500D03*
X329500Y415500D03*
D16*
X338250Y385650D02*
X367550Y385650D01*
X368150Y385050D01*
X398650Y119650D02*
X398650Y91050D01*
X398650Y119650D02*
X398750Y119750D01*
D15*
X227000Y190500D03*
X227000Y142000D03*
D16*
X227000Y190500D01*
D15*
X130500Y335000D03*
D16*
X366000Y125500D02*
X366500Y126000D01*
X387250Y119750D02*
X398750Y119750D01*
X387250Y119750D02*
X381000Y126000D01*
X366500Y126000D01*
D15*
X366000Y125500D03*
X351500Y364000D03*
D16*
X351500Y372400D01*
X338250Y385650D01*
X227250Y249250D02*
X227250Y222250D01*
X227250Y249250D02*
X241000Y263000D01*
D15*
X241000Y263000D03*
D16*
X227250Y190750D02*
X227000Y190500D01*
X227250Y190750D02*
X227250Y222250D01*
X116750Y46150D02*
X87450Y46150D01*
X87050Y45750D01*
X43550Y326250D02*
X43550Y355650D01*
X44150Y356250D01*
X109250Y356250D01*
X130500Y335000D01*
X291950Y385050D02*
X320650Y385050D01*
X321250Y385650D01*
X398650Y167250D02*
X398750Y167150D01*
X398750Y136750D01*
X163250Y45750D02*
X134150Y45750D01*
X133750Y46150D01*
X44150Y280050D02*
X44150Y308650D01*
X43550Y309250D01*
X229350Y350850D02*
X258850Y350850D01*
X229350Y350850D02*
X229150Y350650D01*
X229150Y313150D01*
X217250Y301250D02*
X217250Y222250D01*
X217250Y301250D02*
X229150Y313150D01*
X217250Y222250D02*
X217250Y206000D01*
X217250Y198750D01*
X211000Y192500D02*
X211000Y125000D01*
D15*
X211000Y94000D03*
D16*
X211000Y125000D01*
X211000Y192500D02*
X217250Y198750D01*
X217250Y206000D02*
X215750Y207500D01*
X140500Y207500D02*
X91500Y256500D01*
D15*
X91500Y256500D03*
D16*
X140500Y207500D02*
X215750Y207500D01*
X211000Y125000D02*
X286500Y125000D01*
X302500Y141000D01*
D15*
X302500Y141000D03*
D16*
X207250Y222250D02*
X184250Y222250D01*
D15*
X141000Y265500D03*
D16*
X184250Y222250D01*
M02*
