G04 EAGLE Gerber RS-274X export*
G75*
%MOMM*%
%FSLAX34Y34*%
%LPD*%
%INSoldermask Top*%
%IPPOS*%
%AMOC8*
5,1,8,0,0,1.08239X$1,22.5*%
G01*
%ADD10R,1.854200X1.203200*%
%ADD11R,1.753200X1.503200*%
%ADD12R,1.503200X1.753200*%
%ADD13C,2.082800*%
%ADD14C,3.505200*%
%ADD15C,1.209600*%


D10*
X168020Y286250D03*
X116480Y286250D03*
X116480Y318250D03*
X168020Y318250D03*
X248020Y286250D03*
X196480Y286250D03*
X196480Y318250D03*
X248020Y318250D03*
X328020Y286250D03*
X276480Y286250D03*
X276480Y318250D03*
X328020Y318250D03*
X168020Y206250D03*
X116480Y206250D03*
X116480Y238250D03*
X168020Y238250D03*
X248020Y206250D03*
X196480Y206250D03*
X196480Y238250D03*
X248020Y238250D03*
X328020Y206250D03*
X276480Y206250D03*
X276480Y238250D03*
X328020Y238250D03*
X168020Y126250D03*
X116480Y126250D03*
X116480Y158250D03*
X168020Y158250D03*
X248020Y126250D03*
X196480Y126250D03*
X196480Y158250D03*
X248020Y158250D03*
X328020Y126250D03*
X276480Y126250D03*
X276480Y158250D03*
X328020Y158250D03*
D11*
X262000Y66610D03*
X182500Y66610D03*
X262000Y21610D03*
X182500Y21610D03*
D12*
X377890Y262000D03*
X377890Y182500D03*
X422890Y262000D03*
X422890Y182500D03*
D11*
X182500Y377890D03*
X262000Y377890D03*
X182500Y422890D03*
X262000Y422890D03*
D12*
X66610Y182500D03*
X66610Y262000D03*
X21610Y182500D03*
X21610Y262000D03*
D13*
X291950Y385050D03*
X368150Y385050D03*
X398650Y167250D03*
X398650Y91050D03*
X163250Y45750D03*
X87050Y45750D03*
X44150Y280050D03*
X44150Y356250D03*
X258850Y350850D03*
X182650Y350850D03*
D14*
X35000Y409500D03*
X409500Y409500D03*
X35000Y35000D03*
X409500Y35000D03*
D15*
X302500Y222500D03*
X416000Y335500D03*
X374000Y336500D03*
X301500Y39500D03*
X355000Y74500D03*
X73000Y108000D03*
X27000Y148750D03*
X154500Y223500D03*
X128500Y302000D03*
X287500Y302000D03*
X234500Y299500D03*
X153500Y141500D03*
X138000Y377500D03*
X103000Y412500D03*
X329500Y415500D03*
X227000Y190500D03*
X227000Y142000D03*
X130500Y335000D03*
X366000Y125500D03*
X351500Y364000D03*
X241000Y263000D03*
X211000Y94000D03*
X91500Y256500D03*
X302500Y141000D03*
X141000Y265500D03*
M02*
