G04 EAGLE Gerber RS-274X export*
G75*
%MOMM*%
%FSLAX34Y34*%
%LPD*%
%INSoldermask Bottom*%
%IPPOS*%
%AMOC8*
5,1,8,0,0,1.08239X$1,22.5*%
G01*
%ADD10R,1.403200X2.203200*%
%ADD11R,0.803200X1.553200*%
%ADD12R,1.303200X1.203200*%
%ADD13R,1.203200X1.303200*%
%ADD14C,2.082800*%
%ADD15C,3.505200*%
%ADD16C,1.209600*%


D10*
X250250Y185500D03*
X194250Y185500D03*
D11*
X237250Y222250D03*
X227250Y222250D03*
X217250Y222250D03*
X207250Y222250D03*
D12*
X229150Y350650D03*
X212150Y350650D03*
X321250Y385650D03*
X338250Y385650D03*
D13*
X398750Y136750D03*
X398750Y119750D03*
D12*
X133750Y46150D03*
X116750Y46150D03*
D13*
X43550Y309250D03*
X43550Y326250D03*
D14*
X291950Y385050D03*
X368150Y385050D03*
X398650Y167250D03*
X398650Y91050D03*
X163250Y45750D03*
X87050Y45750D03*
X44150Y280050D03*
X44150Y356250D03*
X258850Y350850D03*
X182650Y350850D03*
D15*
X35000Y409500D03*
X409500Y409500D03*
X35000Y35000D03*
X409500Y35000D03*
D16*
X302500Y222500D03*
X416000Y335500D03*
X374000Y336500D03*
X301500Y39500D03*
X355000Y74500D03*
X73000Y108000D03*
X27000Y148750D03*
X154500Y223500D03*
X128500Y302000D03*
X287500Y302000D03*
X234500Y299500D03*
X153500Y141500D03*
X138000Y377500D03*
X103000Y412500D03*
X329500Y415500D03*
X227000Y190500D03*
X227000Y142000D03*
X130500Y335000D03*
X366000Y125500D03*
X351500Y364000D03*
X241000Y263000D03*
X211000Y94000D03*
X91500Y256500D03*
X302500Y141000D03*
X141000Y265500D03*
M02*
