<svg xmlns="http://www.w3.org/2000/svg" viewBox="0 0 127 127"><defs><style>.cls-1,.cls-2,.cls-3{fill:none;stroke-miterlimit:10;}.cls-1{stroke:#231f20;}.cls-2,.cls-3{stroke:#000;}.cls-3{stroke-width:0.5px;}</style></defs><title>ledBoardimg</title><g id="Layer_2" data-name="Layer 2"><g id="Layer_1-2" data-name="Layer 1"><rect class="cls-1" x="0.5" y="0.5" width="126" height="126"/><path d="M71,5.5v15H56V5.5H71m1-1H55v17H72V4.5Z"/><path d="M76.83,6.13v1H72.17v-1h4.66m.5-.5H71.67v2h5.66v-2Z"/><path d="M76.83,18.89v1H72.17v-1h4.66m.5-.5H71.67v2h5.66v-2Z"/><path d="M54.83,6.13v1H50.17v-1h4.66m.5-.5H49.67v2h5.66v-2Z"/><path d="M54.83,18.89v1H50.17v-1h4.66m.5-.5H49.67v2h5.66v-2Z"/><circle class="cls-2" cx="63.5" cy="13" r="6"/><path d="M71,106.49v15H56v-15H71m1-1H55v17H72v-17Z"/><path d="M76.83,107.13v1H72.17v-1h4.66m.5-.5H71.67v2h5.66v-2Z"/><path d="M76.83,119.88v1H72.17v-1h4.66m.5-.5H71.67v2h5.66v-2Z"/><path d="M54.83,107.13v1H50.17v-1h4.66m.5-.5H49.67v2h5.66v-2Z"/><path d="M54.83,119.88v1H50.17v-1h4.66m.5-.5H49.67v2h5.66v-2Z"/><circle class="cls-2" cx="63.5" cy="114" r="6"/><path d="M121.5,56V71h-15V56h15m1-1h-17V72h17V55Z"/><path d="M120.87,72.17v4.66h-1V72.17h1m.5-.5h-2v5.66h2V71.67Z"/><path d="M108.11,72.17v4.66h-1V72.17h1m.5-.5h-2v5.66h2V71.67Z"/><path d="M120.87,50.17v4.66h-1V50.17h1m.5-.5h-2v5.66h2V49.67Z"/><path d="M108.11,50.17v4.66h-1V50.17h1m.5-.5h-2v5.66h2V49.67Z"/><circle class="cls-2" cx="114" cy="63.5" r="6"/><path d="M20.51,56V71H5.5V56h15m1-1H4.5V72h17V55Z"/><path d="M19.87,72.17v4.66h-1V72.17h1m.5-.5h-2v5.66h2V71.67Z"/><path d="M7.12,72.17v4.66h-1V72.17h1m.5-.5h-2v5.66h2V71.67Z"/><path d="M19.87,50.17v4.66h-1V50.17h1m.5-.5h-2v5.66h2V49.67Z"/><path d="M7.12,50.17v4.66h-1V50.17h1m.5-.5h-2v5.66h2V49.67Z"/><circle class="cls-2" cx="13" cy="63.5" r="6"/><rect class="cls-3" x="68.32" y="57.55" width="4.25" height="2.55"/><rect class="cls-3" x="68.32" y="66.9" width="4.25" height="2.55"/><rect class="cls-3" x="54.43" y="57.55" width="4.25" height="2.55"/><rect class="cls-3" x="54.43" y="66.9" width="4.25" height="2.55"/><rect class="cls-3" x="56.41" y="56.41" width="14.17" height="14.17"/><rect class="cls-3" x="45.64" y="57.55" width="4.25" height="2.55"/><rect class="cls-3" x="45.64" y="66.9" width="4.25" height="2.55"/><rect class="cls-3" x="31.75" y="57.55" width="4.25" height="2.55"/><rect class="cls-3" x="31.75" y="66.9" width="4.25" height="2.55"/><rect class="cls-3" x="33.74" y="56.41" width="14.17" height="14.17"/><rect class="cls-3" x="91" y="57.55" width="4.25" height="2.55"/><rect class="cls-3" x="91" y="66.9" width="4.25" height="2.55"/><rect class="cls-3" x="77.11" y="57.55" width="4.25" height="2.55"/><rect class="cls-3" x="77.11" y="66.9" width="4.25" height="2.55"/><rect class="cls-3" x="79.09" y="56.41" width="14.17" height="14.17"/><rect class="cls-3" x="68.32" y="80.23" width="4.25" height="2.55"/><rect class="cls-3" x="68.32" y="89.58" width="4.25" height="2.55"/><rect class="cls-3" x="54.43" y="80.23" width="4.25" height="2.55"/><rect class="cls-3" x="54.43" y="89.58" width="4.25" height="2.55"/><rect class="cls-3" x="56.41" y="79.09" width="14.17" height="14.17"/><rect class="cls-3" x="45.64" y="80.23" width="4.25" height="2.55"/><rect class="cls-3" x="45.64" y="89.58" width="4.25" height="2.55"/><rect class="cls-3" x="31.75" y="80.23" width="4.25" height="2.55"/><rect class="cls-3" x="31.75" y="89.58" width="4.25" height="2.55"/><rect class="cls-3" x="33.74" y="79.09" width="14.17" height="14.17"/><rect class="cls-3" x="91" y="80.23" width="4.25" height="2.55"/><rect class="cls-3" x="91" y="89.58" width="4.25" height="2.55"/><rect class="cls-3" x="77.11" y="80.23" width="4.25" height="2.55"/><rect class="cls-3" x="77.11" y="89.58" width="4.25" height="2.55"/><rect class="cls-3" x="79.09" y="79.09" width="14.17" height="14.17"/><rect class="cls-3" x="68.32" y="34.87" width="4.25" height="2.55"/><rect class="cls-3" x="68.32" y="44.23" width="4.25" height="2.55"/><rect class="cls-3" x="54.43" y="34.87" width="4.25" height="2.55"/><rect class="cls-3" x="54.43" y="44.23" width="4.25" height="2.55"/><rect class="cls-3" x="56.41" y="33.74" width="14.17" height="14.17"/><rect class="cls-3" x="45.64" y="34.87" width="4.25" height="2.55"/><rect class="cls-3" x="45.64" y="44.23" width="4.25" height="2.55"/><rect class="cls-3" x="31.75" y="34.87" width="4.25" height="2.55"/><rect class="cls-3" x="31.75" y="44.23" width="4.25" height="2.55"/><rect class="cls-3" x="33.74" y="33.74" width="14.17" height="14.17"/><rect class="cls-3" x="91" y="34.87" width="4.25" height="2.55"/><rect class="cls-3" x="91" y="44.23" width="4.25" height="2.55"/><rect class="cls-3" x="77.11" y="34.87" width="4.25" height="2.55"/><rect class="cls-3" x="77.11" y="44.23" width="4.25" height="2.55"/><rect class="cls-3" x="79.09" y="33.74" width="14.17" height="14.17"/></g></g></svg>