M48
;GenerationSoftware,Autodesk,EAGLE,9.5.1*%
;CreationDate,2019-10-15T21:25:38Z*%
FMAT,2
ICI,OFF
METRIC,TZ,000.000
T3C0.600
T2C0.900
T1C3.302
%
G90
M71
T1
X3500Y40950
X40950Y40950
X3500Y3500
X40950Y3500
T2
X18265Y35085
X29195Y38505
X36815Y38505
X39865Y16725
X39865Y9105
X16325Y4575
X8705Y4575
X4415Y28005
X4415Y35625
X25885Y35085
T3
X32950Y41550
X22700Y19050
X22700Y14200
X13050Y33500
X36600Y12550
X30250Y22250
X24100Y26300
X21100Y9400
X9150Y25650
X30250Y14100
X14100Y26550
X41600Y33550
X37400Y33650
X30150Y3950
X35500Y7450
X7300Y10800
X2700Y14875
X15450Y22350
X12850Y30200
X28750Y30200
X23450Y29950
X15350Y14150
X13800Y37750
X10300Y41250
X35150Y36400
M30