G04 EAGLE Gerber X2 export*
%TF.Part,Single*%
%TF.FileFunction,Profile,NP*%
%TF.FilePolarity,Positive*%
%TF.GenerationSoftware,Autodesk,EAGLE,9.5.1*%
%TF.CreationDate,2019-11-06T06:05:16Z*%
G75*
%MOIN*%
%FSLAX36Y36*%
%LPD*%
%INBoard Outline*%
%AMOC8*
5,1,8,0,0,1.08239X$1,22.5*%
G01*
%ADD10C,0.010000*%


D10*
X0Y0D02*
X10500000Y0D01*
X10500000Y10500000D01*
X0Y10500000D01*
X0Y0D01*
X315000Y247872D02*
X314722Y243625D01*
X314166Y239406D01*
X313336Y235232D01*
X312234Y231121D01*
X310867Y227092D01*
X309238Y223160D01*
X307356Y219343D01*
X305228Y215657D01*
X302863Y212119D01*
X300273Y208742D01*
X297467Y205543D01*
X294457Y202533D01*
X291258Y199727D01*
X287881Y197137D01*
X284343Y194772D01*
X280657Y192644D01*
X276840Y190762D01*
X272908Y189133D01*
X268879Y187766D01*
X264768Y186664D01*
X260594Y185834D01*
X256375Y185278D01*
X252128Y185000D01*
X247872Y185000D01*
X243625Y185278D01*
X239406Y185834D01*
X235232Y186664D01*
X231121Y187766D01*
X227092Y189133D01*
X223160Y190762D01*
X219343Y192644D01*
X215657Y194772D01*
X212119Y197137D01*
X208742Y199727D01*
X205543Y202533D01*
X202533Y205543D01*
X199727Y208742D01*
X197137Y212119D01*
X194772Y215657D01*
X192644Y219343D01*
X190762Y223160D01*
X189133Y227092D01*
X187766Y231121D01*
X186664Y235232D01*
X185834Y239406D01*
X185278Y243625D01*
X185000Y247872D01*
X185000Y252128D01*
X185278Y256375D01*
X185834Y260594D01*
X186664Y264768D01*
X187766Y268879D01*
X189133Y272908D01*
X190762Y276840D01*
X192644Y280657D01*
X194772Y284343D01*
X197137Y287881D01*
X199727Y291258D01*
X202533Y294457D01*
X205543Y297467D01*
X208742Y300273D01*
X212119Y302863D01*
X215657Y305228D01*
X219343Y307356D01*
X223160Y309238D01*
X227092Y310867D01*
X231121Y312234D01*
X235232Y313336D01*
X239406Y314166D01*
X243625Y314722D01*
X247872Y315000D01*
X252128Y315000D01*
X256375Y314722D01*
X260594Y314166D01*
X264768Y313336D01*
X268879Y312234D01*
X272908Y310867D01*
X276840Y309238D01*
X280657Y307356D01*
X284343Y305228D01*
X287881Y302863D01*
X291258Y300273D01*
X294457Y297467D01*
X297467Y294457D01*
X300273Y291258D01*
X302863Y287881D01*
X305228Y284343D01*
X307356Y280657D01*
X309238Y276840D01*
X310867Y272908D01*
X312234Y268879D01*
X313336Y264768D01*
X314166Y260594D01*
X314722Y256375D01*
X315000Y252128D01*
X315000Y247872D01*
X10315000Y247872D02*
X10314722Y243625D01*
X10314166Y239406D01*
X10313336Y235232D01*
X10312234Y231121D01*
X10310867Y227092D01*
X10309238Y223160D01*
X10307356Y219343D01*
X10305228Y215657D01*
X10302863Y212119D01*
X10300273Y208742D01*
X10297467Y205543D01*
X10294457Y202533D01*
X10291258Y199727D01*
X10287881Y197137D01*
X10284343Y194772D01*
X10280657Y192644D01*
X10276840Y190762D01*
X10272908Y189133D01*
X10268879Y187766D01*
X10264768Y186664D01*
X10260594Y185834D01*
X10256375Y185278D01*
X10252128Y185000D01*
X10247872Y185000D01*
X10243625Y185278D01*
X10239406Y185834D01*
X10235232Y186664D01*
X10231121Y187766D01*
X10227092Y189133D01*
X10223160Y190762D01*
X10219343Y192644D01*
X10215657Y194772D01*
X10212119Y197137D01*
X10208742Y199727D01*
X10205543Y202533D01*
X10202533Y205543D01*
X10199727Y208742D01*
X10197137Y212119D01*
X10194772Y215657D01*
X10192644Y219343D01*
X10190762Y223160D01*
X10189133Y227092D01*
X10187766Y231121D01*
X10186664Y235232D01*
X10185834Y239406D01*
X10185278Y243625D01*
X10185000Y247872D01*
X10185000Y252128D01*
X10185278Y256375D01*
X10185834Y260594D01*
X10186664Y264768D01*
X10187766Y268879D01*
X10189133Y272908D01*
X10190762Y276840D01*
X10192644Y280657D01*
X10194772Y284343D01*
X10197137Y287881D01*
X10199727Y291258D01*
X10202533Y294457D01*
X10205543Y297467D01*
X10208742Y300273D01*
X10212119Y302863D01*
X10215657Y305228D01*
X10219343Y307356D01*
X10223160Y309238D01*
X10227092Y310867D01*
X10231121Y312234D01*
X10235232Y313336D01*
X10239406Y314166D01*
X10243625Y314722D01*
X10247872Y315000D01*
X10252128Y315000D01*
X10256375Y314722D01*
X10260594Y314166D01*
X10264768Y313336D01*
X10268879Y312234D01*
X10272908Y310867D01*
X10276840Y309238D01*
X10280657Y307356D01*
X10284343Y305228D01*
X10287881Y302863D01*
X10291258Y300273D01*
X10294457Y297467D01*
X10297467Y294457D01*
X10300273Y291258D01*
X10302863Y287881D01*
X10305228Y284343D01*
X10307356Y280657D01*
X10309238Y276840D01*
X10310867Y272908D01*
X10312234Y268879D01*
X10313336Y264768D01*
X10314166Y260594D01*
X10314722Y256375D01*
X10315000Y252128D01*
X10315000Y247872D01*
X315000Y10247872D02*
X314722Y10243625D01*
X314166Y10239406D01*
X313336Y10235232D01*
X312234Y10231121D01*
X310867Y10227092D01*
X309238Y10223160D01*
X307356Y10219343D01*
X305228Y10215657D01*
X302863Y10212119D01*
X300273Y10208742D01*
X297467Y10205543D01*
X294457Y10202533D01*
X291258Y10199727D01*
X287881Y10197137D01*
X284343Y10194772D01*
X280657Y10192644D01*
X276840Y10190762D01*
X272908Y10189133D01*
X268879Y10187766D01*
X264768Y10186664D01*
X260594Y10185834D01*
X256375Y10185278D01*
X252128Y10185000D01*
X247872Y10185000D01*
X243625Y10185278D01*
X239406Y10185834D01*
X235232Y10186664D01*
X231121Y10187766D01*
X227092Y10189133D01*
X223160Y10190762D01*
X219343Y10192644D01*
X215657Y10194772D01*
X212119Y10197137D01*
X208742Y10199727D01*
X205543Y10202533D01*
X202533Y10205543D01*
X199727Y10208742D01*
X197137Y10212119D01*
X194772Y10215657D01*
X192644Y10219343D01*
X190762Y10223160D01*
X189133Y10227092D01*
X187766Y10231121D01*
X186664Y10235232D01*
X185834Y10239406D01*
X185278Y10243625D01*
X185000Y10247872D01*
X185000Y10252128D01*
X185278Y10256375D01*
X185834Y10260594D01*
X186664Y10264768D01*
X187766Y10268879D01*
X189133Y10272908D01*
X190762Y10276840D01*
X192644Y10280657D01*
X194772Y10284343D01*
X197137Y10287881D01*
X199727Y10291258D01*
X202533Y10294457D01*
X205543Y10297467D01*
X208742Y10300273D01*
X212119Y10302863D01*
X215657Y10305228D01*
X219343Y10307356D01*
X223160Y10309238D01*
X227092Y10310867D01*
X231121Y10312234D01*
X235232Y10313336D01*
X239406Y10314166D01*
X243625Y10314722D01*
X247872Y10315000D01*
X252128Y10315000D01*
X256375Y10314722D01*
X260594Y10314166D01*
X264768Y10313336D01*
X268879Y10312234D01*
X272908Y10310867D01*
X276840Y10309238D01*
X280657Y10307356D01*
X284343Y10305228D01*
X287881Y10302863D01*
X291258Y10300273D01*
X294457Y10297467D01*
X297467Y10294457D01*
X300273Y10291258D01*
X302863Y10287881D01*
X305228Y10284343D01*
X307356Y10280657D01*
X309238Y10276840D01*
X310867Y10272908D01*
X312234Y10268879D01*
X313336Y10264768D01*
X314166Y10260594D01*
X314722Y10256375D01*
X315000Y10252128D01*
X315000Y10247872D01*
X10315000Y10247872D02*
X10314722Y10243625D01*
X10314166Y10239406D01*
X10313336Y10235232D01*
X10312234Y10231121D01*
X10310867Y10227092D01*
X10309238Y10223160D01*
X10307356Y10219343D01*
X10305228Y10215657D01*
X10302863Y10212119D01*
X10300273Y10208742D01*
X10297467Y10205543D01*
X10294457Y10202533D01*
X10291258Y10199727D01*
X10287881Y10197137D01*
X10284343Y10194772D01*
X10280657Y10192644D01*
X10276840Y10190762D01*
X10272908Y10189133D01*
X10268879Y10187766D01*
X10264768Y10186664D01*
X10260594Y10185834D01*
X10256375Y10185278D01*
X10252128Y10185000D01*
X10247872Y10185000D01*
X10243625Y10185278D01*
X10239406Y10185834D01*
X10235232Y10186664D01*
X10231121Y10187766D01*
X10227092Y10189133D01*
X10223160Y10190762D01*
X10219343Y10192644D01*
X10215657Y10194772D01*
X10212119Y10197137D01*
X10208742Y10199727D01*
X10205543Y10202533D01*
X10202533Y10205543D01*
X10199727Y10208742D01*
X10197137Y10212119D01*
X10194772Y10215657D01*
X10192644Y10219343D01*
X10190762Y10223160D01*
X10189133Y10227092D01*
X10187766Y10231121D01*
X10186664Y10235232D01*
X10185834Y10239406D01*
X10185278Y10243625D01*
X10185000Y10247872D01*
X10185000Y10252128D01*
X10185278Y10256375D01*
X10185834Y10260594D01*
X10186664Y10264768D01*
X10187766Y10268879D01*
X10189133Y10272908D01*
X10190762Y10276840D01*
X10192644Y10280657D01*
X10194772Y10284343D01*
X10197137Y10287881D01*
X10199727Y10291258D01*
X10202533Y10294457D01*
X10205543Y10297467D01*
X10208742Y10300273D01*
X10212119Y10302863D01*
X10215657Y10305228D01*
X10219343Y10307356D01*
X10223160Y10309238D01*
X10227092Y10310867D01*
X10231121Y10312234D01*
X10235232Y10313336D01*
X10239406Y10314166D01*
X10243625Y10314722D01*
X10247872Y10315000D01*
X10252128Y10315000D01*
X10256375Y10314722D01*
X10260594Y10314166D01*
X10264768Y10313336D01*
X10268879Y10312234D01*
X10272908Y10310867D01*
X10276840Y10309238D01*
X10280657Y10307356D01*
X10284343Y10305228D01*
X10287881Y10302863D01*
X10291258Y10300273D01*
X10294457Y10297467D01*
X10297467Y10294457D01*
X10300273Y10291258D01*
X10302863Y10287881D01*
X10305228Y10284343D01*
X10307356Y10280657D01*
X10309238Y10276840D01*
X10310867Y10272908D01*
X10312234Y10268879D01*
X10313336Y10264768D01*
X10314166Y10260594D01*
X10314722Y10256375D01*
X10315000Y10252128D01*
X10315000Y10247872D01*
X5315000Y247872D02*
X5314722Y243625D01*
X5314166Y239406D01*
X5313336Y235232D01*
X5312234Y231121D01*
X5310867Y227092D01*
X5309238Y223160D01*
X5307356Y219343D01*
X5305228Y215657D01*
X5302863Y212119D01*
X5300273Y208742D01*
X5297467Y205543D01*
X5294457Y202533D01*
X5291258Y199727D01*
X5287881Y197137D01*
X5284343Y194772D01*
X5280657Y192644D01*
X5276840Y190762D01*
X5272908Y189133D01*
X5268879Y187766D01*
X5264768Y186664D01*
X5260594Y185834D01*
X5256375Y185278D01*
X5252128Y185000D01*
X5247872Y185000D01*
X5243625Y185278D01*
X5239406Y185834D01*
X5235232Y186664D01*
X5231121Y187766D01*
X5227092Y189133D01*
X5223160Y190762D01*
X5219343Y192644D01*
X5215657Y194772D01*
X5212119Y197137D01*
X5208742Y199727D01*
X5205543Y202533D01*
X5202533Y205543D01*
X5199727Y208742D01*
X5197137Y212119D01*
X5194772Y215657D01*
X5192644Y219343D01*
X5190762Y223160D01*
X5189133Y227092D01*
X5187766Y231121D01*
X5186664Y235232D01*
X5185834Y239406D01*
X5185278Y243625D01*
X5185000Y247872D01*
X5185000Y252128D01*
X5185278Y256375D01*
X5185834Y260594D01*
X5186664Y264768D01*
X5187766Y268879D01*
X5189133Y272908D01*
X5190762Y276840D01*
X5192644Y280657D01*
X5194772Y284343D01*
X5197137Y287881D01*
X5199727Y291258D01*
X5202533Y294457D01*
X5205543Y297467D01*
X5208742Y300273D01*
X5212119Y302863D01*
X5215657Y305228D01*
X5219343Y307356D01*
X5223160Y309238D01*
X5227092Y310867D01*
X5231121Y312234D01*
X5235232Y313336D01*
X5239406Y314166D01*
X5243625Y314722D01*
X5247872Y315000D01*
X5252128Y315000D01*
X5256375Y314722D01*
X5260594Y314166D01*
X5264768Y313336D01*
X5268879Y312234D01*
X5272908Y310867D01*
X5276840Y309238D01*
X5280657Y307356D01*
X5284343Y305228D01*
X5287881Y302863D01*
X5291258Y300273D01*
X5294457Y297467D01*
X5297467Y294457D01*
X5300273Y291258D01*
X5302863Y287881D01*
X5305228Y284343D01*
X5307356Y280657D01*
X5309238Y276840D01*
X5310867Y272908D01*
X5312234Y268879D01*
X5313336Y264768D01*
X5314166Y260594D01*
X5314722Y256375D01*
X5315000Y252128D01*
X5315000Y247872D01*
X5315000Y10247872D02*
X5314722Y10243625D01*
X5314166Y10239406D01*
X5313336Y10235232D01*
X5312234Y10231121D01*
X5310867Y10227092D01*
X5309238Y10223160D01*
X5307356Y10219343D01*
X5305228Y10215657D01*
X5302863Y10212119D01*
X5300273Y10208742D01*
X5297467Y10205543D01*
X5294457Y10202533D01*
X5291258Y10199727D01*
X5287881Y10197137D01*
X5284343Y10194772D01*
X5280657Y10192644D01*
X5276840Y10190762D01*
X5272908Y10189133D01*
X5268879Y10187766D01*
X5264768Y10186664D01*
X5260594Y10185834D01*
X5256375Y10185278D01*
X5252128Y10185000D01*
X5247872Y10185000D01*
X5243625Y10185278D01*
X5239406Y10185834D01*
X5235232Y10186664D01*
X5231121Y10187766D01*
X5227092Y10189133D01*
X5223160Y10190762D01*
X5219343Y10192644D01*
X5215657Y10194772D01*
X5212119Y10197137D01*
X5208742Y10199727D01*
X5205543Y10202533D01*
X5202533Y10205543D01*
X5199727Y10208742D01*
X5197137Y10212119D01*
X5194772Y10215657D01*
X5192644Y10219343D01*
X5190762Y10223160D01*
X5189133Y10227092D01*
X5187766Y10231121D01*
X5186664Y10235232D01*
X5185834Y10239406D01*
X5185278Y10243625D01*
X5185000Y10247872D01*
X5185000Y10252128D01*
X5185278Y10256375D01*
X5185834Y10260594D01*
X5186664Y10264768D01*
X5187766Y10268879D01*
X5189133Y10272908D01*
X5190762Y10276840D01*
X5192644Y10280657D01*
X5194772Y10284343D01*
X5197137Y10287881D01*
X5199727Y10291258D01*
X5202533Y10294457D01*
X5205543Y10297467D01*
X5208742Y10300273D01*
X5212119Y10302863D01*
X5215657Y10305228D01*
X5219343Y10307356D01*
X5223160Y10309238D01*
X5227092Y10310867D01*
X5231121Y10312234D01*
X5235232Y10313336D01*
X5239406Y10314166D01*
X5243625Y10314722D01*
X5247872Y10315000D01*
X5252128Y10315000D01*
X5256375Y10314722D01*
X5260594Y10314166D01*
X5264768Y10313336D01*
X5268879Y10312234D01*
X5272908Y10310867D01*
X5276840Y10309238D01*
X5280657Y10307356D01*
X5284343Y10305228D01*
X5287881Y10302863D01*
X5291258Y10300273D01*
X5294457Y10297467D01*
X5297467Y10294457D01*
X5300273Y10291258D01*
X5302863Y10287881D01*
X5305228Y10284343D01*
X5307356Y10280657D01*
X5309238Y10276840D01*
X5310867Y10272908D01*
X5312234Y10268879D01*
X5313336Y10264768D01*
X5314166Y10260594D01*
X5314722Y10256375D01*
X5315000Y10252128D01*
X5315000Y10247872D01*
M02*
